<?xml version="1.0" encoding="UTF-8" standalone="no"?>
<!DOCTYPE svg PUBLIC "-//W3C//DTD SVG 1.1//EN" "http://www.w3.org/Graphics/SVG/1.1/DTD/svg11.dtd">
<!-- Created with Vectornator (http://vectornator.io/) -->
<svg height="100%" stroke-miterlimit="10" style="fill-rule:nonzero;clip-rule:evenodd;stroke-linecap:round;stroke-linejoin:round;" version="1.1" viewBox="0 0 400 400" width="100%" xml:space="preserve" xmlns="http://www.w3.org/2000/svg" xmlns:vectornator="http://vectornator.io" xmlns:xlink="http://www.w3.org/1999/xlink">
<defs/>
<g id="Слой-2" vectornator:layerName="Слой 2">
<g opacity="1" vectornator:layerName="Группа 1">
<path d="M348.226 201.908C351.094 210.58 347.962 225.464 341.69 230.39C335.419 235.317 326.913 238.403 320.841 239.715C314.065 241.18 306.347 239.759 299.37 236.788C292.394 233.818 286.158 229.297 282.347 224.562C280.982 222.866 279.032 218.683 277.279 214.921C275.526 211.16 273.97 207.821 273.395 207.814C272.809 207.808 272.793 209.248 272.922 210.851C273.05 212.453 273.324 214.217 273.316 214.857C273.287 217.514 273.328 220.181 272.984 222.768C272.639 225.354 271.908 227.859 270.334 230.192C266.843 235.365 260.76 240.411 253.821 243.83C246.882 247.248 239.089 249.039 232.178 247.7C223.63 246.045 216.706 241.45 211.207 235.599C205.709 229.747 201.635 222.638 198.789 215.955C198.375 214.982 198.099 212.785 197.728 210.645C197.357 208.505 196.89 206.423 196.092 205.68C195.764 205.374 195.759 205.801 195.835 206.411C195.911 207.021 196.068 207.814 196.063 208.241C196.05 209.458 195.935 210.493 195.696 211.504C195.457 212.516 195.094 213.504 194.586 214.628C193.36 217.338 192.214 220.247 190.697 222.931C189.179 225.615 187.29 228.074 184.574 229.885C177.739 234.445 169.348 237.129 160.611 238.383C151.873 239.636 142.79 239.46 134.569 238.298C126.938 237.219 119.672 233.429 113.503 228.393C107.335 223.357 102.264 217.075 99.0221 211.011C97.9265 208.961 97.2469 206.866 96.8474 204.726C96.4479 202.587 96.3285 200.402 96.3533 198.174L96.389 194.973L96.4247 191.772C96.4247 191.772 93.926 193.276 91.1446 194.931C88.3633 196.585 85.2829 198.36 84.1689 198.991C27.8783 230.855 10.0469 158.749 53.2587 149.089C-18.0365 129.454 72.4997 46.2254 102.219 101.141C99.3372 81.4699 138.462 68.5361 146.103 99.2541C154.306 63.8618 186.308 66.3073 198.237 90.0389C195.992 68.6853 195.6 38.1419 223.896 33.7041C261.656 31.675 260.039 55.6024 266.709 74.2883C268.769-6.47953 433.028 59.1592 353.185 128.181C381.319 126.674 395.498 146.287 396.958 161.701C398.417 177.114 380.517 201.442 356.053 192.114C346.067 188.306 343.512 187.959 344.568 190.585C345.624 193.21 348.234 201.908 348.234 201.908" fill="#2e71a5" fill-rule="nonzero" opacity="1" stroke="#4b4b4b" stroke-linecap="butt" stroke-linejoin="round" stroke-width="2.38258" vectornator:layerName="Кривая 1"/>
<path d="M362.944 68.8119C361.445 66.3783 357.055 65.3582 354.323 63.8265C345.729 59.0079 336.463 54.5343 326.882 51.0615M369.613 80.8875C365.114 73.5859 347.48 68.8038 339.105 65.3966C335.328 63.8603 330.787 61.6398 326.436 61.5981M371.062 88.7458C365.455 79.6436 346.457 74.363 335.624 70.7562C331.509 69.3861 327.385 67.5848 322.956 66.9577M368.509 94.3594C369.573 94.3696 366.17 93.1134 364.512 91.6246C362.049 89.4134 359.637 87.3459 356.524 85.6648C350.033 82.1586 337.13 80.4814 329.314 79.0304M366.225 103.162C367.808 100.724 360.511 96.1646 359.192 95.2507C351.958 90.2372 341.527 88.1154 332.641 85.681M364.608 108.295C365.643 106.7 362.539 105.087 361.256 103.605C358.066 99.9194 354.345 96.2487 348.651 94.9045C346.106 94.3036 343.46 94.7941 340.907 94.0948M358.662 112.405C355.964 105.781 346.202 98.7581 337.768 97.0064M353.054 114.312C347.769 110.042 344.387 103.719 336.458 102.387M348.092 114.265C347.035 111.67 343.58 110.159 340.402 109.288M392.823 156.482C386.183 144.059 380.067 139.103 364.787 135.714C362.048 135.106 359.568 133.54 356.68 133.508M393.096 166.714C393.323 167.138 393.856 168.05 393.851 168.486C393.841 169.342 393.444 166.807 393.104 166.009C392.791 165.273 392.346 164.589 391.966 163.88C390.433 161.01 388.888 158.939 386.628 156.413C381.498 150.679 371.804 143.551 363.152 143.456M386.451 172.284C388.992 172.312 384.548 166.22 383.82 165.201C379.646 159.363 373.923 156.129 367.305 153.025M384.397 182.843C385.414 181.039 383.882 178.796 383.303 176.835C381.545 170.881 378.139 164.99 371.062 163.296M376.615 186.285C376.699 178.672 373.859 172.376 367.136 168.191M344.665 203.921C344.778 193.783 327.607 183.476 319.778 178.602M345.322 214.51C338.757 202.229 330.321 191.251 315.816 186.671M342.517 222.944C342.551 219.931 338.465 213.687 337.222 211.598C333.791 205.83 328.649 201.749 322.655 198.387M336.287 226.05C336.42 225.699 336.856 225.334 336.686 224.996C334.659 220.977 332.26 217.119 329.846 213.281C327.59 209.692 326.168 208.397 322.956 206.15M331.605 229.173C333.216 229.928 330.044 221.841 329.377 220.683C326.676 215.996 322.117 213.565 318.266 209.978M325.782 230.519C323.013 222.684 322.12 220.338 316.275 214.894M268.988 218.957C266.483 216.624 266.009 213.022 264.44 210.089C260.702 203.094 255.571 194.704 247.222 191.557M263.442 230.183C263.476 227.17 261.315 224.468 260.052 221.68C257.666 216.414 255.437 210.489 251.32 206.064C248.433 202.962 244.808 200.711 241.731 197.845M258.338 236.476C258.47 236.242 258.824 236.024 258.733 235.775C257.417 232.168 255.909 228.613 254.205 225.143C251.318 219.265 248.8 216.031 243.505 212.327M254.454 237.491C250.419 229.942 246.536 224.117 240.732 217.94M245.557 236.687C247.606 233.052 239.077 224.95 236.039 222.12M189.218 219.134C189.311 210.739 181.063 199.78 175.167 194.288M186.073 223.332C186.199 212.061 169.115 200.307 162.023 192.379M180.973 229.272C180.996 227.23 176.882 220.604 176.053 218.989C171.687 210.475 165.408 202.507 157.329 196.56C153.671 193.867 149.234 192.467 145.398 190.079M175.165 229.208C169.076 211.977 151.306 200.295 134.529 192.428M166.604 232.993C161.794 219.382 146.551 205.679 132.511 199.813M158.45 235.02C158.495 230.974 153.644 228.183 150.816 225.059C143.315 216.772 135.441 210.936 125.083 206.08M141.844 230.956C138.32 224.362 131.837 220.579 125.744 216.316M89.2213 192.633C89.2626 188.923 89.3385 184.509 88.5728 181.339C87.5109 176.942 85.3116 172.837 83.681 168.586M53.7213 97.3857C50.7116 98.3193 50.311 100.311 49.8592 102.194C48.1144 109.468 55.9649 114.941 64.7307 119.243M44.3747 103.227C39.8573 103.192 42.8248 110.572 43.3926 112.089C45.4545 117.599 52.1918 123.874 61.2678 125.398M36.6763 111.231C36.6421 113.381 35.968 115.565 36.5737 117.681C38.2463 123.523 52.9524 127.276 59.5044 130.492M36.9388 121.178C37.9463 121.186 39.3726 124.801 40.6513 125.776C44.5308 128.734 53.3308 132.325 59.4745 132.373M38.0937 127.907C41.5192 132.403 48.0703 136.05 55.6039 137.719M40.0898 134.642C37.4553 137.922 54.5761 143.706 58.012 144.995M84.5594 193.992C82.4892 188.134 81.1509 184.298 77.7789 176.987C76.5626 174.349 73.8493 167.082 69.7858 164.553M76.3736 198.84C73.1304 195.819 74.5517 190.556 73.4138 186.462C72.2899 182.419 70.4991 177.9 66.5665 175.452M70.9334 200.544C72.8693 198.819 71.6298 195.543 71.016 193.137C69.7067 188.006 67.5375 186.022 64.5558 182.131M66.6705 200.849C68.5004 197.602 60.6297 187.74 57.5552 184.876M64.7307 201.181C63.7045 195.196 57.6947 191.32 52.8775 187.646M58.9308 200.411C58.107 196.449 54.1885 194.288 50.4994 192.558" fill="none" opacity="1" stroke="#4b4b4b" stroke-linecap="butt" stroke-linejoin="round" stroke-width="2.38258" vectornator:layerName="Кривая 6"/>
</g>
<path d="M144.537 289.487C143.856 287.705 136.813 297.988 135.804 299.58C130.77 307.531 130.812 317.547 136.456 318.822C143.88 320.499 146.571 307.911 146.429 303.002C146.285 298.059 146.32 294.156 144.537 289.487ZM135.607 314.805C138.472 315.577 140.751 315.926 142.331 311.129M135.607 311.129C137.77 311.129 139.934 309.202 139.934 309.202M135.607 305.77C136.967 306.646 138.439 305.705 139.278 305.469M137.199 301.72C137.732 302.075 137.77 302.922 139.278 302.287M208.99 290.099C208.309 288.317 201.266 298.599 200.258 300.192C195.224 308.143 195.265 318.158 200.91 319.434C208.333 321.11 211.025 308.523 210.882 303.614C210.739 298.671 210.773 294.768 208.99 290.099ZM200.061 315.417C202.926 316.189 205.204 316.538 206.784 311.741M200.061 311.741C202.224 311.741 204.387 309.814 204.387 309.814M200.061 306.381C201.421 307.258 202.893 306.317 203.731 306.081M201.652 302.332C202.185 302.686 202.224 303.533 203.731 302.899M265.981 289.487C265.3 287.705 258.257 297.988 257.249 299.58C252.215 307.531 252.256 317.547 257.901 318.822C265.324 320.499 268.016 307.911 267.873 303.002C267.729 298.059 267.764 294.156 265.981 289.487ZM257.051 314.805C259.916 315.577 262.195 315.926 263.775 311.129M257.051 311.129C259.215 311.129 261.378 309.202 261.378 309.202M257.051 305.77C258.411 306.646 259.884 305.705 260.722 305.469M258.643 301.72C259.176 302.075 259.215 302.922 260.722 302.287M171.192 331.476C170.511 329.694 163.468 339.976 162.46 341.569C157.426 349.52 157.467 359.535 163.112 360.81C170.535 362.487 173.227 349.9 173.084 344.991C172.941 340.048 172.975 336.144 171.192 331.476ZM162.263 356.794C165.128 357.566 167.406 357.914 168.986 353.118M162.263 353.118C164.426 353.118 166.589 351.191 166.589 351.191M162.263 347.758C163.622 348.635 165.095 347.694 165.933 347.458M163.854 343.709C164.387 344.063 164.426 344.91 165.933 344.276M234.939 329.64C234.258 327.858 227.215 338.141 226.207 339.734C221.173 347.684 221.214 357.7 226.859 358.975C234.282 360.652 236.974 348.064 236.831 343.155C236.687 338.212 236.722 334.309 234.939 329.64ZM226.009 354.958C228.875 355.73 231.153 356.079 232.733 351.283M226.009 351.283C228.173 351.283 230.336 349.355 230.336 349.355M226.009 345.923C227.369 346.8 228.842 345.858 229.68 345.622M227.601 341.873C228.134 342.228 228.173 343.075 229.68 342.44" fill="#2990f2" fill-rule="nonzero" opacity="1" stroke="#4b4b4b" stroke-linecap="butt" stroke-linejoin="round" stroke-width="2.00401" vectornator:layerName="Кривая 4"/>
<path d="M194.761 152.187C199.695 152.264 219.826 148.293 226.009 146.427C227.466 145.988 239.92 139.899 241.656 140.997C241.955 141.186 238.444 146.448 238.253 146.695C234.865 151.056 232.949 157.479 230.608 162.467C226.066 172.144 221.49 181.894 216.935 191.6C215.474 194.714 212.659 204.633 213.303 204.513C215.963 204.016 227.066 202.542 232.859 200.473C236.858 199.046 246.383 193.9 250.714 193.091C251.114 193.016 233.187 228.565 229.635 236.134C223.419 249.378 188.203 301.944 186.503 305.074C186.205 305.622 185.61 306.717 185.61 306.717C185.61 306.717 201.268 256.823 203.088 247.337C204.04 242.378 207.488 228.802 207.824 227.052C207.963 226.323 209.171 225.042 208.243 224.864C207.379 224.699 201.821 227.114 200.868 227.432C193.99 229.725 188.026 232.986 181.359 235.584C180.554 235.898 173.613 239.272 173.196 239.009C172.614 238.641 174.683 233.872 174.844 233.427C176.489 228.884 178.176 224.381 179.09 219.618C182.324 202.765 187.21 187.032 190.442 170.186C190.869 167.959 192.6 152.154 194.761 152.187ZM199.087 157.304C197.997 162.989 197.118 168.743 196.032 174.403M205.689 155.741C205.273 157.909 203.801 160.262 203.262 162.526C202.426 166.045 202.337 169.694 201.667 173.185M211.509 154.736C209.101 158.327 208.704 163.492 207.904 167.661M217.243 153.006C215.924 152.172 214.45 162.87 214.182 164.268M222.715 152.641C219.739 153.197 220.612 159.197 220.677 160.916" fill="#ef9f46" fill-rule="nonzero" opacity="1" stroke="#4b4b4b" stroke-linecap="butt" stroke-linejoin="round" stroke-width="2.00401" vectornator:layerName="Кривая 6"/>
</g>
</svg>
