<?xml version="1.0" encoding="UTF-8" standalone="no"?>
<!DOCTYPE svg PUBLIC "-//W3C//DTD SVG 1.1//EN" "http://www.w3.org/Graphics/SVG/1.1/DTD/svg11.dtd">
<svg width="100%" height="100%" viewBox="0 0 200 200" version="1.1" xmlns="http://www.w3.org/2000/svg" xmlns:xlink="http://www.w3.org/1999/xlink" xml:space="preserve" xmlns:serif="http://www.serif.com/" style="fill-rule:evenodd;clip-rule:evenodd;stroke-linecap:round;stroke-linejoin:round;stroke-miterlimit:1.5;">
    <rect id="Artboard1" x="0" y="0" width="200" height="200" style="fill:none;"/>
    <g id="Artboard11" serif:id="Artboard1">
        <g transform="matrix(1.62052,0.01795,-0.0184849,1.66881,-29.5297,-14.4969)">
            <g id="part">
                <g>
                    <g transform="matrix(0.105826,-0.698446,0.698446,0.105826,-3.12381,128.688)">
                        <path d="M73.977,24.175C79.338,54.428 88.239,81.679 100.436,106.138C78.506,103.819 61.127,79.163 55.891,65.409C50.699,51.769 73.977,24.175 73.977,24.175Z" style="fill:url(#_Radial1);stroke:#575757;stroke-width:0.36px;"/>
                    </g>
                    <g transform="matrix(0.623661,0.283896,-0.207539,0.455921,41.4098,38.4382)">
                        <path d="M71.071,21.929C86.188,47.273 89.162,60.86 84.119,76.815C83.621,78.389 42.765,101.566 42.765,101.566C44.83,100.647 48.387,95.13 49.119,84.868C51.427,52.516 69.715,26.511 71.071,21.929Z" style="fill:url(#_Linear2);stroke:#575757;stroke-width:0.42px;"/>
                    </g>
                    <g transform="matrix(0.0794882,-0.701931,0.701931,0.0794882,-1.30216,130.675)">
                        <path d="M65.876,105.919C70.214,108.957 73.252,108.448 77.185,108.379" style="fill:none;stroke:#575757;stroke-width:0.36px;"/>
                        <path d="M69.697,104.216C75.941,106.265 77.92,105.154 80.521,104.826" style="fill:none;stroke:#575757;stroke-width:0.36px;"/>
                        <path d="M73.01,101.881C77.977,102.23 77.93,102.55 82.903,101.928" style="fill:none;stroke:#575757;stroke-width:0.36px;"/>
                        <path d="M60.986,66.519C59.546,57.818 62.013,52.957 66.942,42.402" style="fill:none;stroke:#575757;stroke-width:0.36px;"/>
                        <path d="M65.538,70.431C64.762,65.556 63.451,62.709 66.749,53.154" style="fill:none;stroke:#575757;stroke-width:0.36px;"/>
                        <path d="M68.501,69.776C67.38,65.438 67.888,64.443 68.12,61.904" style="fill:none;stroke:#575757;stroke-width:0.36px;"/>
                        <path d="M71.961,72.673C71.855,71.017 71.749,69.361 71.642,67.705" style="fill:none;stroke:#575757;stroke-width:0.36px;"/>
                    </g>
                </g>
            </g>
        </g>
        <g transform="matrix(-1.62052,-0.01795,0.0184849,-1.66881,229.53,214.497)">
            <g id="part1" serif:id="part">
                <g>
                    <g transform="matrix(0.105826,-0.698446,0.698446,0.105826,-3.12381,128.688)">
                        <path d="M73.977,24.175C79.338,54.428 88.239,81.679 100.436,106.138C78.506,103.819 61.127,79.163 55.891,65.409C50.699,51.769 73.977,24.175 73.977,24.175Z" style="fill:url(#_Radial3);stroke:#575757;stroke-width:0.36px;"/>
                    </g>
                    <g transform="matrix(0.623661,0.283896,-0.207539,0.455921,41.4098,38.4382)">
                        <path d="M71.071,21.929C86.188,47.273 89.162,60.86 84.119,76.815C83.621,78.389 42.765,101.566 42.765,101.566C44.83,100.647 48.387,95.13 49.119,84.868C51.427,52.516 69.715,26.511 71.071,21.929Z" style="fill:url(#_Linear4);stroke:#575757;stroke-width:0.42px;"/>
                    </g>
                    <g transform="matrix(0.0794882,-0.701931,0.701931,0.0794882,-1.30216,130.675)">
                        <path d="M65.876,105.919C70.214,108.957 73.252,108.448 77.185,108.379" style="fill:none;stroke:#575757;stroke-width:0.36px;"/>
                        <path d="M69.697,104.216C75.941,106.265 77.92,105.154 80.521,104.826" style="fill:none;stroke:#575757;stroke-width:0.36px;"/>
                        <path d="M73.01,101.881C77.977,102.23 77.93,102.55 82.903,101.928" style="fill:none;stroke:#575757;stroke-width:0.36px;"/>
                        <path d="M60.986,66.519C59.546,57.818 62.013,52.957 66.942,42.402" style="fill:none;stroke:#575757;stroke-width:0.36px;"/>
                        <path d="M65.538,70.431C64.762,65.556 63.451,62.709 66.749,53.154" style="fill:none;stroke:#575757;stroke-width:0.36px;"/>
                        <path d="M68.501,69.776C67.38,65.438 67.888,64.443 68.12,61.904" style="fill:none;stroke:#575757;stroke-width:0.36px;"/>
                        <path d="M71.961,72.673C71.855,71.017 71.749,69.361 71.642,67.705" style="fill:none;stroke:#575757;stroke-width:0.36px;"/>
                    </g>
                </g>
            </g>
        </g>
        <g transform="matrix(-0.01795,1.62052,-1.66881,-0.0184849,214.497,-29.5297)">
            <g id="part2" serif:id="part">
                <g>
                    <g transform="matrix(0.105826,-0.698446,0.698446,0.105826,-3.12381,128.688)">
                        <path d="M73.977,24.175C79.338,54.428 88.239,81.679 100.436,106.138C78.506,103.819 61.127,79.163 55.891,65.409C50.699,51.769 73.977,24.175 73.977,24.175Z" style="fill:url(#_Radial5);stroke:#575757;stroke-width:0.36px;"/>
                    </g>
                    <g transform="matrix(0.623661,0.283896,-0.207539,0.455921,41.4098,38.4382)">
                        <path d="M71.071,21.929C86.188,47.273 89.162,60.86 84.119,76.815C83.621,78.389 42.765,101.566 42.765,101.566C44.83,100.647 48.387,95.13 49.119,84.868C51.427,52.516 69.715,26.511 71.071,21.929Z" style="fill:url(#_Linear6);stroke:#575757;stroke-width:0.42px;"/>
                    </g>
                    <g transform="matrix(0.0794882,-0.701931,0.701931,0.0794882,-1.30216,130.675)">
                        <path d="M65.876,105.919C70.214,108.957 73.252,108.448 77.185,108.379" style="fill:none;stroke:#575757;stroke-width:0.36px;"/>
                        <path d="M69.697,104.216C75.941,106.265 77.92,105.154 80.521,104.826" style="fill:none;stroke:#575757;stroke-width:0.36px;"/>
                        <path d="M73.01,101.881C77.977,102.23 77.93,102.55 82.903,101.928" style="fill:none;stroke:#575757;stroke-width:0.36px;"/>
                        <path d="M60.986,66.519C59.546,57.818 62.013,52.957 66.942,42.402" style="fill:none;stroke:#575757;stroke-width:0.36px;"/>
                        <path d="M65.538,70.431C64.762,65.556 63.451,62.709 66.749,53.154" style="fill:none;stroke:#575757;stroke-width:0.36px;"/>
                        <path d="M68.501,69.776C67.38,65.438 67.888,64.443 68.12,61.904" style="fill:none;stroke:#575757;stroke-width:0.36px;"/>
                        <path d="M71.961,72.673C71.855,71.017 71.749,69.361 71.642,67.705" style="fill:none;stroke:#575757;stroke-width:0.36px;"/>
                    </g>
                </g>
            </g>
        </g>
        <g transform="matrix(0.01795,-1.62052,1.66881,0.0184849,-14.4969,229.53)">
            <g id="part3" serif:id="part">
                <g>
                    <g transform="matrix(0.105826,-0.698446,0.698446,0.105826,-3.12381,128.688)">
                        <path d="M73.977,24.175C79.338,54.428 88.239,81.679 100.436,106.138C78.506,103.819 61.127,79.163 55.891,65.409C50.699,51.769 73.977,24.175 73.977,24.175Z" style="fill:url(#_Radial7);stroke:#575757;stroke-width:0.36px;"/>
                    </g>
                    <g transform="matrix(0.623661,0.283896,-0.207539,0.455921,41.4098,38.4382)">
                        <path d="M71.071,21.929C86.188,47.273 89.162,60.86 84.119,76.815C83.621,78.389 42.765,101.566 42.765,101.566C44.83,100.647 48.387,95.13 49.119,84.868C51.427,52.516 69.715,26.511 71.071,21.929Z" style="fill:url(#_Linear8);stroke:#575757;stroke-width:0.42px;"/>
                    </g>
                    <g transform="matrix(0.0794882,-0.701931,0.701931,0.0794882,-1.30216,130.675)">
                        <path d="M65.876,105.919C70.214,108.957 73.252,108.448 77.185,108.379" style="fill:none;stroke:#575757;stroke-width:0.36px;"/>
                        <path d="M69.697,104.216C75.941,106.265 77.92,105.154 80.521,104.826" style="fill:none;stroke:#575757;stroke-width:0.36px;"/>
                        <path d="M73.01,101.881C77.977,102.23 77.93,102.55 82.903,101.928" style="fill:none;stroke:#575757;stroke-width:0.36px;"/>
                        <path d="M60.986,66.519C59.546,57.818 62.013,52.957 66.942,42.402" style="fill:none;stroke:#575757;stroke-width:0.36px;"/>
                        <path d="M65.538,70.431C64.762,65.556 63.451,62.709 66.749,53.154" style="fill:none;stroke:#575757;stroke-width:0.36px;"/>
                        <path d="M68.501,69.776C67.38,65.438 67.888,64.443 68.12,61.904" style="fill:none;stroke:#575757;stroke-width:0.36px;"/>
                        <path d="M71.961,72.673C71.855,71.017 71.749,69.361 71.642,67.705" style="fill:none;stroke:#575757;stroke-width:0.36px;"/>
                    </g>
                </g>
            </g>
        </g>
        <g id="center" transform="matrix(1,0,0,1,-1.33916,-3.92043)">
            <g transform="matrix(1,0,0,1,-3.19299,81.3337)">
                <circle cx="104.532" cy="22.587" r="4.532" style="fill:url(#_Radial9);stroke:#ff8200;stroke-width:0.42px;"/>
            </g>
            <path d="M97.629,105.906C97.363,105.511 96.725,104.351 97.231,102.696" style="fill:none;stroke:#f5e9e9;stroke-width:0.42px;"/>
        </g>
        <g id="wind" transform="matrix(0.934316,0.136034,-0.136034,0.934316,22.5541,-3.43324)">
            <path d="M13.59,91.071C15.054,71.874 15.181,62.182 30.733,41.125" style="fill:none;stroke:#f5e9e9;stroke-width:0.44px;"/>
            <g transform="matrix(-0.00798319,0.999968,-0.999968,-0.00798319,194.17,0.0182284)">
                <path d="M13.59,91.071C15.054,71.874 15.181,62.182 30.733,41.125" style="fill:none;stroke:#f5e9e9;stroke-width:0.44px;"/>
            </g>
            <g transform="matrix(-0.999873,-0.0159659,0.0159659,-0.999873,192.601,194.181)">
                <path d="M13.59,91.071C15.054,71.874 15.181,62.182 30.733,41.125" style="fill:none;stroke:#f5e9e9;stroke-width:0.44px;"/>
            </g>
            <g transform="matrix(0.0239475,-0.999713,0.999713,0.0239475,-1.54328,191.063)">
                <path d="M13.59,91.071C15.054,71.874 15.181,62.182 30.733,41.125" style="fill:none;stroke:#f5e9e9;stroke-width:0.44px;"/>
            </g>
            <path d="M9.436,62.654C16.668,44.642 20.784,37.366 40.108,22.232" style="fill:none;stroke:#f5e9e9;stroke-width:0.44px;"/>
            <g transform="matrix(-0.00798319,0.999968,-0.999968,-0.00798319,194.17,0.0182284)">
                <path d="M9.436,62.654C16.668,44.642 20.784,37.366 40.108,22.232" style="fill:none;stroke:#f5e9e9;stroke-width:0.44px;"/>
            </g>
            <g transform="matrix(-0.999873,-0.0159659,0.0159659,-0.999873,192.601,194.181)">
                <path d="M9.436,62.654C16.668,44.642 20.784,37.366 40.108,22.232" style="fill:none;stroke:#f5e9e9;stroke-width:0.44px;"/>
            </g>
            <g transform="matrix(0.0239475,-0.999713,0.999713,0.0239475,-1.54328,191.063)">
                <path d="M9.436,62.654C16.668,44.642 20.784,37.366 40.108,22.232" style="fill:none;stroke:#f5e9e9;stroke-width:0.44px;"/>
            </g>
            <path d="M15.315,30.238C25.475,20.145 30.84,14.666 51.919,6.861" style="fill:none;stroke:#f5e9e9;stroke-width:0.44px;"/>
            <g transform="matrix(-0.00798319,0.999968,-0.999968,-0.00798319,194.17,0.0182284)">
                <path d="M15.315,30.238C25.475,20.145 30.84,14.666 51.919,6.861" style="fill:none;stroke:#f5e9e9;stroke-width:0.44px;"/>
            </g>
            <g transform="matrix(-0.999873,-0.0159659,0.0159659,-0.999873,192.601,194.181)">
                <path d="M15.315,30.238C25.475,20.145 30.84,14.666 51.919,6.861" style="fill:none;stroke:#f5e9e9;stroke-width:0.44px;"/>
            </g>
            <g transform="matrix(0.0239475,-0.999713,0.999713,0.0239475,-1.54328,191.063)">
                <path d="M15.315,30.238C25.475,20.145 30.84,14.666 51.919,6.861" style="fill:none;stroke:#f5e9e9;stroke-width:0.44px;"/>
            </g>
        </g>
    </g>
    <defs>
        <radialGradient id="_Radial1" cx="0" cy="0" r="1" gradientUnits="userSpaceOnUse" gradientTransform="matrix(-3.14081,103.399,-103.399,-3.14081,71.6422,42.4025)"><stop offset="0" style="stop-color:#fff;stop-opacity:1"/><stop offset="0.39" style="stop-color:#dcdbdb;stop-opacity:1"/><stop offset="1" style="stop-color:#0f0f0f;stop-opacity:1"/></radialGradient>
        <linearGradient id="_Linear2" x1="0" y1="0" x2="1" y2="0.00155077" gradientUnits="userSpaceOnUse" gradientTransform="matrix(-11.4924,-37.0249,27.0667,-15.7207,74.3318,84.0646)"><stop offset="0" style="stop-color:#03b2ff;stop-opacity:1"/><stop offset="0.09" style="stop-color:#bbeaff;stop-opacity:1"/><stop offset="0.32" style="stop-color:#fff;stop-opacity:1"/><stop offset="1" style="stop-color:#cc63fb;stop-opacity:0.97"/></linearGradient>
        <radialGradient id="_Radial3" cx="0" cy="0" r="1" gradientUnits="userSpaceOnUse" gradientTransform="matrix(-3.14081,103.399,-103.399,-3.14081,71.6422,42.4025)"><stop offset="0" style="stop-color:#fff;stop-opacity:1"/><stop offset="0.39" style="stop-color:#dcdbdb;stop-opacity:1"/><stop offset="1" style="stop-color:#0f0f0f;stop-opacity:1"/></radialGradient>
        <linearGradient id="_Linear4" x1="0" y1="0" x2="1" y2="0.00155077" gradientUnits="userSpaceOnUse" gradientTransform="matrix(-11.4924,-37.0249,27.0667,-15.7207,74.3318,84.0646)"><stop offset="0" style="stop-color:#03b2ff;stop-opacity:1"/><stop offset="0.09" style="stop-color:#bbeaff;stop-opacity:1"/><stop offset="0.32" style="stop-color:#fff;stop-opacity:1"/><stop offset="1" style="stop-color:#cc63fb;stop-opacity:0.97"/></linearGradient>
        <radialGradient id="_Radial5" cx="0" cy="0" r="1" gradientUnits="userSpaceOnUse" gradientTransform="matrix(-3.14081,103.399,-103.399,-3.14081,71.6422,42.4025)"><stop offset="0" style="stop-color:#fff;stop-opacity:1"/><stop offset="0.39" style="stop-color:#dcdbdb;stop-opacity:1"/><stop offset="1" style="stop-color:#0f0f0f;stop-opacity:1"/></radialGradient>
        <linearGradient id="_Linear6" x1="0" y1="0" x2="1" y2="0.00155077" gradientUnits="userSpaceOnUse" gradientTransform="matrix(-11.4924,-37.0249,27.0667,-15.7207,74.3318,84.0646)"><stop offset="0" style="stop-color:#03b2ff;stop-opacity:1"/><stop offset="0.09" style="stop-color:#bbeaff;stop-opacity:1"/><stop offset="0.32" style="stop-color:#fff;stop-opacity:1"/><stop offset="1" style="stop-color:#cc63fb;stop-opacity:0.97"/></linearGradient>
        <radialGradient id="_Radial7" cx="0" cy="0" r="1" gradientUnits="userSpaceOnUse" gradientTransform="matrix(-3.14081,103.399,-103.399,-3.14081,71.6422,42.4025)"><stop offset="0" style="stop-color:#fff;stop-opacity:1"/><stop offset="0.39" style="stop-color:#dcdbdb;stop-opacity:1"/><stop offset="1" style="stop-color:#0f0f0f;stop-opacity:1"/></radialGradient>
        <linearGradient id="_Linear8" x1="0" y1="0" x2="1" y2="0.00155077" gradientUnits="userSpaceOnUse" gradientTransform="matrix(-11.4924,-37.0249,27.0667,-15.7207,74.3318,84.0646)"><stop offset="0" style="stop-color:#03b2ff;stop-opacity:1"/><stop offset="0.09" style="stop-color:#bbeaff;stop-opacity:1"/><stop offset="0.32" style="stop-color:#fff;stop-opacity:1"/><stop offset="1" style="stop-color:#cc63fb;stop-opacity:0.97"/></linearGradient>
        <radialGradient id="_Radial9" cx="0" cy="0" r="1" gradientUnits="userSpaceOnUse" gradientTransform="matrix(4.53215,-6.57213,6.57213,4.53215,104.532,22.5867)"><stop offset="0" style="stop-color:#fff400;stop-opacity:1"/><stop offset="1" style="stop-color:#f90fc3;stop-opacity:1"/></radialGradient>
    </defs>
</svg>
