<?xml version="1.0" encoding="UTF-8" standalone="no"?>
<!DOCTYPE svg PUBLIC "-//W3C//DTD SVG 1.1//EN" "http://www.w3.org/Graphics/SVG/1.1/DTD/svg11.dtd">
<svg width="100%" height="100%" viewBox="0 0 1667 1667" version="1.1" xmlns="http://www.w3.org/2000/svg" xmlns:xlink="http://www.w3.org/1999/xlink" xml:space="preserve" xmlns:serif="http://www.serif.com/" style="fill-rule:evenodd;clip-rule:evenodd;stroke-linejoin:round;stroke-miterlimit:2;">
    <g transform="matrix(4.16667,0,0,4.16667,0,0)">
        <g id="Слой-1">
            <g id="burger">
                <g transform="matrix(0.60809,0,0,0.567352,83.2293,113.809)">
                    <path d="M346.381,200C354.439,200 354.979,233.526 346.381,243.799C289.526,311.723 109.158,304.905 53.128,243.799C46.55,236.625 45.07,200 53.128,200C146.785,254.527 244.038,259.089 346.381,200Z" style="fill:url(#_Linear1);"/>
                    <path d="M346.395,199.005L346.395,198.992C353.49,199.35 354.285,216.548 353.118,226.471C351.46,240.589 347.185,244.491 344.652,247.247C286.535,310.478 122.183,305 60.438,252.158C56.956,249.178 52.62,245.024 51.46,243.158C45.8,234.063 44.368,202.82 51.579,199.367C52.389,198.979 53.19,198.903 53.572,199.12C74.409,210.928 129.442,242.415 202.213,241.61C264.381,240.922 314.643,217.12 345.94,199.124C346.152,199.002 346.162,199.066 346.395,199.005ZM346.564,201.023C299.504,227.831 215.966,265.225 110.366,227.877C80.592,217.347 57.696,203.804 53.025,201.007C52.3,201.104 50.166,201.582 49.044,209.638C47.546,220.396 49.617,238.556 53.8,243.102C109.638,303.789 288.928,310.651 345.679,243.13C353.718,233.564 353.167,202.982 346.947,201.092C346.817,201.052 346.692,201.035 346.564,201.023Z" style="fill:#303030;"/>
                </g>
                <g transform="matrix(0.887813,0,0,0.849561,38.9082,26.1641)">
                    <g transform="matrix(1.00865,-0.083874,0.0413964,0.545133,48.7879,165.865)">
                        <path d="M114.648,168.91C150.96,168.91 179.371,174.375 210.759,147.414C216.186,142.752 232.341,152.109 232.745,160.209C233.368,172.685 234.83,180.399 231.596,184.574C223.648,194.837 205.012,186.081 204.676,191.348C203.786,205.329 191.526,242.918 167.481,221.031C153.416,208.227 151.365,223.218 146.224,226.409C133.75,234.148 130.335,204.592 122.137,213.569C88.168,250.767 89.293,196.467 78.21,207.148C62.442,222.345 45.48,201.582 46.307,185.52C47.654,159.374 27.17,166.844 27.871,157.286C29.098,140.553 29.932,133.96 44.039,124.441C62.922,111.7 88.778,168.91 114.648,168.91Z" style="fill-opacity:0.35;"/>
                    </g>
                    <g transform="matrix(1.1538,-0.0959433,0.0433962,0.571468,33.1587,159.131)">
                        <path d="M114.648,168.91C150.96,168.91 179.371,174.375 210.759,147.414C216.186,142.752 220.337,159.018 223.702,164.919C250.449,211.817 206.061,182.772 204.676,191.348C202.443,205.178 191.526,242.918 167.481,221.031C153.416,208.227 151.365,223.218 146.224,226.409C133.75,234.148 130.335,204.592 122.137,213.569C88.168,250.767 89.293,196.467 78.21,207.148C62.442,222.345 45.48,201.582 46.307,185.52C47.654,159.374 26.965,170.81 24.981,161.779C21.649,146.614 29.932,133.96 44.039,124.441C62.922,111.7 88.778,168.91 114.648,168.91Z" style="fill:rgb(22,123,54);"/>
                        <path d="M114.648,167.883C154.743,168.138 179.881,172.5 210.579,146.46C216.364,141.553 220.675,158.133 223.863,163.86C226.546,168.68 238.608,189.063 229.242,192.947C222.817,195.612 206.845,188.194 205.183,191.54C205.155,191.597 202.608,208.439 195.094,219.619C182.52,238.329 168.483,222.807 165.41,220.37C153.196,210.684 151.561,224.379 146.062,227.573C133.738,234.731 130.006,206.364 122.542,214.288C115.061,222.231 102.824,234.54 92.944,223.236C86.489,215.85 84.118,202.731 78.535,207.966C78.445,208.051 68.591,219 56.739,209.738C50.096,204.547 45.437,194.673 45.814,185.616C46.202,176.309 44.536,170.311 36.339,168.112C31.016,166.684 25.678,167.276 24.54,162.214C19.958,141.833 36.465,129.039 40.061,126.237C45.531,121.976 50.809,117.509 63.749,128.153C72.722,135.533 82.581,147.821 92.574,156.694C103.961,166.804 110.419,167.774 114.648,167.883ZM114.648,169.936C100.273,169.567 88.005,154.68 73.142,139.3C62.242,128.021 52.447,119.829 44.187,125.42C37.512,129.937 21.393,142.209 25.35,161.011C25.889,163.573 27.61,164.37 32.044,165.172C38.535,166.346 47.582,167.321 46.807,185.314C46.802,185.412 46.039,192.262 50.673,200.271C55.563,208.725 66.384,217.204 78.011,206.212C88.61,196.191 88.247,239.712 112.981,221.028C118.927,216.537 121.824,212.187 123.684,211.224C131.128,207.367 134.62,232.443 146.086,225.424C151.075,222.37 153.239,207.287 167.343,219.79C169.866,222.027 186.646,238.923 198.952,209.534C202.913,200.075 204.19,190.97 204.334,190.501C205.773,185.83 216.82,191.306 225.112,191.489C232.293,191.648 232.214,187.364 231.392,183.663C229.745,176.248 223.704,166.562 222.387,163.731C219.167,156.802 215.518,144.482 210.939,148.368C180.054,174.576 154.697,170.191 114.648,169.936Z" style="fill:#303030;"/>
                    </g>
                    <g transform="matrix(0.657533,0,0,0.687707,53.0353,66.0538)">
                        <path d="M360.981,214.6C361.461,226.969 355.676,234.152 346.381,243.799C288.593,303.775 108.29,297.505 53.128,243.799C46.154,237.009 37.546,229.183 38.528,214.6C38.991,207.733 45.07,200 53.128,200C150.319,230.216 247.921,235.224 346.381,200C354.439,200 360.714,207.722 360.981,214.6Z" style="fill:rgb(117,47,0);fill-opacity:0.98;"/>
                        <path d="M361.948,214.562L361.955,214.562C362.116,224.899 359.849,231.646 346.043,245.535C287.429,304.497 108.296,298.387 52.779,244.812C45.742,238.021 36.488,229.615 37.56,214.531C38.117,206.686 45.024,198.966 53.121,199.03C54.751,199.043 103.975,216.666 167.32,222.009C254.483,229.361 316.578,209.425 346.056,199.089C347.117,198.717 355.371,199.371 359.947,207.701C361.915,211.282 361.921,214.22 361.948,214.562ZM360.014,214.635C360.012,214.441 359.985,210.298 356.563,206.142C352.082,200.699 346.59,200.972 346.555,200.968C345.928,200.899 312.596,214.442 264.785,221.302C194.88,231.333 125.711,223.003 57.403,202.326C54.406,201.419 53.07,200.957 52.954,200.972C52.91,200.977 47.303,200.683 42.821,206.408C39.415,210.758 39.144,215.112 39.555,219.67C40.495,230.096 47.145,236.824 54.776,244.03C109.908,296.096 288.074,302.724 345.679,243.122C357.181,231.221 360.173,225.357 360.006,214.635L360.014,214.635Z" style="fill:#303030;"/>
                    </g>
                    <g transform="matrix(0.210026,0.057938,-0.107998,0.428697,98.8574,96.4232)">
                        <path d="M363.333,236.759C363.813,249.129 357.875,236.918 346.381,243.799C282.79,281.866 103.106,270.785 53.128,243.799C44.564,239.174 37.546,229.183 38.528,214.6C38.991,207.733 30.471,214.6 38.528,214.6C143.317,243.855 363.066,229.882 363.333,236.759Z" style="fill:rgb(252,43,59);fill-opacity:0.98;"/>
                        <path d="M365.424,236.741C365.5,240.102 366.118,245.049 358.491,243.342C351.445,241.766 350.941,242.986 344.923,246.321C278.339,283.227 97.636,271.735 49.855,244.457C43.116,240.609 34.587,231.547 34.978,216.023C34.079,215.8 33.151,215.446 32.464,214.886C28.801,211.895 36.256,207.867 40.484,210.67C41.437,211.302 41.81,212.222 41.944,213.451C44.324,214.085 48.35,215.247 58.083,217.314C159.737,238.902 341.201,229.1 363.122,233.587C368.19,234.625 367.952,236.56 368.015,236.71C367.168,236.719 366.295,236.73 365.424,236.741ZM41.974,217.583C41.941,220.931 42.154,225.399 44.796,231.108C48.998,240.186 56.547,244.009 68.929,248.46C129.159,270.111 283.751,277.634 343.233,243.93C345.221,242.804 350.2,239.126 358.397,240.92C359.603,241.184 359.693,241.228 360.731,241.433C361.306,240.391 361.276,238.019 361.251,237.111C360.697,237.363 360.58,237.547 359.855,238.081C337.283,233.853 142.824,243.78 41.974,217.583ZM361.065,236.801C356.405,236.872 353.58,236.937 358.659,236.886C359.463,236.877 360.263,236.832 361.065,236.801Z" style="fill:#303030;"/>
                    </g>
                    <g transform="matrix(0.248796,-0.0778446,0.132772,0.464673,161.554,115.314)">
                        <path d="M57.643,237.805C106.282,287.207 354.221,277.311 342.348,232.595C247.688,245.059 152.758,245.546 57.643,237.805Z" style="fill:rgb(252,43,59);fill-opacity:0.98;"/>
                        <path d="M56.111,238.277L54.213,238.862C53.717,237.764 53.234,237.702 54.244,236.715C54.939,236.036 56.463,235.505 58.204,235.636C100.473,238.834 209.487,248.062 341.683,231.004C343.132,230.817 344.924,231.292 345.238,232.376C351.144,252.705 303.467,269.143 225.95,271.737C185.745,273.083 141.997,269.839 109.97,262.414C76.967,254.763 64.235,245.658 58,240.044C57.686,240.02 57.38,239.997 57.082,239.975L57.243,239.351C56.838,238.974 56.462,238.616 56.111,238.277ZM62.459,240.382C70.396,246.871 94.621,261.699 158.611,267.393C216.048,272.503 277.456,267.514 310.486,257.276C338.486,248.597 340.214,239.508 339.756,234.614C324.914,236.528 285.614,241.587 231.531,243.79C153.699,246.961 89.262,242.403 62.459,240.382Z" style="fill:#303030;"/>
                    </g>
                    <g transform="matrix(-1.52842,0.295614,-0.192568,-1.09025,590.252,373.658)">
                        <path d="M208.159,202.412L231.404,165.258C231.992,164.319 232.852,163.778 233.757,163.778C234.662,163.778 235.522,164.319 236.11,165.258L270.534,220.279C263.414,215.397 255.804,211.451 247.907,208.51C247.793,205.673 246.098,203.14 243.743,202.546C241.565,201.997 239.479,203.273 238.507,205.521C228.581,202.892 218.341,201.814 208.159,202.412ZM237.988,191.968C240.187,192.523 242.312,190.475 242.729,187.398C243.145,184.32 241.698,181.372 239.498,180.817C237.299,180.262 235.175,182.31 234.758,185.387C234.341,188.465 235.788,191.413 237.988,191.968ZM217.518,201.965C219.802,202.541 222.011,200.395 222.447,197.175C222.883,193.956 221.383,190.874 219.099,190.298C216.815,189.722 214.606,191.868 214.17,195.088C213.734,198.308 215.234,201.389 217.518,201.965Z" style="fill:rgb(255,123,0);fill-opacity:0.98;"/>
                        <path d="M207.857,202.007L207.852,202C230.982,165.045 230.803,164.676 232.13,163.721C233.581,162.676 235.359,163.16 236.413,164.845C270.801,219.81 270.876,219.765 270.935,220.144C271.009,220.613 270.682,221.038 270.36,220.826C268.692,219.728 260.638,213.984 248.543,209.372C247.822,209.097 247.798,209.171 247.636,208.963C247.344,208.589 247.67,207.717 246.876,205.987C245.33,202.618 240.912,201.518 238.851,205.849C238.83,205.892 238.695,206.177 238.434,206.113C234.399,205.119 223.529,202.149 208.176,203.011C207.828,203.031 207.677,202.467 207.783,202.175C207.804,202.116 207.836,202.066 207.857,202.007ZM209.129,201.763C210.677,201.69 212.957,201.609 215.832,201.674C215.237,201.152 214.599,200.333 214.155,199.058C213.563,197.361 213.552,195.599 213.941,194.061C212.464,196.428 210.864,198.99 209.129,201.763ZM220.448,201.893C225.264,202.24 231.125,203.027 237.645,204.686C237.801,204.726 237.973,204.698 238.113,204.807C238.17,204.851 238.212,204.924 238.251,205.003C240.442,200.708 244.087,201.558 245.753,202.945C248.136,204.928 248.276,207.885 248.309,208.313C248.455,208.262 248.601,208.193 248.75,208.206C248.75,208.206 250.482,208.861 252.432,209.691C258.468,212.262 264.256,215.407 269.7,219.05C269.717,219.06 269.733,219.07 269.751,219.079C235.93,165.859 236.135,165.305 234.689,164.611C234.04,164.3 233.409,164.307 232.758,164.646C231.6,165.25 231.601,165.694 216.29,190.291C217.325,189.546 218.571,189.335 219.848,189.949C223.628,191.769 224.033,199.197 220.448,201.893ZM238.4,205.267C238.414,205.283 238.428,205.298 238.444,205.31L238.4,205.267ZM248.236,208.336L248.028,208.362C248.098,208.368 248.167,208.356 248.236,208.336ZM270.448,220.176C270.454,220.187 270.462,220.198 270.469,220.209C270.462,220.198 270.455,220.187 270.448,220.176ZM217.588,201.373C217.633,201.381 219.343,201.904 220.808,200.089C223.452,196.812 221.775,190.688 218.259,190.81C214.802,190.931 213.179,197.049 215.823,200.207C216.554,201.082 217.436,201.323 217.589,201.365L217.588,201.373ZM237.919,192.559C234.696,191.57 234.036,187.629 234.355,185.27C235.101,179.75 240.302,178.24 242.49,182.933C244.455,187.148 242.211,193.416 237.918,192.569L237.919,192.559ZM238.057,191.375C238.096,191.382 239.742,191.885 241.145,190.159C243.675,187.047 242.059,181.222 238.69,181.332C235.621,181.432 233.864,186.612 236.108,189.929C236.862,191.042 237.887,191.321 238.058,191.367L238.057,191.375Z" style="fill:#303030;"/>
                    </g>
                    <g transform="matrix(0.37863,0.616616,0.905788,-0.609048,-171.934,163.048)">
                        <path d="M219.037,185.025C224.484,186.232 229.876,187.625 235.199,189.191C234.753,188.078 234.574,186.745 234.758,185.387C235.175,182.31 237.299,180.262 239.498,180.817C241.698,181.372 243.145,184.32 242.729,187.398C242.524,188.908 241.908,190.17 241.074,190.999C245.911,192.552 250.687,194.249 255.393,196.079L236.11,165.258C235.522,164.319 234.662,163.778 233.757,163.778C232.852,163.778 231.992,164.319 231.404,165.258L219.037,185.025Z" style="fill:rgb(255,123,0);fill-opacity:0.98;"/>
                        <path d="M218.746,185.584L218.736,185.602C227.656,187.639 228.979,188.092 234.818,189.746C235.501,189.94 236.28,189.566 236.106,189.046C236.003,188.739 235.256,187.064 235.839,184.649C236.442,182.148 238.819,179.726 240.878,182.765C241.828,184.168 242.786,187.908 240.292,190.673C239.959,191.042 240.25,191.403 240.662,191.54C247.895,193.943 247.891,193.945 254.921,196.596C255.696,196.889 256.573,196.371 256.249,195.853C254.687,193.356 236.882,164.892 236.693,164.656C234.95,162.479 231.964,162.785 230.56,165.031C218.271,184.673 217.812,184.7 218.212,185.269C218.333,185.443 218.51,185.485 218.746,185.584ZM220.251,184.652C232.281,165.433 232.069,165.331 232.991,164.665C233.641,164.197 234.077,164.41 234.315,164.534C235.427,165.115 235.125,165.28 255.2,195.933C254.753,195.622 254.538,195.19 254.091,194.879C253.828,194.696 242.682,190.764 242.394,190.752C242.375,190.751 242.356,190.751 242.337,190.751C245.763,186.146 242.481,178.747 237.482,180.318C235.615,180.906 232.922,183.622 233.997,188.322C233.866,188.226 233.728,188.135 233.574,188.055C233.254,187.89 227.997,186.534 227.508,186.407C224.375,185.599 221.621,184.962 220.251,184.652Z" style="fill:#303030;"/>
                    </g>
                    <g transform="matrix(-0.843664,-0.0695831,-0.0538052,0.714357,485.444,59.1629)">
                        <path d="M250.047,228.823C236.002,220.42 222.725,210.295 210.629,198.464L195.117,223.258C194.49,224.259 194.348,225.666 194.752,226.862C195.156,228.058 196.033,228.823 196.998,228.823L250.047,228.823Z" style="fill:rgb(255,123,0);fill-opacity:0.98;"/>
                        <path d="M250.376,227.989L250.377,227.986C229.982,215.635 219.123,205.377 211.096,197.734C210.745,197.4 210.271,197.515 210.032,197.896C208.767,199.917 194.405,222.856 194.25,223.191C192.931,226.048 194.486,229.753 196.99,229.753C249.678,229.754 250.465,230.719 250.779,229.032C250.808,228.88 250.805,228.719 250.77,228.569C250.701,228.271 250.559,228.181 250.376,227.989ZM246.825,227.896C197.317,227.926 196.865,228.806 195.77,227.159C195.214,226.324 195.257,225.435 195.305,225.015C195.463,223.631 195.759,223.767 210.694,199.114C210.938,199.473 211.058,199.943 211.303,200.302C211.587,200.72 216.101,204.784 216.524,205.165C229.252,216.624 240.74,224.132 246.825,227.896Z" style="fill:#303030;"/>
                    </g>
                </g>
                <g>
                    <g transform="matrix(1.00876,0,0,0.949946,7.08617,11.7016)">
                        <path d="M99.277,182.076C99.196,182.008 97.079,173.834 97.502,171.271C109.919,96.103 283.195,94.611 294.607,171.271C294.988,173.832 294.961,180.269 292.905,181.872C221.176,237.802 126.145,209.871 99.277,182.076Z" style="fill:url(#_Radial2);"/>
                        <path d="M98.963,182.495L98.956,182.505C98.757,182.258 98.647,182.122 97.882,178.604C96.489,172.199 96.969,171.14 97.318,169.409C112.248,95.304 283.82,94.613 295.11,171.189C295.463,173.583 295.585,180.432 293.209,182.305C279.1,193.424 264.793,199.842 262.162,201.022C196.179,230.619 122.828,206.48 99.575,183.117C99.37,182.911 99.168,182.702 98.963,182.495ZM99.195,182.193C99.261,182.131 99.329,182.07 99.395,182.009L99.304,182.05L99.195,182.193ZM99.731,181.799C127.045,209.665 221.38,236.943 292.602,181.438C293.834,180.478 294.917,175.882 293.889,170.031C280.77,95.307 110.214,97.281 98.011,171.362C97.7,173.249 98.959,179.068 99.731,181.799ZM99.67,181.737C99.684,181.722 99.613,181.679 99.627,181.694C99.642,181.708 99.656,181.723 99.67,181.737Z" style="fill:#303030;"/>
                    </g>
                    <g transform="matrix(0.566588,0,0,0.567352,126.566,113.809)">
                        <g>
                            <g transform="matrix(1.05004,0.00882151,-0.00723451,0.861136,-2.5159,3.65466)">
                                <path d="M109.291,78.072C114.39,78.072 118.542,82.223 118.542,87.322C118.542,92.421 114.39,96.573 109.291,96.573C104.193,96.573 100.041,92.421 100.041,87.322C100.041,82.223 104.193,78.072 109.291,78.072Z" style="fill:rgb(255,123,0);"/>
                                <path d="M109.292,77.034L109.292,77.006C120.236,77.285 123.065,91.677 113.846,96.527C106.409,100.439 97.255,93.46 99.518,84.684C99.632,84.246 100.268,81.78 102.391,79.8C105.408,76.988 108.636,77.058 109.292,77.034ZM109.291,79.095C109.259,79.097 105.408,78.964 102.758,82.178C97.597,88.435 103.947,97.701 112.025,95.071C118.342,93.015 120.014,84.094 113.521,80.259C112.808,79.838 111.965,79.565 111.825,79.519C110.94,79.232 109.496,79.137 109.292,79.124L109.291,79.095Z" style="fill:#303030;"/>
                            </g>
                            <g transform="matrix(1.05004,0.00882151,-0.00723451,0.861136,-2.5159,3.65466)">
                                <path d="M109.291,78.072C114.39,78.072 118.542,82.223 118.542,87.322C118.542,92.421 114.39,96.573 109.291,96.573C104.193,96.573 100.041,92.421 100.041,87.322C100.041,82.223 104.193,78.072 109.291,78.072Z" style="fill:rgb(255,123,0);"/>
                                <path d="M109.292,77.034L109.292,77.006C120.236,77.285 123.065,91.677 113.846,96.527C106.409,100.439 97.255,93.46 99.518,84.684C99.632,84.246 100.268,81.78 102.391,79.8C105.408,76.988 108.636,77.058 109.292,77.034ZM109.291,79.095C109.259,79.097 105.408,78.964 102.758,82.178C97.597,88.435 103.947,97.701 112.025,95.071C118.342,93.015 120.014,84.094 113.521,80.259C112.808,79.838 111.965,79.565 111.825,79.519C110.94,79.232 109.496,79.137 109.292,79.124L109.291,79.095Z" style="fill:#303030;"/>
                            </g>
                            <g transform="matrix(1.05004,0.00882151,-0.00723451,0.861136,-2.5159,3.65466)">
                                <path d="M155.851,34.859C157.89,34.859 159.565,36.534 159.565,38.573C159.565,40.613 157.89,42.288 155.851,42.288C153.811,42.288 152.136,40.613 152.136,38.573C152.136,36.534 153.811,34.859 155.851,34.859Z" style="fill:rgb(255,123,0);"/>
                                <path d="M155.851,33.821L155.851,33.793C161.842,34.093 161.764,42.495 156.506,43.292C154.074,43.66 151.585,41.876 151.301,39.049C151.124,37.292 152.101,34.001 155.851,33.821ZM155.843,35.897C151.528,36.237 152.578,41.589 156.158,41.22C159.323,40.894 159.822,36.213 155.843,35.925L155.843,35.897Z" style="fill:#303030;"/>
                            </g>
                            <g transform="matrix(1.05004,0.00882151,-0.00723451,0.861136,-2.5159,3.65466)">
                                <path d="M155.851,34.859C157.89,34.859 159.565,36.534 159.565,38.573C159.565,40.613 157.89,42.288 155.851,42.288C153.811,42.288 152.136,40.613 152.136,38.573C152.136,36.534 153.811,34.859 155.851,34.859Z" style="fill:rgb(255,123,0);"/>
                                <path d="M155.851,33.821L155.851,33.793C161.842,34.093 161.764,42.495 156.506,43.292C154.074,43.66 151.585,41.876 151.301,39.049C151.124,37.292 152.101,34.001 155.851,33.821ZM155.843,35.897C151.528,36.237 152.578,41.589 156.158,41.22C159.323,40.894 159.822,36.213 155.843,35.925L155.843,35.897Z" style="fill:#303030;"/>
                            </g>
                            <g transform="matrix(1.05004,0.00882151,-0.00723451,0.861136,-2.5159,3.65466)">
                                <path d="M180.958,87.322C183.498,87.322 185.584,89.408 185.584,91.947C185.584,94.487 183.498,96.573 180.958,96.573C178.419,96.573 176.333,94.487 176.333,91.947C176.333,89.408 178.419,87.322 180.958,87.322Z" style="fill:rgb(255,123,0);"/>
                                <path d="M180.958,86.285L180.958,86.256C188.001,86.61 188.093,96.281 182.016,97.52C176.743,98.595 173.219,91.794 177.161,87.858C178.624,86.397 180.63,86.3 180.958,86.285ZM180.951,88.359C180.433,88.348 179.179,88.533 178.231,89.482C175.195,92.523 179.322,97.182 182.969,94.959C185.676,93.311 185.373,88.712 180.951,88.388L180.951,88.359Z" style="fill:#303030;"/>
                            </g>
                            <g transform="matrix(1.05004,0.00882151,-0.00723451,0.861136,-2.5159,3.65466)">
                                <path d="M180.958,87.322C183.498,87.322 185.584,89.408 185.584,91.947C185.584,94.487 183.498,96.573 180.958,96.573C178.419,96.573 176.333,94.487 176.333,91.947C176.333,89.408 178.419,87.322 180.958,87.322Z" style="fill:rgb(255,123,0);"/>
                                <path d="M180.958,86.285L180.958,86.256C188.001,86.61 188.093,96.281 182.016,97.52C176.743,98.595 173.219,91.794 177.161,87.858C178.624,86.397 180.63,86.3 180.958,86.285ZM180.951,88.359C180.433,88.348 179.179,88.533 178.231,89.482C175.195,92.523 179.322,97.182 182.969,94.959C185.676,93.311 185.373,88.712 180.951,88.388L180.951,88.359Z" style="fill:#303030;"/>
                            </g>
                            <g transform="matrix(1.05004,0.00882151,-0.00723451,0.861136,-2.5159,3.65466)">
                                <path d="M91.738,42.288C93.082,42.288 94.185,43.391 94.185,44.734C94.185,46.077 93.082,47.181 91.738,47.181C90.395,47.181 89.292,46.077 89.292,44.734C89.292,43.391 90.395,42.288 91.738,42.288Z" style="fill:rgb(255,123,0);"/>
                                <path d="M91.738,41.25L91.738,41.222C96.366,41.478 95.868,48.24 91.72,48.232C88.053,48.226 87.13,42.604 90.783,41.397C91.142,41.278 91.661,41.254 91.738,41.25ZM91.739,43.326C89.33,43.635 89.94,46.003 91.649,46.127C93.28,46.246 94.363,43.745 91.739,43.34L91.739,43.326Z" style="fill:#303030;"/>
                            </g>
                            <g transform="matrix(1.05004,0.00882151,-0.00723451,0.861136,-2.5159,3.65466)">
                                <path d="M91.738,42.288C93.082,42.288 94.185,43.391 94.185,44.734C94.185,46.077 93.082,47.181 91.738,47.181C90.395,47.181 89.292,46.077 89.292,44.734C89.292,43.391 90.395,42.288 91.738,42.288Z" style="fill:rgb(255,123,0);"/>
                                <path d="M91.738,41.25L91.738,41.222C96.366,41.478 95.868,48.24 91.72,48.232C88.053,48.226 87.13,42.604 90.783,41.397C91.142,41.278 91.661,41.254 91.738,41.25ZM91.739,43.326C89.33,43.635 89.94,46.003 91.649,46.127C93.28,46.246 94.363,43.745 91.739,43.34L91.739,43.326Z" style="fill:#303030;"/>
                            </g>
                            <g transform="matrix(1.05004,0.00882151,-0.00723451,0.861136,-2.5159,3.65466)">
                                <path d="M201.881,47.181C205.554,47.181 208.571,50.198 208.571,53.871C208.571,57.544 205.554,60.561 201.881,60.561C198.208,60.561 195.191,57.544 195.191,53.871C195.191,50.198 198.208,47.181 201.881,47.181Z" style="fill:rgb(255,123,0);"/>
                                <path d="M201.881,46.143L201.881,46.115C210.489,46.551 211.883,57.321 205.27,60.796C199.201,63.985 192.005,57.491 195.027,50.628C196.497,47.29 199.593,46.227 201.881,46.143ZM201.881,48.218C194.813,48.493 194.084,57.621 200.389,59.322C205.656,60.744 210.214,54.415 206.154,50.061C205.502,49.361 204.726,48.965 204.587,48.893C203.559,48.368 202.103,48.251 201.881,48.233L201.881,48.218Z" style="fill:#303030;"/>
                            </g>
                            <g transform="matrix(1.05004,0.00882151,-0.00723451,0.861136,-2.5159,3.65466)">
                                <path d="M201.881,47.181C205.554,47.181 208.571,50.198 208.571,53.871C208.571,57.544 205.554,60.561 201.881,60.561C198.208,60.561 195.191,57.544 195.191,53.871C195.191,50.198 198.208,47.181 201.881,47.181Z" style="fill:rgb(255,123,0);"/>
                                <path d="M201.881,46.143L201.881,46.115C210.489,46.551 211.883,57.321 205.27,60.796C199.201,63.985 192.005,57.491 195.027,50.628C196.497,47.29 199.593,46.227 201.881,46.143ZM201.881,48.218C194.813,48.493 194.084,57.621 200.389,59.322C205.656,60.744 210.214,54.415 206.154,50.061C205.502,49.361 204.726,48.965 204.587,48.893C203.559,48.368 202.103,48.251 201.881,48.233L201.881,48.218Z" style="fill:#303030;"/>
                            </g>
                            <g transform="matrix(0.809954,0.000849806,0.00157671,0.623266,11.3282,22.0891)">
                                <path d="M71.088,69.296C76.894,69.296 81.631,74.373 81.631,80.621C81.631,86.87 76.894,91.947 71.088,91.947C65.282,91.947 60.545,86.87 60.545,80.621C60.545,74.373 65.282,69.296 71.088,69.296Z" style="fill:rgb(255,123,0);"/>
                                <path d="M71.092,67.862L71.092,67.822C71.852,67.864 76.447,68.118 79.664,71.933C86.554,80.105 81.205,93.839 70.507,93.385C60.89,92.976 55.459,79.699 62.92,71.518C64.437,69.855 66.282,68.991 66.612,68.836C68.47,67.966 70.726,67.877 71.092,67.862ZM71.084,70.729C60.745,71.159 58.397,84.655 66.73,89.372C74.01,93.494 83.179,85.76 79.796,76.885C78.782,74.224 75.988,71.146 71.824,70.798L71.084,70.748L71.084,70.729Z" style="fill:#303030;"/>
                            </g>
                            <g transform="matrix(0.809954,0.000849806,0.00157671,0.623266,11.3282,22.0891)">
                                <path d="M71.088,69.296C76.894,69.296 81.631,74.373 81.631,80.621C81.631,86.87 76.894,91.947 71.088,91.947C65.282,91.947 60.545,86.87 60.545,80.621C60.545,74.373 65.282,69.296 71.088,69.296Z" style="fill:rgb(255,123,0);"/>
                                <path d="M71.092,67.862L71.092,67.822C71.852,67.864 76.447,68.118 79.664,71.933C86.554,80.105 81.205,93.839 70.507,93.385C60.89,92.976 55.459,79.699 62.92,71.518C64.437,69.855 66.282,68.991 66.612,68.836C68.47,67.966 70.726,67.877 71.092,67.862ZM71.084,70.729C60.745,71.159 58.397,84.655 66.73,89.372C74.01,93.494 83.179,85.76 79.796,76.885C78.782,74.224 75.988,71.146 71.824,70.798L71.084,70.748L71.084,70.729Z" style="fill:#303030;"/>
                            </g>
                        </g>
                    </g>
                </g>
            </g>
            <g id="strokes" transform="matrix(0.566588,0,0,0.567352,91.8553,113.809)">
                <path d="M360.561,111.033C360.85,111.554 361.912,111.226 362.202,111.747C362.202,111.748 361.307,113.8 361.167,114.114C359.042,118.883 358.867,118.988 355.321,125.263C354.974,125.877 354.745,125.424 354.068,125.612C354.124,125.182 353.665,124.789 353.721,124.359C353.73,124.29 356.552,119.524 357.696,117.277C358.709,115.287 359.961,112.4 360.561,111.033Z" style="fill:#303030;"/>
                <g transform="matrix(0.423589,-0,-0,0.423017,-162.12,-200.596)">
                    <use xlink:href="#_Image3" x="1189" y="761.946" width="17px" height="31px"/>
                </g>
                <path d="M338.532,120.26C338.477,121.242 338.753,122.224 338.698,123.207C338.666,123.769 338.417,124.298 338.275,124.843C336.511,131.615 335.967,132.901 332.324,139.93C332.026,140.505 331.889,141.198 331.429,141.653C331.121,141.958 330.574,142.244 330.189,142.044C329.805,141.844 329.725,141.232 329.798,140.806C329.868,140.396 333.474,134.526 335.159,129.27C335.896,126.972 336.95,122.782 336.961,122.758C337.389,121.873 338.104,121.145 338.532,120.26Z" style="fill:#303030;"/>
                <path d="M367.332,90.603C367.697,92.053 368.292,93.438 368.658,94.888C368.778,95.367 369.155,100.253 369.19,100.72C370.085,112.337 368.531,115.022 360.285,126.239C359.868,126.807 359.695,126.33 358.998,126.436L358.804,125.152C367.881,112.839 368.43,111.424 367.025,96.649C366.975,96.12 366.845,95.593 366.872,95.062C366.948,93.57 367.256,92.096 367.332,90.603Z" style="fill:#303030;"/>
                <path d="M370.919,107.902C369.538,114.504 369.674,114.597 366.47,120.533C366.135,121.153 365.897,120.703 365.222,120.904L364.853,119.659C367.953,113.967 367.821,113.876 369.167,107.535C369.405,106.418 369.799,107.667 370.919,107.902Z" style="fill:#303030;"/>
                <g transform="matrix(0.423589,-0,-0,0.423017,-162.12,-200.596)">
                    <use xlink:href="#_Image4" x="450.658" y="747.314" width="11px" height="19px"/>
                </g>
                <path d="M28.92,96.57C29.376,97.817 30.042,98.98 30.498,100.226C30.969,101.517 31.503,109.48 35.026,115.844C36.852,119.143 40.196,123.549 43.015,127.341C43.435,127.906 42.928,127.931 42.825,128.626C42.495,128.346 41.869,128.715 41.538,128.435C41.533,128.43 39.426,125.585 38.938,124.92C31.91,115.344 31.087,113.13 28.98,101.89C28.486,99.256 28.795,99.241 28.92,96.57Z" style="fill:#303030;"/>
                <path d="M38.513,107.923C43.852,120.818 44.106,120.706 51.118,132.765C51.472,133.374 50.964,133.342 50.783,134.022L49.527,133.686C42.475,121.508 42.208,121.625 36.859,108.603C36.423,107.543 37.456,108.357 38.513,107.923Z" style="fill:#303030;"/>
                <g transform="matrix(0.423589,-0,-0,0.423017,-162.12,-200.596)">
                    <use xlink:href="#_Image5" x="1104.26" y="813.963" width="24px" height="28px"/>
                </g>
                <path d="M325.633,129.698C325.535,130.612 325.759,131.543 325.66,132.457C325.606,132.959 325.342,133.414 325.182,133.892C323.173,139.861 322.551,140.993 318.999,147.006C318.706,147.502 318.56,148.121 318.12,148.494C317.789,148.773 317.191,148.536 316.86,148.816L317.42,146.074C320.897,140.214 321.474,139.226 323.478,133.32C323.639,132.844 323.701,132.323 323.958,131.892C324.429,131.101 325.163,130.488 325.633,129.698Z" style="fill:#303030;"/>
                <g transform="matrix(0.423589,-0,-0,0.423017,-162.12,-200.596)">
                    <use xlink:href="#_Image6" x="1169.74" y="805.899" width="60px" height="27px"/>
                </g>
                <g transform="matrix(0.423589,-0,-0,0.423017,-162.12,-200.596)">
                    <use xlink:href="#_Image7" x="487.741" y="834.398" width="6px" height="13px"/>
                </g>
                <path d="M54.74,168.517C54.248,168.092 53.596,167.881 53.104,167.456C52.904,167.284 52.844,166.999 52.715,166.77C48.988,160.131 49.367,159.182 49.522,152.451C49.528,152.214 49.416,151.943 49.538,151.739C49.759,151.367 50.257,151.214 50.478,150.842C50.694,151.427 51.142,151.909 51.358,152.495C51.549,153.008 50.675,157.379 51.882,160.947C52.593,163.047 54.655,166.536 54.662,166.573C54.774,167.211 54.628,167.878 54.74,168.517Z" style="fill:#303030;"/>
                <path d="M57.662,169.781C57.333,169.518 56.847,169.506 56.518,169.244C56.516,169.242 56.155,168.217 55.566,166.876C53.577,162.347 52.885,161.365 53.987,152.531C54.074,151.832 54.459,152.168 55.02,151.737C55.158,152.147 55.672,152.358 55.81,152.768C55.968,153.239 54.342,159.054 56.1,163.594C56.253,163.988 58.232,168.474 58.201,168.636C58.121,169.05 57.742,169.367 57.662,169.781Z" style="fill:#303030;"/>
                <path d="M60.146,166.56C59.86,165.635 59.393,164.772 59.107,163.846C59.03,163.6 59.08,163.331 59.067,163.073C58.923,160.072 59.007,159.137 59.653,155.563C59.71,155.246 59.635,154.871 59.827,154.611C60.084,154.263 60.641,154.224 60.898,153.875C60.997,154.565 61.359,155.2 61.458,155.89C61.558,156.59 60.631,157.58 60.866,162.989C60.878,163.244 60.953,163.505 60.902,163.755C60.711,164.704 60.337,165.611 60.146,166.56Z" style="fill:#303030;"/>
                <g transform="matrix(0.423589,-0,-0,0.423017,-162.12,-200.596)">
                    <use xlink:href="#_Image8" x="1127.73" y="846.784" width="6px" height="11px"/>
                </g>
                <path d="M319.29,167.639C318.907,167.183 317.969,167.552 317.586,167.095C317.496,166.987 318.801,164.196 319.341,159.872C319.373,159.611 319.892,154.772 319.913,154.756C320.254,154.489 320.509,153.905 320.939,153.959C321.369,154.012 321.609,154.57 321.737,154.983C321.77,155.091 321.196,159.69 321.145,160.099C320.801,162.857 320.257,164.601 319.29,167.639Z" style="fill:#303030;"/>
                <path d="M320.417,163.876C321.579,160.237 321.774,160.26 321.97,156.445C321.976,156.341 322.018,155.528 322.935,155.575C324.1,155.634 323.843,156.109 323.764,157.269C323.532,160.685 323.272,160.923 322.336,163.763C322.264,163.981 322.352,164.404 322.123,164.418C321.527,164.453 321.013,163.841 320.417,163.876Z" style="fill:#303030;"/>
                <g transform="matrix(0.423589,-0,-0,0.423017,-162.12,-200.596)">
                    <use xlink:href="#_Image9" x="1149.45" y="841.669" width="16px" height="15px"/>
                </g>
                <g transform="matrix(0.423589,-0,-0,0.423017,-162.12,-200.596)">
                    <use xlink:href="#_Image10" x="703.273" y="885.895" width="29px" height="29px"/>
                </g>
                <g transform="matrix(0.423589,-0,-0,0.423017,-162.12,-200.596)">
                    <use xlink:href="#_Image11" x="732.291" y="891.314" width="42px" height="46px"/>
                </g>
                <path d="M32.513,178.12C32.226,177.46 31.692,176.926 31.406,176.266C31.281,175.979 31.336,175.644 31.302,175.332C30.878,171.374 31.013,170.643 32.209,166.544C32.306,166.213 32.271,165.809 32.501,165.55C33.417,164.518 34.056,164.712 34.264,166.07C34.296,166.281 32.919,169.688 32.893,172.177C32.878,173.525 33.194,176.046 33.189,176.07C33.052,176.777 32.65,177.414 32.513,178.12Z" style="fill:#303030;"/>
                <path d="M42.423,197.846C42.065,197.451 41.574,197.19 41.216,196.795C41.211,196.789 40.881,195.514 40.24,193.576C38.502,188.324 37.079,186.204 39.425,176.265C39.516,175.881 39.462,175.428 39.7,175.114C39.962,174.769 40.549,174.784 40.81,174.439C40.914,175.02 41.241,175.546 41.345,176.126C41.423,176.559 39.107,183.036 40.421,188.241C40.857,189.969 43.002,196.057 42.945,196.331C42.835,196.854 42.533,197.324 42.423,197.846Z" style="fill:#303030;"/>
                <path d="M48.774,194.787C48.508,194.299 47.91,194.05 47.645,193.563C47.564,193.415 47.628,193.398 47.24,191.5C46.655,188.635 46.414,187.746 47.011,184.026C47.062,183.706 46.983,183.33 47.172,183.066C47.424,182.714 47.982,182.67 48.235,182.318C48.352,182.867 48.78,183.317 48.898,183.865C48.966,184.179 48.148,186.357 48.659,189.355C48.736,189.806 49.418,193.209 49.408,193.246C49.264,193.782 48.918,194.251 48.774,194.787Z" style="fill:#303030;"/>
                <path d="M347.093,189.41C347.06,188.99 346.771,188.616 346.739,188.196C346.706,187.778 351.43,182.188 351.499,176.029C351.589,167.98 344.993,162.766 344.931,162.427C344.903,162.268 344.319,159.044 346.835,161.747C357.283,172.973 352.948,181.5 349.039,187.834C348.996,187.902 348.641,188.478 348.513,188.695C348.443,188.815 348.431,188.995 348.306,189.057C347.736,189.344 347.665,189.122 347.093,189.41Z" style="fill:#303030;"/>
                <path d="M344.447,180.141C343.875,179.972 343.259,180.634 342.687,180.465C342.53,180.418 342.447,177.014 340.896,174.9C338.575,171.734 337.562,171.577 338.597,170.7C338.928,170.42 339.519,170.587 339.893,170.806C339.902,170.811 341.457,172.647 341.857,173.154C343.553,175.301 343.77,176.475 344.447,180.141Z" style="fill:#303030;"/>
                <g transform="matrix(0.423589,-0,-0,0.423017,-162.12,-200.596)">
                    <use xlink:href="#_Image12" x="1169.74" y="896.756" width="6px" height="10px"/>
                </g>
                <path d="M357.746,182.733C357.266,182.379 356.467,182.758 355.987,182.404C355.86,182.31 357.426,176.971 356.621,172.829C356.205,170.692 354.308,164.621 354.365,164.524C354.583,164.15 354.603,163.513 355.022,163.404C356.206,163.095 356.044,163.696 356.36,164.881C358.633,173.386 359.462,173.486 357.746,182.733Z" style="fill:#303030;"/>
                <path d="M116.982,211.273C116.233,204.241 116.445,204.207 117.683,196.934C117.801,196.239 118.17,196.588 118.743,196.181C118.84,196.603 119.398,196.819 119.495,197.241C119.563,197.533 118.296,202.432 118.344,205.805C118.372,207.747 118.765,211.074 118.76,211.078C118.312,211.471 117.43,210.88 116.982,211.273Z" style="fill:#303030;"/>
                <path d="M131.025,221.512C130.496,221.236 129.829,222.268 129.301,221.992C129.076,221.874 129.241,221.771 128.431,218.939C126.69,212.853 126.393,211.766 126.794,204.163C126.858,202.936 126.577,202.375 127.809,202.443C129.247,202.523 128.47,203.324 128.458,208.89C128.448,212.979 129.107,214.678 131.025,221.512Z" style="fill:#303030;"/>
                <path d="M139.702,220.715C139.246,219.868 138.509,219.192 138.053,218.345C138.05,218.339 137.513,216.539 137.376,216.07C135.629,210.089 135.617,208.511 136.121,201.455C136.164,200.847 136.019,200.194 136.254,199.632C136.421,199.233 137.072,199.184 137.239,198.785C137.368,199.739 137.821,200.631 137.95,201.585C138.085,202.579 136.964,207.011 138.301,212.596C138.752,214.481 139.771,217.82 139.772,217.831C139.856,218.789 139.617,219.757 139.702,220.715Z" style="fill:#303030;"/>
                <path d="M294.144,213.33C292.078,218.43 292.016,218.826 289.483,223.212C289.301,223.528 289.232,223.948 288.934,224.159C288.581,224.41 288.031,224.241 287.678,224.492C287.843,223.775 287.73,223.012 287.895,222.295C287.973,221.961 289.358,220.268 291.142,215.939L292.487,212.657C292.92,211.599 293.085,212.9 294.144,213.33Z" style="fill:#303030;"/>
                <path d="M306.47,201.977C304.43,208.842 304.344,209.456 301.737,215.76C301.551,216.208 301.515,216.753 301.179,217.104C300.88,217.417 300.277,217.286 299.977,217.599C300.102,216.761 299.917,215.897 300.042,215.059C300.1,214.67 301.592,211.953 303.401,205.971L304.755,201.467C305.084,200.373 305.372,201.651 306.47,201.977Z" style="fill:#303030;"/>
                <g transform="matrix(0.423589,-0,-0,0.423017,-162.12,-200.596)">
                    <use xlink:href="#_Image13" x="1206.53" y="1020.84" width="12px" height="33px"/>
                </g>
                <path d="M344.834,223.499C345.35,223.798 346.1,223.044 346.616,223.343C346.979,223.553 346.691,224.177 346.726,224.595C347.787,236.969 346.991,237.778 342.738,248.234C342.593,248.591 342.581,249.039 342.303,249.308C341.992,249.609 341.417,249.512 341.106,249.813C341.185,249.06 340.958,248.296 341.037,247.543C341.094,247.012 344.565,240.141 345.141,235.592C345.542,232.425 345.309,229.028 344.834,223.499Z" style="fill:#303030;"/>
                <path d="M329.586,258.898C329.331,258.359 328.373,258.413 328.118,257.875C328.001,257.627 333.094,251.815 335.004,246.947C336.723,242.565 338.023,234.703 338.088,234.659C338.448,234.418 338.743,233.853 339.168,233.937C339.594,234.021 339.812,234.59 339.892,235.015C339.893,235.021 338.852,240.317 338.068,243.272C336.219,250.237 334.737,251.563 329.586,258.898Z" style="fill:#303030;"/>
                <g transform="matrix(0.423589,-0,-0,0.423017,-162.12,-200.596)">
                    <use xlink:href="#_Image14" x="472.454" y="1007.17" width="15px" height="28px"/>
                </g>
                <path d="M51.788,246.261C47.732,239.366 48.322,239.09 45.491,231.615C45.455,231.517 45.166,230.755 46.024,230.43C47.11,230.019 47.061,230.557 47.466,231.645C49.945,238.311 49.388,238.565 52.959,244.722C53.08,244.931 53.474,245.155 53.327,245.348C52.966,245.823 52.149,245.786 51.788,246.261Z" style="fill:#303030;"/>
                <g transform="matrix(0.423589,-0,-0,0.423017,-162.12,-200.596)">
                    <use xlink:href="#_Image15" x="512.583" y="1062.55" width="21px" height="22px"/>
                </g>
                <g transform="matrix(0.423589,-0,-0,0.423017,-162.12,-200.596)">
                    <use xlink:href="#_Image16" x="620.296" y="1090.24" width="33px" height="35px"/>
                </g>
                <path d="M126.451,277.557C125.335,276.938 124.121,276.507 123.005,275.888C122.664,275.699 122.402,275.393 122.102,275.144C118.593,272.232 117.653,271.182 114.203,266.774C113.892,266.377 113.421,266.062 113.272,265.581C113.144,265.167 113.562,264.706 113.434,264.293C114.112,264.83 114.97,265.11 115.649,265.647C116.272,266.14 117.684,269.035 122.463,273.097C124.003,274.405 124.035,274.368 124.148,274.503C124.97,275.478 125.629,276.582 126.451,277.557Z" style="fill:#303030;"/>
                <path d="M315.677,266.297C315.395,265.773 314.39,265.964 314.108,265.439C314.029,265.292 316.747,261.359 317.604,258.139C318.795,253.663 318.228,252.698 319.651,252.978C320.076,253.061 320.281,253.633 320.375,254.056C320.377,254.065 319.778,257.075 319.452,258.279C318.715,261.008 318.118,261.88 315.677,266.297Z" style="fill:#303030;"/>
                <g transform="matrix(1,0,0,1,-20.9665,8.52651e-14)">
                    <path d="M288.497,27.973C289.052,27.757 288.53,26.502 289.086,26.286C289.102,26.28 296.13,28.743 300.062,30.241C332.002,42.411 333.076,48.318 358.005,75.445C358.075,75.522 358.627,76.122 357.951,76.742C357.632,77.035 357.031,76.898 356.652,76.688C356.063,76.363 340.711,58.489 334.549,52.397C323.955,41.921 313.745,36.792 288.497,27.973Z" style="fill:#303030;"/>
                </g>
                <g transform="matrix(1,0,0,1,-20.9665,8.52651e-14)">
                    <path d="M281.199,159.082C280.943,159.62 281.879,160.28 281.623,160.818C281.619,160.828 274.82,162.48 269.062,163.708C248.667,168.061 164.221,185.901 94.127,152.382C88.612,149.745 83.375,146.7 83.276,146.644C82.474,146.189 82.878,145.481 82.93,145.39C83.144,145.014 83.757,144.973 84.184,145.047C85.021,145.194 104.972,158.835 142.57,166.045C199.715,177.004 255.28,165.381 281.199,159.082Z" style="fill:#303030;"/>
                </g>
                <g transform="matrix(1,0,0,1,-20.9665,8.52651e-14)">
                    <path d="M293.604,272.172C291.384,272.983 289.314,274.171 287.094,274.982C285.564,275.541 270.278,279.781 268.813,280.188C224.521,292.473 211.341,292.224 151.102,281.468C150.194,281.306 150.339,280.504 150.357,280.401C150.434,279.975 150.992,279.676 151.425,279.66C152.54,279.619 186.643,286.78 209.971,287.564C231.925,288.302 248.291,284.269 281.019,274.868C286.243,273.368 286.231,273.342 286.597,273.263C290.071,272.519 290.133,272.915 293.604,272.172Z" style="fill:#303030;"/>
                </g>
                <g transform="matrix(1,0,0,1,-20.9665,8.52651e-14)">
                    <path d="M277.573,269.792C244.853,274.643 244.943,275.688 211.901,277.277C211.197,277.311 211.459,276.876 210.937,276.403L211.813,275.443C244.766,273.883 244.669,272.804 277.312,268.024C278.446,267.858 277.406,268.661 277.573,269.792Z" style="fill:#303030;"/>
                </g>
                <g transform="matrix(1,0,0,1,-20.9665,8.52651e-14)">
                    <path d="M275.735,257.232C275.334,257.673 276.668,258.497 276.267,258.938C276.265,258.94 272.933,259.977 272.042,260.251C259.62,264.063 258.143,263.867 242.548,264.297C242.444,264.3 241.628,264.323 241.602,263.405C241.59,262.972 242.076,262.571 242.496,262.462C243.133,262.296 253.774,262.568 260.567,261.403C264.847,260.67 271.172,258.647 275.735,257.232Z" style="fill:#303030;"/>
                </g>
            </g>
            <g id="flag">
                <g transform="matrix(0.556643,0.105833,-0.0767753,0.404901,74.5565,47.9199)">
                    <path d="M319.604,95.768L319.604,96.097L247.459,96.097L247.459,43.962L319.604,43.962L319.604,44.222L306.772,70.143L319.604,95.768Z" style="fill:rgb(157,36,0);"/>
                    <path d="M320.499,95.767L320.523,95.767C320.475,96.542 320.6,96.664 320.144,97.119C319.444,97.818 319.322,97.38 247.458,97.351C246.965,97.35 246.548,96.779 246.547,96.098C246.538,44.344 246.108,44.055 246.817,43.081C247.521,42.114 247.74,42.696 319.604,42.725C319.973,42.726 320.324,43.064 320.449,43.539C320.854,45.07 320.236,45.034 307.512,70.139C318.685,91.942 319.98,91.073 320.499,95.767ZM318.368,95.466C314.239,87.189 310.083,78.938 305.957,70.659C305.467,69.676 306.027,69.576 318.638,44.166L247.912,44.586L247.915,95.47L318.368,95.466Z"/>
                </g>
                <g transform="matrix(0.372682,0.0662326,-0.073519,0.4148,122.839,63.2178)">
                    <path d="M241.448,32.24L241.448,158.989C241.448,159.567 240.926,160.036 240.283,160.036L237.952,160.036C237.308,160.036 236.786,159.567 236.786,158.989L236.786,32.24C236.786,31.662 237.308,31.192 237.952,31.192L240.283,31.192C240.926,31.192 241.448,31.662 241.448,32.24Z" style="fill:url(#_Linear17);"/>
                    <path d="M242.772,32.239L242.824,32.239C242.785,158.243 244.819,159.827 241.203,161.099C240.531,161.336 237.644,161.392 236.806,161.008C233.597,159.539 235.427,158.27 235.446,32.24C235.446,29.188 240.262,29.951 240.72,30.024C241.611,30.165 242.365,30.751 242.654,31.514C242.787,31.866 242.821,32.095 242.772,32.239ZM240.072,32.394L238.123,32.394L238.141,158.818L240.093,158.818L240.072,32.394ZM237.976,32.262C237.975,32.241 237.971,32.231 237.956,32.244C237.941,32.257 237.953,32.261 237.976,32.262ZM237.979,158.963C237.954,158.964 237.942,158.969 237.958,158.983C237.974,158.997 237.979,158.986 237.979,158.963ZM240.256,158.965C240.257,158.988 240.262,158.999 240.278,158.984C240.294,158.97 240.282,158.965 240.256,158.965ZM240.257,32.26C240.28,32.261 240.291,32.258 240.277,32.245C240.275,32.244 240.274,32.243 240.273,32.242C240.269,32.242 240.265,32.242 240.261,32.242C240.259,32.245 240.258,32.252 240.257,32.26Z"/>
                </g>
            </g>
            <g id="text">
                <g>
                    <g transform="matrix(0.999969,0.00788927,-0.00733114,0.999973,18.2664,2.60788)">
                        <g transform="matrix(0.305314,-0.481335,0.346223,0.219612,-23.8793,148.951)">
                            <text x="46.468px" y="162.207px" style="font-family:'Architext', sans-serif;font-stretch:condensed;font-size:130px;fill:#fff0b1;stroke:#303030;stroke-width:2.01px;">W</text>
                        </g>
                        <g transform="matrix(0.480151,-0.307172,0.220948,0.345372,25.8311,88.1285)">
                            <text x="89.132px" y="92.8px" style="font-family:'Architext', sans-serif;font-stretch:condensed;font-size:130px;fill:#fff0b1;stroke:#303030;stroke-width:2.01px;">e</text>
                        </g>
                        <g transform="matrix(0.564755,-0.07715,0.0554939,0.406227,56.8569,46.0768)">
                            <text x="138.236px" y="59.639px" style="font-family:'Architext', sans-serif;font-stretch:condensed;font-size:130px;fill:#fff0b1;stroke:#303030;stroke-width:2.01px;">a</text>
                        </g>
                        <g transform="matrix(0.557875,0.116942,-0.0841164,0.401278,90.8652,8.71677)">
                            <text x="195.485px" y="52.741px" style="font-family:'Architext', sans-serif;font-stretch:condensed;font-size:130px;fill:#fff0b1;stroke:#303030;stroke-width:2.01px;">t</text>
                        </g>
                        <g transform="matrix(0.459262,0.337607,-0.24284,0.330346,143.562,-40.7016)">
                            <text x="238.736px" y="59.579px" style="font-family:'Architext', sans-serif;font-stretch:condensed;font-size:130px;fill:#fff0b1;stroke:#303030;stroke-width:2.01px;">h</text>
                        </g>
                        <g transform="matrix(0.283974,0.494226,-0.355496,0.204262,239.624,-67.5598)">
                            <text x="288.002px" y="93.973px" style="font-family:'Architext', sans-serif;font-stretch:condensed;font-size:130px;fill:#fff0b1;stroke:#303030;stroke-width:2.01px;">e</text>
                        </g>
                        <g transform="matrix(0.0982376,0.561471,-0.403865,0.0706621,344.417,-43.4936)">
                            <text x="317.097px" y="144.778px" style="font-family:'Architext', sans-serif;font-stretch:condensed;font-size:130px;fill:#fff0b1;stroke:#303030;stroke-width:4.01px;">r</text>
                        </g>
                    </g>
                    <g transform="matrix(1.32914,0,0,1.3747,-132.012,-121.679)">
                        <g transform="matrix(0.752364,0,0,0.727434,28.8309,24.8144)">
                            <g transform="matrix(0.345472,0.465885,-0.329332,0.244213,207.166,214.818)">
                                <text x="132.426px" y="365.861px" style="font-family:'Architext', sans-serif;font-stretch:condensed;font-size:130px;fill:#fff0b1;stroke:#303030;stroke-width:1.99px;">B</text>
                            </g>
                            <g transform="matrix(0.50654,0.282519,-0.199712,0.358072,176.249,224.431)">
                                <text x="183.065px" y="430.188px" style="font-family:'Architext', sans-serif;font-stretch:condensed;font-size:130px;fill:#fff0b1;stroke:#303030;stroke-width:1.99px;">u</text>
                            </g>
                            <g transform="matrix(0.576282,0.0655637,-0.0463467,0.407372,129.073,258.984)">
                                <text x="253.748px" y="465.083px" style="font-family:'Architext', sans-serif;font-stretch:condensed;font-size:130px;fill:#fff0b1;stroke:#303030;stroke-width:1.99px;">r</text>
                            </g>
                            <g transform="matrix(0.552216,-0.177363,0.125377,0.39036,84.6077,343.92)">
                                <text x="320.773px" y="470.814px" style="font-family:'Architext', sans-serif;font-stretch:condensed;font-size:130px;fill:#fff0b1;stroke:#303030;stroke-width:1.99px;">g</text>
                            </g>
                            <g transform="matrix(0.426713,-0.392831,0.277691,0.301642,103.18,465.203)">
                                <text x="395.016px" y="443.939px" style="font-family:'Architext', sans-serif;font-stretch:condensed;font-size:130px;fill:#fff0b1;stroke:#303030;stroke-width:1.99px;">e</text>
                            </g>
                            <g transform="matrix(0.256126,-0.520384,0.367858,0.181055,191.908,552.072)">
                                <text x="449.959px" y="388.207px" style="font-family:'Architext', sans-serif;font-stretch:condensed;font-size:130px;fill:#fff0b1;stroke:#303030;stroke-width:1.99px;">r</text>
                            </g>
                        </g>
                    </g>
                </g>
            </g>
        </g>
    </g>
    <defs>
        <linearGradient id="_Linear1" x1="0" y1="0" x2="1" y2="0.000891407" gradientUnits="userSpaceOnUse" gradientTransform="matrix(-0.343347,-33.3045,32.4725,-0.352145,200.127,288.557)"><stop offset="0" style="stop-color:rgb(255,156,81);stop-opacity:0.98"/><stop offset="0.5" style="stop-color:rgb(246,147,73);stop-opacity:0.98"/><stop offset="1" style="stop-color:rgb(218,94,0);stop-opacity:0.98"/></linearGradient>
        <radialGradient id="_Radial2" cx="0" cy="0" r="1" gradientUnits="userSpaceOnUse" gradientTransform="matrix(92.0785,42.0252,-41.357,93.5662,172.563,139.026)"><stop offset="0" style="stop-color:rgb(255,156,81);stop-opacity:0.98"/><stop offset="0.38" style="stop-color:rgb(238,129,45);stop-opacity:0.98"/><stop offset="1" style="stop-color:rgb(218,95,0);stop-opacity:0.98"/></radialGradient>
        <linearGradient id="_Linear17" x1="0" y1="0" x2="1" y2="-0.0438193" gradientUnits="userSpaceOnUse" gradientTransform="matrix(4.1733,-4.40591,5.04583,3.52958,327.425,216.972)"><stop offset="0" style="stop-color:rgb(157,36,0);stop-opacity:1"/><stop offset="1" style="stop-color:rgb(75,17,0);stop-opacity:1"/></linearGradient>
    </defs>
</svg>
