<?xml version="1.0" encoding="UTF-8" standalone="no"?>
<!DOCTYPE svg PUBLIC "-//W3C//DTD SVG 1.1//EN" "http://www.w3.org/Graphics/SVG/1.1/DTD/svg11.dtd">
<!-- Created with Vectornator (http://vectornator.io/) -->
<svg height="100%" stroke-miterlimit="10" style="fill-rule:nonzero;clip-rule:evenodd;stroke-linecap:round;stroke-linejoin:round;" version="1.1" viewBox="0 0 400 400" width="100%" xml:space="preserve" xmlns="http://www.w3.org/2000/svg" xmlns:vectornator="http://vectornator.io" xmlns:xlink="http://www.w3.org/1999/xlink">
<defs/>
<g id="Слой-2" vectornator:layerName="Слой 2">
<g opacity="1" vectornator:layerName="Группа 1">
<path d="M342.719 235.693C345.719 245.202 342.443 261.524 335.883 266.927C329.323 272.33 320.426 275.714 314.076 277.153C306.988 278.759 298.915 277.201 291.617 273.944C284.32 270.686 277.798 265.728 273.811 260.536C272.383 258.676 270.344 254.088 268.51 249.963C266.677 245.838 265.05 242.176 264.448 242.169C263.835 242.162 263.818 243.742 263.953 245.499C264.087 247.256 264.373 249.191 264.366 249.893C264.335 252.807 264.378 255.732 264.017 258.568C263.657 261.404 262.892 264.151 261.245 266.71C257.595 272.383 251.231 277.917 243.974 281.665C236.716 285.414 228.564 287.378 221.335 285.91C212.394 284.095 205.152 279.056 199.401 272.639C193.649 266.221 189.389 258.426 186.412 251.097C185.978 250.03 185.69 247.62 185.302 245.274C184.914 242.927 184.425 240.643 183.59 239.828C183.247 239.493 183.242 239.961 183.322 240.63C183.401 241.299 183.565 242.169 183.56 242.637C183.546 243.972 183.426 245.107 183.176 246.216C182.926 247.326 182.547 248.409 182.015 249.641C180.732 252.614 179.535 255.804 177.947 258.747C176.36 261.69 174.384 264.387 171.543 266.373C164.394 271.373 155.617 274.317 146.478 275.692C137.339 277.067 127.838 276.873 119.239 275.599C111.257 274.415 103.657 270.26 97.2046 264.737C90.7524 259.215 85.4482 252.325 82.0576 245.674C80.9117 243.427 80.2008 241.129 79.7829 238.783C79.3651 236.436 79.2401 234.041 79.2661 231.598L79.3035 228.087L79.3408 224.576C79.3408 224.576 76.7272 226.226 73.818 228.041C70.9087 229.855 67.6867 231.802 66.5215 232.493C7.64282 267.436-11.0084 188.362 34.1901 177.768C-40.383 156.236 54.3158 64.9641 85.4017 125.186C82.3872 103.615 123.311 89.431 131.303 123.118C139.883 84.3049 173.357 86.9867 185.834 113.012C183.486 89.5946 183.076 56.0993 212.672 51.2326C252.169 49.0075 250.477 75.2473 257.455 95.7391C259.609 7.16559 431.42 79.1478 347.906 154.84C377.334 153.188 392.164 174.696 393.691 191.599C395.218 208.502 376.495 235.181 350.906 224.952C340.461 220.776 337.789 220.396 338.893 223.275C339.997 226.154 342.728 235.693 342.728 235.693" fill="#a9e0ff" fill-rule="nonzero" opacity="1" stroke="#4b4b4b" stroke-linecap="butt" stroke-linejoin="round" stroke-width="2.38258" vectornator:layerName="Кривая 1"/>
<path d="M358.114 89.7334C356.546 87.0646 351.954 85.9459 349.097 84.2662C340.107 78.9819 330.415 74.0759 320.394 70.2676M365.089 102.976C360.384 94.9688 341.939 89.7245 333.179 85.988C329.228 84.3032 324.478 81.8682 319.928 81.8224M366.606 111.594C360.74 101.612 340.869 95.8209 329.538 91.8656C325.233 90.3631 320.92 88.3877 316.287 87.7M363.935 117.75C365.047 117.761 361.488 116.383 359.754 114.751C357.178 112.326 354.654 110.059 351.399 108.215C344.609 104.37 331.114 102.531 322.938 100.939M361.545 127.404C363.202 124.729 355.569 119.73 354.19 118.727C346.623 113.229 335.712 110.902 326.417 108.233M359.854 133.032C360.937 131.283 357.69 129.514 356.348 127.889C353.012 123.847 349.119 119.822 343.164 118.348C340.502 117.689 337.734 118.227 335.064 117.46M353.635 137.54C350.813 130.275 340.602 122.574 331.78 120.653M347.769 139.631C342.242 134.948 338.703 128.014 330.41 126.553M342.579 139.579C341.474 136.734 337.86 135.077 334.535 134.122M389.367 185.876C382.421 172.253 376.024 166.817 360.042 163.101C357.176 162.435 354.583 160.717 351.562 160.682M389.653 197.097C389.89 197.562 390.447 198.562 390.442 199.04C390.432 199.979 390.016 197.199 389.661 196.323C389.333 195.517 388.867 194.767 388.47 193.989C386.866 190.842 385.251 188.571 382.887 185.801C377.521 179.512 367.381 171.696 358.331 171.591M382.702 203.205C385.359 203.236 380.712 196.555 379.949 195.437C375.584 189.035 369.598 185.489 362.675 182.085M380.554 214.785C381.617 212.807 380.014 210.346 379.409 208.196C377.57 201.667 374.007 195.206 366.606 193.349M372.413 218.559C372.502 210.211 369.531 203.307 362.498 198.716M338.995 237.899C339.113 226.782 321.152 215.479 312.963 210.134M339.681 249.512C332.815 236.044 323.991 224.005 308.819 218.983M336.748 258.761C336.783 255.458 332.509 248.61 331.21 246.319C327.621 239.993 322.242 235.518 315.973 231.831M330.231 262.167C330.37 261.782 330.827 261.382 330.648 261.012C328.528 256.604 326.019 252.373 323.494 248.164C321.135 244.229 319.647 242.808 316.287 240.344M325.334 265.592C327.019 266.42 323.701 257.552 323.003 256.281C320.178 251.141 315.41 248.476 311.382 244.542M319.243 267.069C316.347 258.476 315.413 255.904 309.3 249.934M259.838 254.389C257.218 251.831 256.722 247.881 255.081 244.664C251.171 236.993 245.804 227.792 237.071 224.341M254.037 266.7C254.072 263.396 251.812 260.432 250.491 257.375C247.995 251.6 245.664 245.103 241.357 240.25C238.338 236.848 234.546 234.38 231.327 231.237M248.698 273.601C248.836 273.345 249.207 273.106 249.111 272.832C247.735 268.876 246.158 264.978 244.375 261.173C241.356 254.727 238.722 251.18 233.184 247.118M244.636 274.714C240.415 266.435 236.354 260.048 230.283 253.273M235.33 273.833C237.473 269.846 228.551 260.961 225.374 257.858M176.4 254.583C176.498 245.377 167.871 233.358 161.704 227.336M173.111 259.187C173.242 246.827 155.373 233.936 147.955 225.242M167.776 265.701C167.8 263.462 163.497 256.196 162.631 254.424C158.064 245.087 151.496 236.349 143.046 229.827C139.219 226.874 134.578 225.339 130.565 222.72M161.701 265.631C155.333 246.734 136.746 233.923 119.197 225.296M152.747 269.782C147.716 254.855 131.772 239.828 117.086 233.395M144.217 272.004C144.265 267.568 139.191 264.507 136.233 261.081C128.387 251.993 120.151 245.593 109.317 240.268M126.848 267.548C123.162 260.317 116.381 256.168 110.008 251.493M71.8062 225.521C71.8494 221.452 71.9288 216.612 71.1278 213.135C70.0172 208.313 67.7167 203.812 66.0112 199.15M34.674 121.069C31.5259 122.092 31.1069 124.276 30.6344 126.342C28.8093 134.319 37.0208 140.321 46.1896 145.038M24.8977 127.474C20.1726 127.436 23.2765 135.529 23.8704 137.193C26.0271 143.236 33.0742 150.117 42.5675 151.789M16.8453 136.252C16.8095 138.61 16.1044 141.005 16.7381 143.325C18.4875 149.731 33.8698 153.848 40.723 157.374M17.1199 147.16C18.1737 147.169 19.6656 151.134 21.0031 152.203C25.061 155.446 34.2656 159.385 40.6917 159.437M18.3279 154.539C21.9109 159.47 28.7632 163.47 36.6432 165.3M20.4157 161.925C17.6601 165.522 35.5682 171.866 39.162 173.279M66.93 227.012C64.7646 220.587 63.3647 216.381 59.8377 208.362C58.5655 205.47 55.7274 197.501 51.4771 194.727M58.3678 232.328C54.9755 229.015 56.4621 223.243 55.2719 218.753C54.0964 214.319 52.2232 209.364 48.1098 206.679M52.6775 234.196C54.7024 232.305 53.4059 228.712 52.7639 226.074C51.3944 220.446 49.1254 218.271 46.0067 214.004M48.2186 234.531C50.1326 230.97 41.9001 220.154 38.6841 217.014M46.1896 234.894C45.1162 228.331 38.8301 224.081 33.7915 220.052M40.1231 234.051C39.2614 229.705 35.1627 227.335 31.304 225.438" fill="none" opacity="1" stroke="#4b4b4b" stroke-linecap="butt" stroke-linejoin="round" stroke-width="2.38258" vectornator:layerName="Кривая 6"/>
</g>
<g opacity="1" vectornator:layerName="Группа 2">
<path d="M92.8632 308.686C90.4354 316.006 92.8646 328.644 97.9551 332.876C103.046 337.109 109.983 339.803 114.943 340.972C120.479 342.276 126.812 341.144 132.552 338.693C138.293 336.242 143.44 332.47 146.604 328.495C147.738 327.071 149.373 323.545 150.843 320.374C152.312 317.204 153.617 314.39 154.088 314.39C154.568 314.39 154.568 315.611 154.448 316.967C154.328 318.323 154.088 319.815 154.088 320.357C154.088 322.609 154.03 324.868 154.288 327.062C154.547 329.256 155.123 331.385 156.391 333.377C159.202 337.792 164.137 342.124 169.788 345.084C175.439 348.045 181.805 349.635 187.476 348.566C194.491 347.244 200.203 343.416 204.76 338.51C209.316 333.604 212.716 327.62 215.108 321.985C215.456 321.164 215.702 319.306 216.025 317.496C216.349 315.687 216.75 313.927 217.411 313.305C217.682 313.049 217.682 313.411 217.614 313.927C217.546 314.443 217.411 315.113 217.411 315.475C217.411 316.506 217.495 317.384 217.682 318.244C217.868 319.103 218.156 319.943 218.562 320.9C219.542 323.208 220.453 325.683 221.671 327.971C222.889 330.259 224.414 332.359 226.621 333.919C232.177 337.846 239.024 340.198 246.167 341.342C253.311 342.486 260.751 342.422 267.493 341.514C273.752 340.671 279.737 337.529 284.834 333.321C289.932 329.112 294.142 323.837 296.852 318.73C297.768 317.004 298.343 315.235 298.69 313.426C299.037 311.617 299.154 309.768 299.154 307.88L299.154 305.168L299.154 302.456C299.154 302.456 301.187 303.754 303.449 305.181C305.712 306.609 308.204 308.167 309.125 308.686C331.5 321.316 347.698 311.537 354.837 297.295C361.976 283.052 360.056 264.344 346.197 259.116C342.309 257.65 342.386 256.29 343.49 255.292C344.593 254.293 346.721 253.656 346.934 253.632C355.511 252.697 362.679 246.875 367.388 238.85C372.098 230.824 374.349 220.594 373.092 210.842C372.236 204.199 369.049 197.788 364.132 192.963C359.215 188.138 352.566 184.898 344.785 184.6C336.555 184.284 326.767 186.506 319.036 192.736C311.305 198.965 306.331 212.499 306.331 228.214C306.331 213.815 295.457 203.735 282.086 199.615C268.716 195.495 255.998 205.248 246.012 225.241C248.046 207.172 236.493 184.209 222.786 183.405C209.079 182.602 189.368 192.749 191.179 206.612C180.122 162.667 154.232 130.686 100.826 152.22C67.8065 165.534 43.8266 224.678 89.4757 246.18C66.4504 244.64 54.6605 261.123 53.3244 274.167C51.9883 287.212 66.4243 307.989 86.543 300.316C94.7557 297.183 96.8508 296.913 95.9623 299.128C95.0737 301.342 92.8567 308.686 92.8567 308.686" fill="#c5eaff" fill-rule="nonzero" opacity="1" stroke="#4b4b4b" stroke-linecap="butt" stroke-linejoin="round" stroke-width="2.00401" vectornator:layerName="Кривая 4"/>
<path d="M72.7756 180.79C74.3404 177.841 78.8415 176.649 81.6544 174.813C90.5039 169.04 100.036 163.695 109.876 159.574M65.7995 195.432C70.4941 186.584 88.5851 180.961 97.1922 176.905C101.073 175.077 105.745 172.423 110.193 172.423M64.214 204.994C70.0663 193.964 89.5582 187.749 100.68 183.479C104.905 181.857 109.144 179.71 113.681 178.997M66.7508 211.867C65.6633 211.867 69.1584 210.376 70.8731 208.58C73.4199 205.914 75.9135 203.422 79.1176 201.409C85.8001 197.21 99.0123 195.317 107.022 193.639M68.9705 222.625C67.3833 219.633 74.9036 214.161 76.2637 213.063C83.7251 207.036 94.4175 204.571 103.534 201.707M70.556 228.9C69.5182 226.944 72.7133 225.014 74.044 223.222C77.3537 218.767 81.2063 214.336 87.045 212.764C89.6549 212.061 92.3539 212.69 94.9725 211.867M76.5808 233.98C79.426 225.936 89.4978 217.49 98.1435 215.453M82.2886 236.371C87.7474 231.226 91.2888 223.558 99.4119 222.027M87.3621 236.371C88.4766 233.22 92.0288 231.418 95.2896 230.394M55.0182 270.137C60.5691 259.675 65.623 255.533 78.1663 252.806C80.4151 252.317 82.4601 251.013 84.8254 251.013M54.7011 278.803C54.5116 279.16 54.0669 279.928 54.0669 280.297C54.0669 281.022 54.4153 278.879 54.7011 278.206C54.9644 277.585 55.3353 277.01 55.6524 276.413C56.9345 273.996 58.2184 272.256 60.0917 270.137C64.3453 265.327 72.3488 259.38 79.4347 259.38M60.0917 283.584C58.0112 283.584 61.7054 278.464 62.3114 277.608C65.7825 272.701 70.4986 270.015 75.9466 267.448M61.6772 292.549C60.8612 291.011 62.1365 289.125 62.6285 287.469C64.1222 282.442 66.9656 277.483 72.7756 276.114M68.0192 295.537C68.0192 289.087 70.4025 283.78 75.9466 280.297M94.0212 310.777C94.0212 302.187 108.177 293.617 114.633 289.561M93.387 319.742C98.8745 309.399 105.884 300.178 117.804 296.434M95.6067 326.913C95.6067 324.361 99.0096 319.109 100.046 317.351C102.908 312.496 107.157 309.087 112.096 306.295M100.68 329.603C100.575 329.304 100.22 328.991 100.363 328.706C102.06 325.321 104.06 322.074 106.071 318.845C107.951 315.826 109.128 314.742 111.779 312.869M104.485 332.292C103.159 332.917 105.831 326.095 106.388 325.12C108.642 321.175 112.397 319.159 115.584 316.156M109.242 333.487C111.581 326.875 112.333 324.897 117.169 320.339M155.855 324.224C157.928 322.271 158.35 319.224 159.66 316.753C162.786 310.863 167.064 303.803 173.93 301.215M160.295 333.786C160.295 331.233 162.089 328.964 163.149 326.614C165.15 322.175 167.029 317.177 170.442 313.466C172.834 310.865 175.823 308.993 178.369 306.593M164.417 339.165C164.311 338.966 164.023 338.778 164.1 338.567C165.21 335.524 166.478 332.527 167.905 329.603C170.322 324.65 172.414 321.934 176.784 318.845M167.588 340.061C170.961 333.703 174.194 328.805 179.003 323.626M174.881 339.464C173.237 336.364 180.295 329.581 182.809 327.212M221.177 325.12C221.177 318.008 228.032 308.8 232.91 304.203M223.714 328.706C223.714 319.157 237.811 309.359 243.691 302.709M227.836 333.786C227.836 332.056 231.265 326.482 231.959 325.12C235.612 317.949 240.827 311.257 247.497 306.295C250.517 304.047 254.163 302.903 257.327 300.916M232.593 333.786C237.736 319.246 252.395 309.515 266.205 303.008M239.569 337.073C243.632 325.587 256.24 314.121 267.791 309.283M246.228 338.866C246.228 335.439 250.226 333.119 252.57 330.499C258.788 323.549 265.29 318.679 273.816 314.662M259.863 335.579C262.81 330.026 268.153 326.881 273.181 323.327M356.261 189.456C358.519 190.52 358.797 192.737 359.115 194.834C360.343 202.936 354.359 208.953 347.699 213.66M363.237 196.03C366.643 196.03 364.318 204.209 363.871 205.891C362.251 211.999 357.097 218.917 350.236 220.533M368.945 204.994C368.945 207.385 369.427 209.819 368.945 212.166C367.614 218.646 356.483 222.692 351.505 226.211M368.628 216.051C367.868 216.051 366.75 220.058 365.774 221.131C362.814 224.385 356.137 228.302 351.505 228.302M367.677 223.521C365.04 228.49 360.058 232.489 354.359 234.279M366.091 230.992C368.038 234.661 355.062 240.944 352.456 242.347M303.306 303.605C303.306 300.462 303.284 296.722 303.94 294.043C304.85 290.328 306.688 286.871 308.062 283.285M307.111 304.801C308.86 299.857 309.991 296.62 312.819 290.457C313.839 288.234 316.127 282.103 319.478 279.998M313.77 308.984C316.453 306.455 315.338 301.983 316.307 298.525C317.264 295.11 318.772 291.299 322.015 289.262M318.209 310.478C316.64 308.999 317.685 306.235 318.209 304.203C319.328 299.868 321.123 298.208 323.6 294.939M321.697 310.777C320.229 308.009 326.764 299.727 329.308 297.33M323.283 311.076C324.178 306.015 329.135 302.788 333.113 299.721M328.039 310.478C328.75 307.129 331.979 305.335 335.016 303.904M137.675 159.429C139.842 159.429 140.423 157.475 142.755 157.035C151.856 155.32 163.356 161.503 170.695 165.652M149.359 166.131C151.365 167.076 153.36 166.909 155.455 167.567C160.37 169.111 165.28 171.985 169.679 174.748M156.979 174.748C164.633 178.355 183.903 179.002 183.903 190.546M165.107 183.844C168.443 190.132 179.427 190.443 183.903 196.769M169.171 192.461C172.143 198.062 180.869 199.176 185.427 203.471" fill="none" opacity="1" stroke="#4b4b4b" stroke-linecap="butt" stroke-linejoin="round" stroke-width="2.00401" vectornator:layerName="Кривая 5"/>
</g>
</g>
</svg>
