<?xml version="1.0" encoding="UTF-8" standalone="no"?>
<!DOCTYPE svg PUBLIC "-//W3C//DTD SVG 1.1//EN" "http://www.w3.org/Graphics/SVG/1.1/DTD/svg11.dtd">
<svg width="100%" height="100%" viewBox="0 0 1667 1667" version="1.1" xmlns="http://www.w3.org/2000/svg" xmlns:xlink="http://www.w3.org/1999/xlink" xml:space="preserve" xmlns:serif="http://www.serif.com/" style="fill-rule:evenodd;clip-rule:evenodd;stroke-linejoin:round;stroke-miterlimit:10;">
    <g transform="matrix(4.16667,0,0,4.16667,0,0)">
        <g id="Слой-1">
            <g transform="matrix(0.861361,-0.507993,0.507993,0.861361,-68.032,219.653)">
                <path d="M22.424,116.821C26.659,116.128 31.915,115.824 37.369,115.933C48.813,116.162 61.109,118.209 66.679,122.414C67.426,122.979 65.007,130.945 60.926,139.527L22.424,116.821ZM305.358,283.683C311.082,271.361 319.4,254.63 321.61,254.258C322.338,254.135 323.013,254.641 323.712,254.729C327.827,255.248 355.054,295.141 354.19,299.504C353.487,303.053 345.981,305.368 342.832,305.783L337.541,302.663C338.863,301.593 340.077,300.589 340.184,300.266C340.927,298.016 338.018,299.746 335.46,301.436L333.399,300.22C335.034,298.265 337.255,295.901 337.255,295.67C337.255,295.532 333.003,299.083 332.372,299.615C332.325,299.655 332.298,299.678 332.295,299.681C332.124,299.853 329.609,297.619 329.609,297.619C330.652,296.234 331.307,295.735 332.193,294.841C332.963,294.064 331.255,295.664 330.485,296.441C330.403,296.523 329.813,297.202 329.551,297.501L328.325,294.791C328.334,294.773 328.375,294.689 328.383,294.673C328.404,294.632 328.146,294.878 327.706,295.314C327.721,295.515 327.722,295.675 327.683,295.734C327.591,295.873 327.399,296.152 327.141,296.529L321.924,293.453C322.247,292.095 322.452,291.188 322.403,291.273C322.403,291.273 321.871,291.923 321.048,292.936L305.358,283.683ZM329.292,297.798C329.387,297.688 329.474,297.589 329.551,297.501L329.609,297.619C329.545,297.704 329.482,297.788 329.419,297.873L329.292,297.798ZM190.029,42.561C189.375,41.347 188.801,40.109 188.172,39.128C187.918,38.731 187.585,38.358 187.28,37.995C187.071,35.894 186.783,33.766 186.13,31.624L187.049,37.701C187.015,37.66 186.982,37.616 186.949,37.575L186.354,36.82C186.652,37.198 186.833,37.61 187.116,37.988L187.524,40.727L185.177,37.747C188.152,41.524 190.313,46.053 192.205,50.368L190.999,46.013C192.088,47.671 193.208,49.164 193.807,49.106C194.37,49.052 193.318,47.887 193.009,47.286C192.602,46.494 192.126,45.755 191.639,45.032C191.929,45.37 192.239,45.673 192.575,45.928C192.764,46.072 192.47,45.487 192.374,45.27C191.972,44.35 191.625,43.447 191.178,42.54C191.044,42.268 190.09,40.203 189.103,38.144C189.484,38.917 190.176,40.207 190.744,41.182C191.501,42.142 191.102,39.028 190.76,37.906C190.311,36.434 189.523,33.601 188.545,30.758L188.522,30.693C187.556,27.894 186.382,25.144 185.168,23.542C186.265,20.595 187.501,17.403 191.914,20.337C194.316,21.933 214.855,52.99 211.455,58.666C209.914,61.24 179.998,61.336 178.442,55.36C176.843,49.219 182.061,30.343 184.292,25.524C184.559,24.947 184.878,24.261 185.135,23.568L187.472,30.907C187.143,30.344 186.812,29.863 186.516,30.097L188.39,36.781L188.423,36.823L190.029,42.561ZM190.999,46.013C189.784,44.16 188.599,42.091 188.185,41.566L187.557,40.768C187.556,40.756 187.525,40.739 187.524,40.727C187.467,39.915 187.391,39.119 187.315,38.307C188.327,39.677 189.161,41.151 190.029,42.561C190.049,42.597 190.043,42.636 190.063,42.671L190.999,46.013ZM191.639,45.032C191.071,44.371 190.581,43.578 190.129,42.755C190.6,43.527 191.126,44.271 191.639,45.032ZM190.432,50.54C189.47,47.381 187.719,43.462 185.588,40.756L190.432,50.54ZM186.252,54.649C189.659,57.817 183.236,46.313 182.03,44.782L186.252,54.649ZM270.795,34.16C271.803,33.981 272.792,34.047 273.656,34.396C276.12,35.39 276.742,45.638 277.042,48.064C278.514,59.942 279.215,70.906 277.218,83C276.771,85.703 275.465,92.162 273.247,93.84C272.101,94.708 270.998,94.886 269.686,94.665C267.365,94.275 264.895,91.614 263.088,90.247C259.657,87.65 255.054,86.066 251.353,83.825C248.955,82.374 246.805,80.678 244.58,78.994C243.987,78.545 240.406,77.574 241.894,77.168C242.366,77.039 237.102,74.807 236.639,74.34C234.427,72.107 235.07,69.826 235.647,66.916C236.165,64.301 240.139,60.971 241.777,58.904C247.929,51.144 254.534,44.611 262.504,38.579C264.422,37.127 267.773,34.697 270.795,34.16ZM263.789,51.775L245.748,58.551C252.641,58.551 257.873,54.871 263.789,51.775ZM260.636,56.43L248.959,61.32L240.435,63.205C240.814,63.396 241.424,63.299 241.894,63.382L241.135,63.558C241.475,63.558 241.79,63.402 242.128,63.382C242.629,63.451 243.071,63.585 243.646,63.558L239.384,65.326C235.653,67.208 245.46,63.995 246.448,63.558C246.965,63.33 247.45,63.024 247.966,62.792C251.937,61.71 256.081,59.945 258.125,59.257L252.871,60.436L252.462,60.554C255.21,59.221 258.024,58.011 260.636,56.43ZM256.724,62.498L240.084,66.74C245.28,68.487 252.591,64.197 256.724,62.498ZM120.86,25.205C127.789,21.772 157.444,62.563 155.308,65.738C151.529,71.355 113.415,86.575 112.278,84.885C110.422,82.127 109.78,30.695 120.86,25.205ZM118.076,68.067C119.075,66.211 120.057,64.374 121.036,62.498C121.59,61.435 129.606,46.728 128.275,47.534C128.085,47.649 127.727,48.055 127.108,48.889L117.979,68.165C118.011,68.132 118.044,68.099 118.076,68.067ZM117.979,68.165C116.744,69.408 115.688,70.698 115.022,72.042L117.065,69.98C116.746,70.57 116.453,71.159 116.131,71.747C115.581,72.753 114.852,73.392 116.131,72.101L117.182,69.862L120.043,66.975L116.482,74.281C117.093,73.355 117.585,72.253 118.175,71.276L117.073,73.692C118.574,70.919 122.098,66.353 124.364,62.616L125.298,61.673C125.076,61.897 124.724,62.152 124.48,62.38C125.954,59.904 126.863,57.811 125.823,57.137C126.471,55.824 127.184,54.45 127.808,53.189C128.569,51.655 128.836,51.023 128.684,51.01C128.533,50.997 127.971,51.611 127.108,52.482L125.006,56.783C124.98,56.783 124.974,56.783 124.947,56.783L123.838,59.199L120.627,65.738C119.742,66.496 118.873,67.272 118.076,68.067C117.934,68.331 117.792,68.596 117.649,68.861L117.979,68.165ZM121.036,34.572L113.27,44.941C112.336,46.827 116.578,42.345 117.883,40.7C119.434,38.743 119.982,36.7 121.036,34.572ZM124.597,42.82L114.672,62.144C114.091,63.316 116.259,59.509 117.474,57.372L111.869,67.859C117.246,59.721 121.655,53.48 124.247,44.588L122.32,48.182C123.15,46.414 123.996,44.641 124.597,42.82ZM123.254,43.881C123.173,43.836 122.903,44.029 122.495,44.234L118.817,51.127C116.76,53.042 114.444,54.925 113.913,57.608L118.35,52.011L112.57,62.851C116.312,59.076 121.017,48.53 122.846,44.941C123.224,44.198 123.336,43.925 123.254,43.881ZM126.349,60.672L116.482,75.695C119.986,72.158 126.349,65.826 126.349,60.672ZM128.159,61.379L120.393,72.572L113.562,79.053C114.731,78.463 116.724,76.778 118.642,75.106L118.233,75.695C118.692,75.232 118.93,74.988 119.342,74.575C119.819,74.144 119.994,73.842 120.452,73.397C123.509,70.324 125.74,68.032 128.859,63.205C129.339,62.462 129.058,61.379 128.159,61.379ZM336.246,136.259C338.866,136.326 341.498,136.533 343.952,136.436C353.094,136.072 362.183,137.153 371.335,138.321C374.305,138.7 384.091,140.671 384.355,144.389C384.68,148.954 379.336,154.72 376.473,157.704C372.752,161.582 369.537,166.276 366.256,170.488C365.716,171.182 365.047,171.741 364.446,172.373C364.562,167.542 366.197,162.809 366.197,157.881L366.197,155.053C366.197,153.861 367.378,151.459 366.197,151.459C365.915,151.459 365.587,153.794 365.38,155.288L365.438,153.639C364.243,157.256 363.948,162.25 364.679,166.011L364.387,172.432C359.957,177.068 354.094,180.221 348.682,183.332C345.728,185.029 341.639,186.962 338.114,187.102C336.678,187.159 332.343,186.724 331.283,185.688C330.721,185.14 330.693,183.868 330.29,183.155C327.274,177.81 327.141,170.312 326.904,164.243C326.827,162.274 325.987,158.714 325.327,156.82C324.814,155.346 323.813,152.744 324.101,153.285C324.599,154.218 323.97,149.849 324.16,148.336C324.656,144.38 323.604,138.175 328.655,136.848C331.04,136.221 333.625,136.192 336.246,136.259ZM345.062,165.716C344.891,162.561 344.645,159.926 344.186,159L345.062,165.716ZM345.062,165.716C345.541,174.577 345.342,187.476 346.697,177.911L345.062,165.716ZM334.144,166.953C333.896,171.536 333.587,176.098 333.326,180.68C333.228,176.634 333.067,172.636 332.159,168.603C331.739,166.74 331.235,168.345 331.108,168.603L333.326,181.387C333.298,181.899 333.237,182.407 333.209,182.919C333.14,184.203 333.215,184.061 333.56,185.453L334.144,166.953ZM334.144,166.953C334.19,166.087 334.276,165.227 334.319,164.361C334.354,163.647 334.319,161.466 334.319,162.181L334.144,166.953ZM337.238,178.736C337.135,174.843 337.026,171.206 336.771,167.248L337.472,162.888C337.12,163.954 337.012,164.742 336.713,165.716C336.514,163.402 336.194,161.599 335.72,161.121C335.553,160.952 335.759,161.593 335.72,161.828C335.46,163.401 335.019,164.863 335.019,166.482L335.603,169.663C334.611,173.681 334.03,177.551 334.319,182.212L335.019,177.911L336.012,171.902L337.238,178.736ZM337.238,178.736C337.298,180.994 337.316,184.095 337.472,185.04C337.563,185.59 338.523,187.568 338.523,185.806L337.238,178.736ZM350.208,179.261L349.499,157.527C347.041,162.488 349.796,172.444 350.208,179.261ZM341.383,157.174C341.383,163.853 342.43,171.284 342.785,177.911C343.031,182.504 344.536,183.685 344.536,178.265L341.383,157.174ZM352.01,157.527C350.125,163.233 352.01,170.506 352.01,176.498L352.01,157.527ZM339.982,161.828L339.982,167.542C339.982,172.461 340.179,177.504 341.734,182.212L339.982,161.828ZM368.55,222.626C368.966,223.459 369.213,224.331 369.234,225.158C369.293,227.519 362.621,230.385 361.087,231.196C353.574,235.169 346.446,238.266 337.769,239.283C335.829,239.509 331.125,239.845 329.349,238.304C328.432,237.508 327.988,236.593 327.75,235.406C327.328,233.307 328.382,230.562 328.765,228.686C329.493,225.124 329.198,220.776 329.609,217.061C329.874,214.654 330.376,212.406 330.848,210.096C330.974,209.48 330.57,206.157 331.28,207.354C331.505,207.734 331.449,202.666 331.626,202.159C332.468,199.735 334.184,199.774 336.299,199.613C338.202,199.468 341.598,202.155 343.462,203.105C350.462,206.672 356.776,210.911 363.155,216.446C364.69,217.778 367.302,220.13 368.55,222.626ZM354.705,220.557L344.867,206.465C346.894,212.437 350.895,216.134 354.705,220.557ZM345.455,216.871L337.723,203.417C338.082,208.316 343.102,213.676 345.455,216.871ZM350.665,218.882L343.959,209.876L340.191,202.919C340.174,203.291 340.419,203.797 340.501,204.223L340.16,203.606C340.26,203.9 340.457,204.138 340.57,204.426C340.671,204.876 340.712,205.289 340.899,205.781L338.463,202.49C336.106,199.685 341.14,207.452 341.723,208.209C342.028,208.605 342.375,208.955 342.682,209.35C344.574,212.545 346.973,215.734 348.034,217.349L345.701,213.064L345.502,212.737C347.201,214.815 348.839,216.978 350.665,218.882ZM67.72,77.05C67.871,76.268 68.152,75.544 68.558,74.966C69.717,73.316 75.532,74.736 76.947,74.958C83.873,76.045 90.103,77.538 96.291,81.245C97.673,82.074 100.919,84.232 101.297,86.19C101.493,87.202 101.319,88.055 100.872,88.99C100.083,90.644 98.002,91.993 96.8,93.086C94.516,95.16 92.503,98.293 90.35,100.634C88.955,102.151 87.486,103.439 86.006,104.784C85.611,105.143 84.189,107.628 84.333,106.446C84.378,106.072 81.843,109.577 81.471,109.835C79.69,111.071 78.589,110.173 77.124,109.21C75.807,108.344 74.951,104.776 74.214,103.178C71.448,97.177 69.472,91.065 68.111,84.029C67.784,82.336 67.27,79.397 67.72,77.05ZM75.719,85.497L75.001,100.16C76.705,95.033 75.966,90.466 75.719,85.497ZM79.896,92.722L78.124,105.877C80.375,102.333 79.812,96.108 79.896,92.722ZM77.511,88.697L77.324,98.28L76.258,104.967C76.457,104.72 76.555,104.248 76.716,103.914L76.626,104.511C76.71,104.258 76.702,103.995 76.774,103.74C76.937,103.38 77.12,103.076 77.247,102.643L77.17,106.138C77.287,109.259 77.937,101.374 77.94,100.559C77.942,100.133 77.893,99.716 77.893,99.29C78.277,96.137 78.327,92.731 78.452,91.084L77.804,95.209L77.768,95.534C77.711,93.246 77.738,90.93 77.511,88.697ZM326.135,95.061C330.984,99.811 316.117,136.492 313.263,135.652C308.215,134.165 283.893,106.959 284.544,105.516C285.606,103.159 318.38,87.466 326.135,95.061ZM297.455,105.328C296.185,104.667 294.954,104.17 293.837,104.012L295.941,105.103C295.44,105.011 294.95,104.942 294.449,104.847C293.594,104.686 292.906,104.268 294.222,104.951L296.061,105.166L299.007,106.694L292.957,105.886C293.784,106.121 294.68,106.205 295.532,106.408L293.56,106.204C295.914,106.635 300.19,108.219 303.455,109.002L304.416,109.5C304.188,109.382 303.89,109.164 303.651,109.029C305.803,109.524 307.493,109.663 307.529,108.6C308.619,108.752 309.774,108.94 310.821,109.087C312.097,109.268 312.605,109.303 312.555,109.173C312.506,109.044 311.897,108.757 311.008,108.297L307.444,107.816C307.435,107.795 307.432,107.79 307.422,107.767L305.448,107.557L300.024,106.815C299.199,106.302 298.37,105.809 297.555,105.38C297.331,105.34 297.107,105.299 296.882,105.259L297.455,105.328ZM297.555,105.38C299.128,105.663 300.682,105.939 302.26,106.2C303.154,106.347 315.656,108.678 314.631,107.808C314.484,107.684 314.086,107.506 313.315,107.237L297.455,105.328C297.488,105.345 297.522,105.362 297.555,105.38ZM316.252,103.361L300.058,100.804C299.084,100.666 302.355,101.346 304.191,101.727L295.319,100.157C302.596,102.23 308.286,104.056 314.984,103.591L311.941,103.048C313.393,103.217 314.854,103.398 316.252,103.361ZM315.059,102.557C315.056,102.476 314.83,102.308 314.542,102.03L308.713,101.003C306.698,99.857 304.605,98.486 302.68,98.835L307.967,100.875L298.801,99.264C302.654,101.263 311.22,102.067 314.222,102.53C314.844,102.625 315.062,102.638 315.059,102.557ZM305.461,110.079L292.049,106.303C295.657,108.174 302.152,111.598 305.461,110.079ZM320.188,97.969L310.567,94.567C309,94.346 313.496,96.553 315.051,97.153C316.899,97.866 318.42,97.719 320.188,97.969ZM305.698,111.793L295.547,108.634L288.779,104.864C289.603,105.663 291.446,106.823 293.252,107.925L292.718,107.759C293.19,108.004 293.438,108.13 293.86,108.351C294.319,108.62 294.579,108.677 295.04,108.926C298.18,110.563 300.503,111.742 304.793,112.913C305.453,113.093 306.041,112.54 305.698,111.793Z" style="fill:#ef9f46;stroke:#454545;stroke-width:2.9px;"/>
            </g>
            <g transform="matrix(1,0,0,1,6.01305,90.9653)">
                <path d="M76.811,157.983C94.227,118.657 132.509,90.154 178.091,85.677C181.493,85.343 184.936,85.143 188.414,85.082C189.171,85.069 189.93,85.062 190.69,85.062C197.724,85.062 204.622,85.632 211.336,86.727C258.034,94.344 295.871,127.366 309.345,170.703C312.791,181.784 314.643,193.541 314.643,205.719C314.643,205.98 314.642,206.242 314.64,206.503C314.62,209.697 314.471,212.861 314.2,215.991L107.515,215.991C94.778,220.5 95.989,215.991 95.989,215.991L68.323,215.991C68.714,218.881 66.737,209.179 66.737,205.719C66.737,203.968 66.775,202.225 66.851,200.492C67.51,185.444 70.998,171.111 76.811,157.983ZM107.549,166.659L125.94,159.059C116.344,160.442 106.938,163.236 98.032,167.13C91.436,170.014 85.197,173.71 78.998,177.381C78.614,177.609 78.73,178.251 78.589,178.677L97.681,170.783L93.419,171.431C97.874,169.183 102.658,167.764 107.549,166.659ZM97.681,170.783L162.723,160.708C148.981,160.708 134.752,160.386 121.328,163.713C116.8,164.835 112.126,165.624 107.549,166.659L97.681,170.783ZM125.531,199.121C113.898,201.077 102.484,204.247 91.317,208.076C85.946,209.917 80.09,211.746 76.079,215.794L125.531,199.121ZM129.881,135.164C118.587,136.788 108.183,137.538 97.623,141.09L129.881,135.164ZM154.316,139.381C146.846,139.808 139.341,139.938 131.895,140.677C122.135,141.646 112.38,142.902 102.703,144.507C102.007,144.622 101.573,145.376 101.009,145.803L126.074,143.393C122.535,144.351 103.558,146.857 99.316,148.808C94.3,151.115 88.42,153.134 85.362,157.763L133.175,146.105C131.649,146.105 96.163,153.02 94.766,153.056L154.316,139.381ZM121.328,150.516C111.618,151.605 104.096,154.314 95.521,159.059C92.039,160.986 88.54,162.877 84.953,164.597C82.9,165.581 77.982,165.963 78.998,168.014L121.328,150.516ZM158.928,149.75C138.291,150.334 118.845,153.708 98.032,160.708L180.064,150.045C172.827,149.639 165.807,149.556 158.928,149.75ZM153.373,120.81C139.517,120.81 111.855,126.542 99.402,132.825L153.373,120.81ZM142.443,171.655C124.723,176.125 104.514,178.973 87.812,186.968C82.938,189.301 78.035,193.664 73.21,196.099L142.443,171.655ZM151.513,109.924C145.557,110.021 128.864,113.617 123.251,115.033L171.634,112.194C165.978,111.242 157.469,109.827 151.513,109.924ZM95.112,192.287C90.57,194.359 86.025,196.459 81.567,198.708C79.574,199.714 77.075,200.526 76.079,202.538L113.212,189.518L94.237,193.583C94.526,193.145 94.868,192.78 95.112,192.287ZM113.212,189.518L153.848,180.798C141.979,180.798 130.003,181.056 118.35,183.332C114.524,184.079 111.486,185.041 107.802,186.374C104.027,187.74 99.609,189.486 95.93,191.049C95.474,191.243 95.344,191.819 95.112,192.287C95.683,192.026 96.234,191.72 96.806,191.462C109.093,185.922 122.523,183.837 135.69,181.623L113.212,189.518ZM150.31,107.55C148.403,107.661 146.49,107.886 144.565,108.274L150.31,107.55ZM168.27,185.924C155.374,186.965 142.5,188.599 129.794,191.049C116.895,193.536 104.11,196.544 91.317,199.533C90.703,199.677 76.654,206.056 76.091,206.34L168.27,185.924ZM165.837,105.595L170.743,104.977C169.404,104.892 167.678,105.183 165.837,105.595Z" style="fill:#ef9f46;fill-rule:nonzero;stroke:#454545;stroke-width:5px;"/>
            </g>
            <g transform="matrix(1.14053,0,0,0.957331,-31.3479,8.908)">
                <path d="M160.895,169.608L151.044,169.608C149.487,169.608 148.051,168.77 147.286,167.414C146.521,166.059 146.544,164.397 147.348,163.064L193.987,85.715L240.443,162.76C241.284,164.155 241.309,165.895 240.508,167.313C239.707,168.731 238.204,169.608 236.576,169.608L228.248,169.608L228.248,294.006C228.248,299.692 223.638,304.302 217.952,304.302L170.326,304.302C165.117,304.302 160.895,300.08 160.895,294.871L160.895,169.608ZM174.665,164.132L174.665,285.486C174.665,290.695 178.887,294.917 184.096,294.917L205.951,294.917C211.637,294.917 216.247,290.307 216.247,284.621L216.247,164.132L222.658,164.132C224.33,164.132 225.865,163.209 226.648,161.732C227.431,160.254 227.334,158.465 226.396,157.082L193.987,109.294L163.089,157.487C162.238,158.815 162.179,160.503 162.936,161.887C163.693,163.271 165.145,164.132 166.723,164.132L174.665,164.132Z" style="fill:#e80000;stroke:#3c3c3c;stroke-width:3.59px;stroke-linecap:round;stroke-miterlimit:1.5;"/>
            </g>
        </g>
    </g>
</svg>
