<?xml version="1.0" encoding="UTF-8" standalone="no"?>
<!DOCTYPE svg PUBLIC "-//W3C//DTD SVG 1.1//EN" "http://www.w3.org/Graphics/SVG/1.1/DTD/svg11.dtd">
<!-- Created with Vectornator (http://vectornator.io/) -->
<svg height="100%" stroke-miterlimit="10" style="fill-rule:nonzero;clip-rule:evenodd;stroke-linecap:round;stroke-linejoin:round;" version="1.1" viewBox="0 0 400 400" width="100%" xml:space="preserve" xmlns="http://www.w3.org/2000/svg" xmlns:vectornator="http://vectornator.io" xmlns:xlink="http://www.w3.org/1999/xlink">
<defs/>
<g id="Слой-2" vectornator:layerName="Слой 2">
<g opacity="1" vectornator:layerName="Группа 3">
<path d="M52.5098 185.223C49.5374 192.978 52.5114 206.367 58.7435 210.851C64.9756 215.335 73.4689 218.189 79.541 219.427C86.3178 220.809 94.0713 219.61 101.099 217.013C108.127 214.416 114.429 210.421 118.302 206.209C119.69 204.7 121.692 200.964 123.491 197.606C125.29 194.247 126.887 191.266 127.464 191.266C128.051 191.266 128.051 192.559 127.904 193.996C127.758 195.432 127.464 197.013 127.464 197.588C127.464 199.973 127.393 202.366 127.709 204.691C128.026 207.015 128.731 209.271 130.283 211.381C133.724 216.058 139.767 220.648 146.685 223.784C153.603 226.921 161.396 228.606 168.34 227.473C176.928 226.073 183.921 222.017 189.499 216.82C195.076 211.622 199.239 205.282 202.168 199.312C202.594 198.443 202.894 196.473 203.291 194.557C203.687 192.64 204.178 190.775 204.987 190.116C205.319 189.845 205.319 190.228 205.236 190.775C205.153 191.322 204.987 192.032 204.987 192.415C204.987 193.508 205.09 194.438 205.319 195.348C205.547 196.258 205.899 197.149 206.396 198.162C207.595 200.607 208.711 203.23 210.202 205.653C211.694 208.077 213.56 210.303 216.263 211.956C223.064 216.116 231.446 218.608 240.192 219.82C248.937 221.032 258.046 220.964 266.3 220.002C273.963 219.109 281.289 215.78 287.53 211.321C293.77 206.863 298.925 201.274 302.242 195.863C303.363 194.035 304.068 192.161 304.493 190.245C304.917 188.328 305.061 186.369 305.061 184.369L305.061 181.495L305.061 178.622C305.061 178.622 307.549 179.997 310.319 181.51C313.089 183.022 316.141 184.673 317.267 185.223C344.66 198.603 364.49 188.243 373.23 173.154C381.97 158.064 379.62 138.245 362.653 132.706C357.893 131.152 357.988 129.712 359.338 128.654C360.689 127.597 363.294 126.921 363.555 126.896C374.055 125.906 382.831 119.738 388.596 111.235C394.362 102.732 397.118 91.8942 395.579 81.5621C394.531 74.525 390.63 67.7328 384.61 62.6208C378.59 57.5088 370.45 54.077 360.924 53.7608C350.849 53.4263 338.866 55.7802 329.401 62.3799C319.937 68.9796 313.847 83.318 313.847 99.9669C313.847 84.7127 300.534 74.0332 284.166 69.6682C267.797 65.3033 252.226 75.636 240.002 96.8175C242.492 77.6743 228.348 53.3462 211.567 52.4952C194.786 51.6442 170.655 62.3943 172.873 77.081C159.336 30.5239 127.641-3.35772 62.258 19.4562C21.8341 33.5613-7.52322 96.2212 48.3626 119.001C20.1739 117.37 5.7402 134.832 4.10449 148.652C2.46878 162.472 20.142 184.484 44.7722 176.355C54.8267 173.036 57.3916 172.75 56.3038 175.096C55.216 177.442 52.5018 185.223 52.5018 185.223" fill="#85d4ff" fill-rule="nonzero" opacity="1" stroke="#4b4b4b" stroke-linecap="butt" stroke-linejoin="round" stroke-width="2.00401" vectornator:layerName="Кривая 4"/>
<path d="M27.9176 49.7242C29.8332 46.5999 35.3436 45.3368 38.7874 43.3926C49.6214 37.2759 61.2908 31.6132 73.3377 27.2468M19.377 65.2368C25.1244 55.8628 47.2723 49.9052 57.8095 45.6086C62.5607 43.6713 68.2801 40.8599 73.7259 40.8599M17.436 75.3674C24.6007 63.6818 48.4636 57.0973 62.0797 52.5735C67.2521 50.855 72.4419 48.5796 77.9962 47.8247M20.5417 82.6488C19.2103 82.6488 23.4891 81.0685 25.5883 79.1664C28.7063 76.3412 31.7591 73.701 35.6817 71.5684C43.8627 67.1207 60.0377 65.1144 69.8438 63.3373M23.2591 94.0458C21.316 90.8766 30.5227 85.0791 32.1878 83.9152C41.3225 77.53 54.4125 74.919 65.5736 71.885M25.2001 100.694C23.9296 98.6218 27.8412 96.577 29.4704 94.679C33.5223 89.9585 38.2387 85.2641 45.3869 83.5986C48.5819 82.8541 51.8862 83.5203 55.092 82.6488M32.5761 106.076C36.0593 97.5542 48.3897 88.6057 58.9741 86.4478M39.5638 108.609C46.2467 103.159 50.5823 95.0346 60.5269 93.4126M45.7751 108.609C47.1394 105.271 51.4882 103.362 55.4802 102.277M6.17803 144.382C12.9737 133.299 19.161 128.911 34.5171 126.021C37.2702 125.503 39.7738 124.121 42.6694 124.121M5.78983 153.563C5.55782 153.942 5.01341 154.755 5.01341 155.146C5.01341 155.915 5.43995 153.644 5.78983 152.93C6.11221 152.273 6.56624 151.664 6.95444 151.031C8.52406 148.471 10.0959 146.627 12.3893 144.382C17.5968 139.286 27.395 132.986 36.0699 132.986M12.3893 158.629C9.84228 158.629 14.3649 153.205 15.1068 152.297C19.3563 147.099 25.1299 144.253 31.7996 141.533M14.3304 168.126C13.3314 166.497 14.8927 164.499 15.495 162.744C17.3236 157.418 20.8046 152.164 27.9176 150.714M22.0945 171.292C22.0945 164.459 25.0123 158.836 31.7996 155.146M53.9274 187.438C53.9274 178.337 71.2571 169.257 79.1608 164.96M53.151 196.935C59.8691 185.978 68.4499 176.209 83.0429 172.242M55.8684 204.533C55.8684 201.829 60.0344 196.265 61.3033 194.403C64.8074 189.259 70.0087 185.648 76.0551 182.689M62.0797 207.382C61.9503 207.066 61.5168 206.734 61.6915 206.433C63.7686 202.846 66.217 199.406 68.6792 195.985C70.9811 192.787 72.4216 191.639 75.6669 189.654M66.7382 210.232C65.1149 210.894 68.3853 203.667 69.0674 202.634C71.8274 198.454 76.4244 196.318 80.3254 193.136M72.5613 211.498C75.4245 204.493 76.3459 202.397 82.2664 197.568M129.628 201.684C132.165 199.615 132.681 196.387 134.286 193.769C138.113 187.528 143.35 180.049 151.755 177.307M135.062 211.815C135.062 209.11 137.259 206.706 138.556 204.217C141.007 199.514 143.308 194.218 147.485 190.287C150.414 187.531 154.073 185.548 157.19 183.006M140.109 217.513C139.98 217.302 139.627 217.103 139.721 216.88C141.08 213.655 142.632 210.48 144.379 207.382C147.339 202.136 149.899 199.258 155.249 195.985M143.991 218.463C148.121 211.727 152.079 206.538 157.967 201.051M152.92 217.83C150.907 214.546 159.548 207.359 162.625 204.85M209.598 202.634C209.598 195.098 217.989 185.343 223.962 180.473M212.704 206.433C212.704 196.316 229.962 185.935 237.161 178.89M217.75 211.815C217.75 209.982 221.948 204.076 222.797 202.634C227.269 195.036 233.654 187.946 241.819 182.689C245.517 180.308 249.981 179.096 253.854 176.991M223.574 211.815C229.87 196.41 247.816 186.101 264.723 179.207M232.114 215.297C237.088 203.128 252.523 190.98 266.664 185.855M240.266 217.197C240.266 213.565 245.16 211.108 248.03 208.332C255.643 200.969 263.602 195.809 274.04 191.553M256.959 213.714C260.566 207.831 267.108 204.499 273.264 200.734M374.974 58.9051C377.738 60.0322 378.078 62.3812 378.468 64.6036C379.971 73.1871 372.646 79.5616 364.492 84.5483M383.514 65.8699C387.684 65.8699 384.837 74.5352 384.291 76.3172C382.307 82.7883 375.997 90.1174 367.598 91.8297M390.502 75.3674C390.502 77.9001 391.092 80.4789 390.502 82.9654C388.873 89.8306 375.245 94.1174 369.151 97.8448M390.114 87.081C389.184 87.081 387.815 91.3265 386.62 92.4629C382.996 95.9107 374.822 100.061 369.151 100.061M388.949 94.9956C385.722 100.26 379.622 104.496 372.645 106.393M387.008 102.91C389.392 106.797 373.505 113.454 370.315 114.94M310.143 179.84C310.143 176.51 310.117 172.547 310.92 169.709C312.034 165.773 314.284 162.111 315.967 158.312M314.802 181.106C316.943 175.868 318.327 172.439 321.79 165.91C323.039 163.555 325.84 157.06 329.942 154.83M322.954 185.538C326.239 182.859 324.873 178.121 326.06 174.458C327.232 170.84 329.078 166.802 333.048 164.644M328.389 187.121C326.468 185.554 327.747 182.626 328.389 180.473C329.759 175.88 331.956 174.121 334.989 170.659M332.659 187.438C330.861 184.505 338.862 175.731 341.976 173.192M334.6 187.754C335.696 182.393 341.764 178.974 346.635 175.724M340.424 187.121C341.294 183.573 345.246 181.672 348.964 180.156M107.37 27.0936C110.023 27.0936 110.735 25.0233 113.589 24.5577C124.732 22.7404 138.81 29.2907 147.795 33.6869M121.674 34.194C124.131 35.1956 126.572 35.0183 129.137 35.7156C135.155 37.3513 141.166 40.3957 146.551 43.3232M131.003 43.3232C140.374 47.1443 163.965 47.8296 163.965 60.0599M140.954 52.9594C145.039 59.622 158.485 59.9508 163.965 66.6531M145.929 62.0886C149.567 68.0226 160.25 69.2028 165.83 73.7535" fill="#85d4ff" fill-rule="nonzero" opacity="1" stroke="#4b4b4b" stroke-linecap="butt" stroke-linejoin="round" stroke-width="2.00401" vectornator:layerName="Кривая 5"/>
</g>
<path d="M63.2188 201.156C61.2879 201.237 59.301 201.913 57.4688 202.938C55.0257 204.304 52.8922 206.299 51.6875 208.312C51.1441 209.221 50.8857 210.192 50.7812 211.188C50.6768 212.183 50.7107 213.198 50.7188 214.219C50.7207 214.465 50.8493 215.136 50.9062 215.75C50.9632 216.364 50.9583 216.904 50.75 216.906C50.5454 216.908 49.9621 215.681 49.3125 214.25C48.6629 212.819 47.9659 211.203 47.4688 210.562C46.0806 208.774 43.8138 207.087 41.3125 206C38.8112 204.913 36.0551 204.447 33.6562 205.062C31.5068 205.614 28.5077 206.841 26.3125 208.781C24.1174 210.722 23.107 216.473 24.1875 219.781C24.1875 219.781 25.1687 223.094 25.5625 224.094C25.9563 225.094 25.046 224.978 21.4688 223.594C12.7055 220.202 6.49805 229.686 7.125 235.594C7.75192 241.501 12.9452 248.922 22.9375 248.125C3.19337 258.069 13.8337 284.794 28.2188 290.688C51.4857 300.22 62.6067 285.594 67.25 265.625C66.5133 271.917 75.1135 276.454 81.0625 276.031C87.0115 275.608 91.9478 265.12 91 256.938C95.4073 265.958 100.959 270.332 106.75 268.406C112.541 266.481 117.208 261.871 117.156 255.344C117.213 262.468 119.433 268.584 122.812 271.375C125.17 273.322 127.943 274.317 130.625 274.719C130.75 278.074 135.255 282.719 141.531 280.906C144.257 280.119 144.956 280.056 144.656 280.625C144.356 281.194 143.594 283.062 143.594 283.062L143.625 283.062C142.802 284.943 143.546 288.209 145.219 289.312C146.891 290.416 149.175 291.124 150.812 291.438C152.64 291.787 154.751 291.524 156.656 290.906C158.562 290.288 160.255 289.33 161.312 288.312C161.691 287.948 162.255 287.032 162.75 286.219C163.245 285.405 163.688 284.686 163.844 284.688C164.002 284.689 164.012 285.026 163.969 285.375C163.925 285.724 163.814 286.079 163.812 286.219C163.806 286.799 163.795 287.403 163.875 287.969C163.955 288.535 164.148 289.077 164.562 289.594C165.48 290.739 167.107 291.879 168.969 292.656C170.83 293.433 172.902 293.855 174.781 293.594C177.106 293.27 179.011 292.285 180.531 291.031C182.052 289.778 183.193 288.228 184 286.781C184.117 286.571 184.232 286.09 184.344 285.625C184.456 285.159 184.561 284.721 184.781 284.562C184.872 284.497 184.899 284.586 184.875 284.719C184.851 284.852 184.782 285.032 184.781 285.125C184.778 285.391 184.816 285.622 184.875 285.844C184.934 286.066 185.025 286.284 185.156 286.531C185.474 287.129 185.76 287.751 186.156 288.344C186.553 288.936 187.055 289.499 187.781 289.906C189.608 290.932 191.859 291.563 194.219 291.875C196.579 292.187 199.048 292.186 201.281 291.969C203.354 291.767 205.333 290.978 207.031 289.906C208.729 288.834 210.152 287.466 211.062 286.156C211.37 285.714 211.568 285.278 211.688 284.812C211.807 284.347 211.839 283.862 211.844 283.375L211.844 282.656L211.844 281.969C211.844 281.969 212.537 282.314 213.281 282.688C214.026 283.061 214.853 283.458 215.156 283.594C222.524 286.904 227.912 284.435 230.312 280.781C232.713 277.128 232.102 272.319 227.531 270.938C226.249 270.55 226.289 270.161 226.656 269.906C227.024 269.652 227.711 269.505 227.781 269.5C230.621 269.28 233.014 267.807 234.594 265.75C236.174 263.693 236.983 261.048 236.594 258.531C236.329 256.817 235.27 255.162 233.656 253.906C232.043 252.651 229.855 251.783 227.281 251.688C224.56 251.586 221.325 252.163 218.75 253.75C216.175 255.337 214.48 258.793 214.438 262.844C214.477 259.133 210.912 256.532 206.5 255.438C202.088 254.343 197.858 256.809 194.5 261.938C195.222 257.285 191.47 251.334 186.938 251.094C182.405 250.853 175.845 253.423 176.406 257C172.869 245.646 164.383 237.362 146.656 242.781C144.354 243.485 142.237 244.762 140.375 246.312C138.719 244.865 136.819 243.878 134.688 243.656C134.595 243.647 133.67 243.354 133.188 242.906C132.705 242.458 132.692 241.838 134.375 241.156C140.374 238.726 141.12 230.239 137.969 223.812C134.818 217.386 127.764 213.022 118.094 218.844C117.696 219.083 116.634 219.812 115.656 220.469C114.679 221.126 113.781 221.719 113.781 221.719L113.781 220.469L113.75 219.25C113.743 218.394 113.688 217.569 113.531 216.75C113.374 215.931 113.123 215.122 112.719 214.344C111.524 212.04 109.697 209.667 107.469 207.781C105.24 205.895 102.596 204.48 99.875 204.125C96.9443 203.742 93.7539 203.763 90.6562 204.312C87.5586 204.862 84.5857 205.946 82.1875 207.75C81.2347 208.467 80.5832 209.426 80.0625 210.469C79.5418 211.511 79.1358 212.668 78.7188 213.719C78.5459 214.154 78.4216 214.516 78.3438 214.906C78.2659 215.297 78.2463 215.689 78.25 216.156C78.2513 216.32 78.3124 216.641 78.3438 216.875C78.3751 217.109 78.3687 217.24 78.25 217.125C77.961 216.846 77.772 216.069 77.625 215.25C77.478 214.431 77.3729 213.589 77.2188 213.219C76.1599 210.674 74.6834 207.986 72.6875 205.781C70.6916 203.577 68.1758 201.85 65.125 201.281C64.5084 201.166 63.8624 201.129 63.2188 201.156ZM338.469 201.219C326.358 202.218 319.798 213.913 316.594 228.531C317.272 222.39 309.38 217.962 303.906 218.375C298.433 218.788 293.878 229.013 294.75 237C290.695 228.195 285.578 223.933 280.25 225.812C274.922 227.692 270.609 232.191 270.656 238.562C270.604 231.609 268.578 225.661 265.469 222.938C263.299 221.037 260.749 220.048 258.281 219.656C258.166 216.382 254.025 211.855 248.25 213.625C245.742 214.393 245.099 214.43 245.375 213.875C245.651 213.32 246.344 211.5 246.344 211.5C247.101 209.664 246.383 206.452 244.844 205.375C243.305 204.298 241.194 203.618 239.688 203.312C238.006 202.971 236.097 203.241 234.344 203.844C232.59 204.447 231.004 205.382 230.031 206.375C229.683 206.731 229.174 207.612 228.719 208.406C228.263 209.2 227.862 209.907 227.719 209.906C227.573 209.905 227.554 209.591 227.594 209.25C227.634 208.909 227.749 208.543 227.75 208.406C227.756 207.84 227.761 207.271 227.688 206.719C227.614 206.166 227.443 205.629 227.062 205.125C226.218 204.008 224.713 202.915 223 202.156C221.287 201.398 219.354 200.995 217.625 201.25C215.486 201.566 213.743 202.495 212.344 203.719C210.945 204.942 209.898 206.463 209.156 207.875C209.048 208.081 208.978 208.546 208.875 209C208.772 209.454 208.64 209.876 208.438 210.031C208.354 210.095 208.353 210.005 208.375 209.875C208.397 209.745 208.437 209.591 208.438 209.5C208.44 209.241 208.43 208.998 208.375 208.781C208.32 208.565 208.215 208.367 208.094 208.125C207.801 207.542 207.553 206.922 207.188 206.344C206.823 205.765 206.355 205.21 205.688 204.812C204.006 203.811 201.922 203.211 199.75 202.906C197.578 202.601 195.336 202.6 193.281 202.812C191.374 203.01 189.531 203.797 187.969 204.844C186.407 205.89 185.119 207.19 184.281 208.469C183.998 208.901 183.829 209.358 183.719 209.812C183.609 210.267 183.536 210.713 183.531 211.188L183.531 211.906L183.531 212.562C183.531 212.562 182.904 212.24 182.219 211.875C181.534 211.51 180.779 211.102 180.5 210.969C173.721 207.738 168.771 210.153 166.562 213.719C164.354 217.285 164.92 221.995 169.125 223.344C170.305 223.722 170.245 224.095 169.906 224.344C169.568 224.592 168.94 224.745 168.875 224.75C166.262 224.965 164.079 226.398 162.625 228.406C161.171 230.414 160.423 232.981 160.781 235.438C161.025 237.111 162.015 238.743 163.5 239.969C164.985 241.194 166.976 242.031 169.344 242.125C171.848 242.224 174.85 241.674 177.219 240.125C179.588 238.576 181.117 235.172 181.156 231.219C181.12 234.841 184.409 237.4 188.469 238.469C192.528 239.537 196.442 237.131 199.531 232.125C198.867 236.666 202.298 242.484 206.469 242.719C210.639 242.954 216.673 240.429 216.156 236.938C219.411 248.019 227.221 256.134 243.531 250.844C245.65 250.157 247.6 248.888 249.312 247.375C250.836 248.788 252.57 249.753 254.531 249.969C254.617 249.978 255.462 250.282 255.906 250.719C256.35 251.156 256.392 251.741 254.844 252.406C249.324 254.778 248.632 263.04 251.531 269.312C254.43 275.585 260.915 279.87 269.812 274.188C270.178 273.954 271.163 273.235 272.062 272.594C272.962 271.952 273.781 271.375 273.781 271.375L273.781 272.594L273.812 273.781C273.819 274.617 273.856 275.451 274 276.25C274.145 277.049 274.378 277.803 274.75 278.562C275.85 280.811 277.543 283.128 279.594 284.969C281.644 286.809 284.059 288.185 286.562 288.531C289.259 288.905 292.212 288.911 295.062 288.375C297.913 287.839 300.668 286.761 302.875 285C303.752 284.3 304.333 283.361 304.812 282.344C305.292 281.326 305.647 280.213 306.031 279.188C306.19 278.763 306.303 278.412 306.375 278.031C306.447 277.65 306.472 277.238 306.469 276.781C306.468 276.621 306.435 276.353 306.406 276.125C306.377 275.897 306.359 275.732 306.469 275.844C306.735 276.116 306.896 276.888 307.031 277.688C307.166 278.487 307.296 279.326 307.438 279.688C308.412 282.171 309.757 284.786 311.594 286.938C313.43 289.089 315.724 290.757 318.531 291.312C319.099 291.425 319.689 291.464 320.281 291.438C322.058 291.359 323.908 290.688 325.594 289.688C327.842 288.354 329.798 286.434 330.906 284.469C331.406 283.582 331.654 282.628 331.75 281.656C331.846 280.684 331.789 279.684 331.781 278.688C331.779 278.447 331.709 277.818 331.656 277.219C331.604 276.619 331.59 276.065 331.781 276.062C331.97 276.061 332.496 277.291 333.094 278.688C333.691 280.084 334.355 281.625 334.812 282.25C336.09 283.996 338.167 285.658 340.469 286.719C342.77 287.779 345.293 288.257 347.5 287.656C349.478 287.118 352.23 285.894 354.25 284C356.27 282.106 357.213 276.51 356.219 273.281C356.219 273.281 355.3 270.039 354.938 269.062C354.575 268.086 355.427 268.18 358.719 269.531C366.782 272.842 372.483 263.61 371.906 257.844C371.329 252.077 366.538 244.815 357.344 245.594C375.511 235.888 365.767 209.815 352.531 204.062C347.179 201.736 342.506 200.886 338.469 201.219ZM57.0312 293.594C55.0456 293.908 53.429 294.878 52.125 296.125C50.821 297.372 49.8517 298.9 49.1562 300.344C49.055 300.554 48.9728 301.035 48.875 301.5C48.7772 301.965 48.6574 302.405 48.4688 302.562C48.3912 302.627 48.3853 302.539 48.4062 302.406C48.4272 302.274 48.4675 302.093 48.4688 302C48.4724 301.734 48.4558 301.503 48.4062 301.281C48.3567 301.059 48.2675 300.842 48.1562 300.594C47.8878 299.995 47.6484 299.376 47.3125 298.781C46.9766 298.187 46.5552 297.629 45.9375 297.219C44.3826 296.186 42.4507 295.541 40.4375 295.219C38.4243 294.897 36.3446 294.917 34.4375 295.125C32.667 295.318 30.9544 296.091 29.5 297.156C28.0456 298.222 26.8459 299.569 26.0625 300.875C25.7977 301.316 25.6356 301.754 25.5312 302.219C25.4269 302.684 25.3817 303.17 25.375 303.656L25.3438 304.375L25.3438 305.062C25.3437 305.063 24.7588 304.72 24.125 304.344C23.4912 303.967 22.8205 303.544 22.5625 303.406C16.2887 300.067 11.6603 302.512 9.59375 306.156C7.52724 309.8 8.01108 314.631 11.9062 316.031C12.999 316.424 12.9713 316.778 12.6562 317.031C12.3412 317.284 11.7478 317.464 11.6875 317.469C9.26227 317.677 7.20218 319.137 5.84375 321.188C4.48532 323.238 3.80459 325.857 4.125 328.375C4.34323 330.09 5.25348 331.769 6.625 333.031C7.99652 334.293 9.83497 335.144 12.0312 335.25C14.354 335.362 17.1385 334.826 19.3438 333.25C21.549 331.674 23.0067 328.206 23.0625 324.156C23.0114 327.867 26.0514 330.513 29.8125 331.625C33.5736 332.737 37.2031 330.271 40.0938 325.156C39.4554 329.806 42.632 335.772 46.5 336.031C50.368 336.29 55.9622 333.736 55.5 330.156C58.4664 341.524 65.6546 349.848 80.8125 344.5C82.7814 343.805 84.591 342.543 86.1875 341C87.5944 342.454 89.2126 343.458 91.0312 343.688C91.1103 343.697 91.9027 343.988 92.3125 344.438C92.7223 344.887 92.7524 345.481 91.3125 346.156C86.1799 348.562 85.4967 357.061 88.1562 363.5C90.8157 369.939 96.8112 374.345 105.094 368.562C105.434 368.325 106.35 367.591 107.188 366.938C108.025 366.284 108.781 365.688 108.781 365.688L108.781 366.938L108.812 368.156C108.814 369.012 108.839 369.868 108.969 370.688C109.099 371.507 109.315 372.314 109.656 373.094C110.666 375.402 112.232 377.761 114.125 379.656C116.018 381.551 118.242 382.978 120.562 383.344C123.063 383.738 125.822 383.756 128.469 383.219C131.116 382.682 133.663 381.576 135.719 379.781C136.535 379.068 137.082 378.134 137.531 377.094C137.981 376.053 138.327 374.893 138.688 373.844C138.837 373.409 138.932 373.046 139 372.656C139.068 372.266 139.095 371.874 139.094 371.406C139.093 371.242 139.057 370.921 139.031 370.688C139.006 370.454 138.993 370.322 139.094 370.438C139.339 370.718 139.503 371.493 139.625 372.312C139.747 373.132 139.839 373.973 139.969 374.344C140.861 376.892 142.119 379.6 143.812 381.812C145.506 384.025 147.617 385.731 150.219 386.312C150.745 386.43 151.294 386.493 151.844 386.469C153.492 386.396 155.212 385.705 156.781 384.688C158.873 383.331 160.712 381.384 161.75 379.375C162.101 378.695 162.221 377.957 162.344 377.219C163.215 377.051 164.117 376.793 165.062 376.438C165.152 376.615 165.266 377.006 165.344 377.125C166.52 378.919 168.464 380.622 170.594 381.719C172.048 382.467 173.57 382.754 175.062 382.781C176.569 383.626 178.212 384.296 179.969 384.469C182.176 384.686 184.604 384.687 186.938 384.375C189.271 384.063 191.506 383.432 193.312 382.406C194.03 381.999 194.545 381.468 194.938 380.875C195.33 380.282 195.592 379.629 195.906 379.031C196.036 378.784 196.16 378.566 196.219 378.344C196.277 378.122 196.284 377.891 196.281 377.625C196.28 377.532 196.242 377.383 196.219 377.25C196.195 377.117 196.192 376.997 196.281 377.062C196.499 377.221 196.608 377.691 196.719 378.156C196.829 378.622 196.946 379.102 197.062 379.312C197.86 380.759 198.965 382.278 200.469 383.531C201.972 384.785 203.858 385.77 206.156 386.094C208.014 386.355 210.097 385.933 211.938 385.156C213.778 384.379 215.374 383.239 216.281 382.094C216.691 381.577 216.89 381.035 216.969 380.469C217.047 379.903 217.006 379.299 217 378.719C216.999 378.579 216.918 378.224 216.875 377.875C216.832 377.526 216.843 377.189 217 377.188C217.154 377.186 217.573 377.905 218.062 378.719C218.552 379.532 219.094 380.448 219.469 380.812C220.514 381.83 222.21 382.789 224.094 383.406C225.978 384.024 228.037 384.318 229.844 383.969C231.463 383.655 233.753 382.947 235.406 381.844C237.06 380.74 237.814 377.443 237 375.562C237 375.562 236.265 373.694 235.969 373.125C235.672 372.556 236.337 372.619 239.031 373.406C245.236 375.219 249.689 370.574 249.812 367.219C252.464 366.817 255.201 365.822 257.531 363.875C260.872 361.084 263.069 354.968 263.125 347.844C263.074 354.371 267.713 358.981 273.438 360.906C279.162 362.832 284.643 358.458 289 349.438C288.063 357.62 292.931 368.108 298.812 368.531C304.694 368.954 313.228 364.417 312.5 358.125C317.09 378.094 328.061 392.72 351.062 383.188C365.283 377.294 375.8 350.569 356.281 340.625C366.16 341.422 371.287 334.001 371.906 328.094C372.526 322.186 366.413 312.733 357.75 316.125C354.214 317.51 353.298 317.594 353.688 316.594C354.077 315.594 355.031 312.281 355.031 312.281C356.099 308.973 355.108 303.253 352.938 301.312C350.767 299.372 347.812 298.114 345.688 297.562C343.316 296.947 340.598 297.413 338.125 298.5C335.652 299.587 333.404 301.274 332.031 303.062C331.54 303.703 330.83 305.319 330.188 306.75C329.545 308.181 328.984 309.44 328.781 309.438C328.575 309.435 328.6 308.864 328.656 308.25C328.713 307.636 328.811 306.965 328.812 306.719C328.82 305.698 328.853 304.683 328.75 303.688C328.647 302.692 328.412 301.721 327.875 300.812C326.684 298.799 324.571 296.835 322.156 295.469C320.345 294.444 318.346 293.768 316.438 293.688C315.801 293.661 315.172 293.697 314.562 293.812C311.547 294.382 309.098 296.077 307.125 298.281C305.152 300.486 303.672 303.174 302.625 305.719C302.473 306.089 302.364 306.962 302.219 307.781C302.073 308.6 301.879 309.377 301.594 309.656C301.476 309.771 301.5 309.609 301.531 309.375C301.562 309.141 301.624 308.851 301.625 308.688C301.629 308.22 301.577 307.797 301.5 307.406C301.423 307.016 301.296 306.654 301.125 306.219C300.713 305.168 300.327 304.011 299.812 302.969C299.298 301.926 298.661 300.967 297.719 300.25C295.348 298.446 292.406 297.362 289.344 296.812C286.281 296.263 283.116 296.274 280.219 296.656C277.529 297.011 274.922 298.427 272.719 300.312C270.516 302.198 268.713 304.54 267.531 306.844C267.132 307.622 266.874 308.431 266.719 309.25C266.564 310.069 266.507 310.925 266.5 311.781L266.469 313L266.469 314.219C266.469 314.219 265.591 313.626 264.625 312.969C263.659 312.312 262.612 311.583 262.219 311.344C252.659 305.522 245.677 309.918 242.562 316.344C239.448 322.77 240.194 331.258 246.125 333.688C247.789 334.369 247.758 334.958 247.281 335.406C246.804 335.854 245.904 336.147 245.812 336.156C243.705 336.378 241.793 337.365 240.156 338.812C238.316 337.262 236.245 335.985 233.969 335.281C216.445 329.862 208.06 338.178 204.562 349.531C205.03 346.514 200.526 344.316 196.406 343.812C194.171 341.137 190.911 339.262 186.469 339.656C203.37 329.792 194.408 303.045 182.156 297.094C162.339 287.468 152.777 302.018 148.719 321.969C149.377 315.68 142.049 311.132 136.969 311.531C131.888 311.93 127.636 322.376 128.406 330.562C124.686 321.524 119.952 317.129 115 319.031C110.048 320.933 106.049 325.535 106.062 332.062C106.048 324.938 104.184 318.836 101.312 316.031C99.3091 314.075 96.9437 313.037 94.6562 312.625C94.5651 309.27 90.7416 304.618 85.375 306.406C83.0447 307.183 82.46 307.255 82.7188 306.688C82.9775 306.12 83.625 304.25 83.625 304.25C84.3366 302.373 83.7038 299.079 82.2812 297.969C80.8587 296.859 78.8965 296.132 77.5 295.812C75.9415 295.455 74.161 295.734 72.5312 296.344C70.9015 296.954 69.4389 297.925 68.5312 298.938C68.2062 299.3 67.7076 300.189 67.2812 301C66.8549 301.812 66.5081 302.533 66.375 302.531C66.2395 302.529 66.2113 302.193 66.25 301.844C66.2887 301.495 66.3731 301.14 66.375 301C66.383 300.42 66.409 299.816 66.3438 299.25C66.2785 298.684 66.1322 298.143 65.7812 297.625C65.0031 296.476 63.6165 295.347 62.0312 294.562C60.446 293.778 58.6366 293.34 57.0312 293.594Z" fill="#c5eaff" fill-rule="nonzero" opacity="0.526923" stroke="#4b4b4b" stroke-linecap="butt" stroke-linejoin="round" stroke-width="2.00401" vectornator:layerName="Кривая 1"/>
<path d="M287.679 263.314C287.679 261.026 297.363 261.297 299.289 260.912C304.026 259.965 308.769 260.019 313.702 260.512C316.467 260.788 319.022 260.112 321.709 260.112C326.806 260.112 332.124 260.512 337.322 260.512M292.483 253.306C294.42 249.433 299.203 250.503 303.293 250.503C313.502 250.503 323.847 250.904 334.119 250.904M313.301 244.498C314.902 241.297 332.65 241.295 336.121 241.295M278.471 340.981C290.007 340.981 301.445 341.466 312.901 342.182C324.12 342.884 335.232 345.385 346.53 345.385M292.884 332.974C298.815 332.974 305.016 333.509 310.899 332.974C321.589 332.003 333.581 330.738 344.128 333.375M312.1 322.966C312.234 323.233 312.208 323.825 312.501 323.766C315.772 323.112 318.821 321.531 322.109 320.964C326.598 320.19 331.183 320.163 335.721 319.763M120.735 356.595C127.612 356.595 134.328 357.341 141.153 357.796C153.79 358.638 166.576 357.195 179.186 358.597M133.146 344.985C135.335 347.174 139.259 346.186 142.354 346.186C149.417 346.186 158.893 346.481 166.375 344.985M139.552 335.777C144.598 335.777 150.002 334.062 155.165 333.775C159.072 333.558 162.917 334.146 166.775 333.375M48.6732 246.5C56.187 246.5 63.5285 244.854 71.0925 245.299C84.3476 246.079 97.4189 248.502 110.727 248.502M75.4963 236.091C76.2175 238.254 79.6343 238.252 81.9019 238.493C91.1359 239.475 100.991 240.094 110.326 240.094M90.7095 233.289C97.115 233.289 103.52 233.289 109.926 233.289" fill="none" opacity="0.526923" stroke="#4b4b4b" stroke-linecap="round" stroke-linejoin="round" stroke-width="2.00401" vectornator:layerName="Кривая 2"/>
</g>
</svg>
