<?xml version="1.0" encoding="UTF-8" standalone="no"?>
<!DOCTYPE svg PUBLIC "-//W3C//DTD SVG 1.1//EN" "http://www.w3.org/Graphics/SVG/1.1/DTD/svg11.dtd">
<!-- Created with Vectornator (http://vectornator.io/) -->
<svg height="100%" stroke-miterlimit="10" style="fill-rule:nonzero;clip-rule:evenodd;stroke-linecap:round;stroke-linejoin:round;" version="1.1" viewBox="0 0 400 400" width="100%" xml:space="preserve" xmlns="http://www.w3.org/2000/svg" xmlns:vectornator="http://vectornator.io" xmlns:xlink="http://www.w3.org/1999/xlink">
<defs/>
<g id="Слой-2" vectornator:layerName="Слой 2">
<g opacity="1" vectornator:layerName="Группа 2">
<path d="M52.5098 212.573C49.5374 220.933 52.5114 235.368 58.7435 240.202C64.9756 245.036 73.4689 248.114 79.541 249.449C86.3178 250.938 94.0713 249.646 101.099 246.846C108.127 244.046 114.429 239.739 118.302 235.198C119.69 233.571 121.692 229.544 123.491 225.923C125.29 222.302 126.887 219.088 127.464 219.088C128.051 219.088 128.051 220.482 127.904 222.031C127.758 223.58 127.464 225.284 127.464 225.903C127.464 228.475 127.393 231.055 127.709 233.561C128.026 236.067 128.731 238.499 130.283 240.774C133.724 245.817 139.767 250.764 146.685 254.146C153.603 257.528 161.396 259.344 168.34 258.123C176.928 256.613 183.921 252.241 189.499 246.637C195.076 241.034 199.239 234.199 202.168 227.762C202.594 226.825 202.894 224.702 203.291 222.636C203.687 220.569 204.178 218.559 204.987 217.849C205.319 217.556 205.319 217.969 205.236 218.559C205.153 219.148 204.987 219.914 204.987 220.327C204.987 221.505 205.09 222.508 205.319 223.489C205.547 224.47 205.899 225.431 206.396 226.523C207.595 229.159 208.711 231.986 210.202 234.599C211.694 237.212 213.56 239.612 216.263 241.394C223.064 245.879 231.446 248.565 240.192 249.872C248.937 251.179 258.046 251.105 266.3 250.068C273.963 249.106 281.289 245.517 287.53 240.71C293.77 235.903 298.925 229.878 302.242 224.045C303.363 222.073 304.068 220.053 304.493 217.987C304.917 215.921 305.061 213.809 305.061 211.652L305.061 208.554L305.061 205.456C305.061 205.456 307.549 206.939 310.319 208.57C313.089 210.201 316.141 211.98 317.267 212.573C344.66 226.998 364.49 215.829 373.23 199.562C381.97 183.294 379.62 161.927 362.653 155.955C357.893 154.28 357.988 152.727 359.338 151.587C360.689 150.446 363.294 149.718 363.555 149.692C374.055 148.623 382.831 141.974 388.596 132.807C394.362 123.64 397.118 111.956 395.579 100.817C394.531 93.2301 390.63 85.9075 384.61 80.3962C378.59 74.885 370.45 71.1852 360.924 70.8443C350.849 70.4837 338.866 73.0214 329.401 80.1365C319.937 87.2516 313.847 102.71 313.847 120.659C313.847 104.213 300.534 92.6999 284.166 87.994C267.797 83.2882 252.226 94.4279 240.002 117.264C242.492 96.6254 228.348 70.3973 211.567 69.4799C194.786 68.5624 170.655 80.1521 172.873 95.9857C159.336 45.7927 127.641 9.26509 62.258 33.8607C21.8341 49.0673-7.52322 116.621 48.3626 141.18C20.1739 139.421 5.7402 158.247 4.10449 173.146C2.46878 188.045 20.142 211.776 44.7722 203.012C54.8267 199.435 57.3916 199.126 56.3038 201.655C55.216 204.184 52.5018 212.573 52.5018 212.573" fill="#85d4ff" fill-rule="nonzero" opacity="1" stroke="#4b4b4b" stroke-linecap="butt" stroke-linejoin="round" stroke-width="2.00401" vectornator:layerName="Кривая 4"/>
<path d="M27.9176 66.4925C29.8332 63.1242 35.3436 61.7624 38.7874 59.6664C49.6214 53.072 61.2908 46.967 73.3377 42.2597M19.377 83.2165C25.1244 73.1105 47.2723 66.6876 57.8095 62.0555C62.5607 59.9669 68.2801 56.9359 73.7259 56.9359M17.436 94.1383C24.6007 81.5401 48.4636 74.4414 62.0797 69.5643C67.2521 67.7116 72.4419 65.2585 77.9962 64.4447M20.5417 101.988C19.2103 101.988 23.4891 100.285 25.5883 98.234C28.7063 95.1882 31.7591 92.3418 35.6817 90.0427C43.8627 85.2476 60.0377 83.0846 69.8438 81.1687M23.2591 114.275C21.316 110.859 30.5227 104.608 32.1878 103.354C41.3225 96.4698 54.4125 93.6549 65.5736 90.384M25.2001 121.443C23.9296 119.209 27.8412 117.004 29.4704 114.958C33.5223 109.869 38.2387 104.808 45.3869 103.012C48.5819 102.21 51.8862 102.928 55.092 101.988M32.5761 127.245C36.0593 118.058 48.3897 108.41 58.9741 106.084M39.5638 129.976C46.2467 124.1 50.5823 115.341 60.5269 113.593M45.7751 129.976C47.1394 126.377 51.4882 124.319 55.4802 123.149M6.17803 168.543C12.9737 156.594 19.161 151.863 34.5171 148.747C37.2702 148.189 39.7738 146.7 42.6694 146.7M5.78983 178.441C5.55782 178.849 5.01341 179.726 5.01341 180.148C5.01341 180.976 5.43995 178.527 5.78983 177.758C6.11221 177.05 6.56624 176.393 6.95444 175.711C8.52406 172.951 10.0959 170.963 12.3893 168.543C17.5968 163.049 27.395 156.256 36.0699 156.256M12.3893 183.902C9.84228 183.902 14.3649 178.054 15.1068 177.076C19.3563 171.472 25.1299 168.403 31.7996 165.471M14.3304 194.141C13.3314 192.385 14.8927 190.23 15.495 188.339C17.3236 182.597 20.8046 176.933 27.9176 175.369M22.0945 197.554C22.0945 190.187 25.0123 184.126 31.7996 180.148M53.9274 214.961C53.9274 205.15 71.2571 195.361 79.1608 190.728M53.151 225.2C59.8691 213.387 68.4499 202.855 83.0429 198.578M55.8684 233.391C55.8684 230.476 60.0344 224.478 61.3033 222.47C64.8074 216.924 70.0087 213.031 76.0551 209.841M62.0797 236.463C61.9503 236.122 61.5168 235.765 61.6915 235.439C63.7686 231.572 66.217 227.864 68.6792 224.176C70.9811 220.728 72.4216 219.49 75.6669 217.35M66.7382 239.535C65.1149 240.249 68.3853 232.457 69.0674 231.344C71.8274 226.837 76.4244 224.534 80.3254 221.104M72.5613 240.9C75.4245 233.348 76.3459 231.088 82.2664 225.883M129.628 230.32C132.165 228.089 132.681 224.609 134.286 221.787C138.113 215.059 143.35 206.995 151.755 204.039M135.062 241.241C135.062 238.325 137.259 235.734 138.556 233.05C141.007 227.98 143.308 222.27 147.485 218.033C150.414 215.062 154.073 212.923 157.19 210.183M140.109 247.385C139.98 247.157 139.627 246.943 139.721 246.702C141.08 243.226 142.632 239.803 144.379 236.463C147.339 230.807 149.899 227.704 155.249 224.176M143.991 248.409C148.121 241.147 152.079 235.553 157.967 229.637M152.92 247.726C150.907 244.186 159.548 236.438 162.625 233.733M209.598 231.344C209.598 223.22 217.989 212.703 223.962 207.452M212.704 235.439C212.704 224.532 229.962 213.341 237.161 205.746M217.75 241.241C217.75 239.266 221.948 232.898 222.797 231.344C227.269 223.152 233.654 215.509 241.819 209.841C245.517 207.274 249.981 205.968 253.854 203.698M223.574 241.241C229.87 224.634 247.816 213.519 264.723 206.087M232.114 244.996C237.088 231.877 252.523 218.78 266.664 213.254M240.266 247.044C240.266 243.129 245.16 240.48 248.03 237.487C255.643 229.549 263.602 223.986 274.04 219.398M256.959 243.289C260.566 236.947 267.108 233.355 273.264 229.296M374.974 76.3904C377.738 77.6054 378.078 80.138 378.468 82.5339C379.971 91.7877 372.646 98.66 364.492 104.036M383.514 83.8991C387.684 83.8991 384.837 93.2412 384.291 95.1623C382.307 102.139 375.997 110.04 367.598 111.886M390.502 94.1383C390.502 96.8688 391.092 99.649 390.502 102.33C388.873 109.731 375.245 114.353 369.151 118.371M390.114 106.767C389.184 106.767 387.815 111.344 386.62 112.569C382.996 116.286 374.822 120.76 369.151 120.76M388.949 115.299C385.722 120.974 379.622 125.542 372.645 127.586M387.008 123.832C389.392 128.023 373.505 135.199 370.315 136.802M310.143 206.77C310.143 203.179 310.117 198.907 310.92 195.848C312.034 191.605 314.284 187.656 315.967 183.561M314.802 208.135C316.943 202.488 318.327 198.791 321.79 191.752C323.039 189.213 325.84 182.211 329.942 179.806M322.954 212.913C326.239 210.025 324.873 204.916 326.06 200.967C327.232 197.067 329.078 192.714 333.048 190.387M328.389 214.62C326.468 212.93 327.747 209.774 328.389 207.452C329.759 202.501 331.956 200.604 334.989 196.872M332.659 214.961C330.861 211.799 338.862 202.34 341.976 199.602M334.6 215.302C335.696 209.522 341.764 205.836 346.635 202.333M340.424 214.62C341.294 210.794 345.246 208.745 348.964 207.111M107.37 42.0945C110.023 42.0945 110.735 39.8626 113.589 39.3606C124.732 37.4014 138.81 44.4632 147.795 49.2027M121.674 49.7495C124.131 50.8292 126.572 50.6381 129.137 51.3898C135.155 53.1533 141.166 56.4355 146.551 59.5915M131.003 59.5915C140.374 63.7111 163.965 64.4499 163.965 77.6353M140.954 69.9804C145.039 77.1633 158.485 77.5178 163.965 84.7435M145.929 79.8225C149.567 86.22 160.25 87.4923 165.83 92.3984" fill="#85d4ff" fill-rule="nonzero" opacity="1" stroke="#4b4b4b" stroke-linecap="butt" stroke-linejoin="round" stroke-width="2.00401" vectornator:layerName="Кривая 5"/>
</g>
<path d="M144.537 283.447C143.856 281.665 136.813 291.948 135.804 293.54C130.77 301.491 130.812 311.507 136.456 312.782C143.88 314.459 146.571 301.871 146.429 296.962C146.285 292.019 146.32 288.116 144.537 283.447ZM135.607 308.765C138.472 309.537 140.751 309.886 142.331 305.089M135.607 305.089C137.77 305.089 139.934 303.162 139.934 303.162M135.607 299.73C136.967 300.607 138.439 299.665 139.278 299.429M137.199 295.68C137.732 296.035 137.77 296.882 139.278 296.247M208.99 284.059C208.309 282.277 201.266 292.56 200.258 294.152C195.224 302.103 195.265 312.118 200.91 313.394C208.333 315.071 211.025 302.483 210.882 297.574C210.739 292.631 210.773 288.728 208.99 284.059ZM200.061 309.377C202.926 310.149 205.204 310.498 206.784 305.701M200.061 305.701C202.224 305.701 204.387 303.774 204.387 303.774M200.061 300.341C201.421 301.218 202.893 300.277 203.731 300.041M201.652 296.292C202.185 296.646 202.224 297.494 203.731 296.859M265.981 283.447C265.3 281.665 258.257 291.948 257.249 293.54C252.215 301.491 252.256 311.507 257.901 312.782C265.324 314.459 268.016 301.871 267.873 296.962C267.729 292.019 267.764 288.116 265.981 283.447ZM257.051 308.765C259.916 309.537 262.195 309.886 263.775 305.089M257.051 305.089C259.215 305.089 261.378 303.162 261.378 303.162M257.051 299.73C258.411 300.607 259.884 299.665 260.722 299.429M258.643 295.68C259.176 296.035 259.215 296.882 260.722 296.247M171.192 325.436C170.511 323.654 163.468 333.936 162.46 335.529C157.426 343.48 157.467 353.495 163.112 354.771C170.535 356.447 173.227 343.86 173.084 338.951C172.941 334.008 172.975 330.105 171.192 325.436ZM162.263 350.754C165.128 351.526 167.406 351.875 168.986 347.078M162.263 347.078C164.426 347.078 166.589 345.151 166.589 345.151M162.263 341.718C163.622 342.595 165.095 341.654 165.933 341.418M163.854 337.669C164.387 338.023 164.426 338.87 165.933 338.236M234.939 323.6C234.258 321.819 227.215 332.101 226.207 333.694C221.173 341.645 221.214 351.66 226.859 352.935C234.282 354.612 236.974 342.024 236.831 337.115C236.687 332.173 236.722 328.269 234.939 323.6ZM226.009 348.918C228.875 349.691 231.153 350.039 232.733 345.243M226.009 345.243C228.173 345.243 230.336 343.316 230.336 343.316M226.009 339.883C227.369 340.76 228.842 339.819 229.68 339.583M227.601 335.833C228.134 336.188 228.173 337.035 229.68 336.4" fill="#85d4ff" fill-rule="nonzero" opacity="1" stroke="#4b4b4b" stroke-linecap="butt" stroke-linejoin="round" stroke-width="2.00401" vectornator:layerName="Кривая 4"/>
</g>
</svg>
