<?xml version="1.0" encoding="UTF-8" standalone="no"?>
<!DOCTYPE svg PUBLIC "-//W3C//DTD SVG 1.1//EN" "http://www.w3.org/Graphics/SVG/1.1/DTD/svg11.dtd">
<!-- Created with Vectornator (http://vectornator.io/) -->
<svg height="100%" stroke-miterlimit="10" style="fill-rule:nonzero;clip-rule:evenodd;stroke-linecap:round;stroke-linejoin:round;" version="1.1" viewBox="0 0 400 400" width="100%" xml:space="preserve" xmlns="http://www.w3.org/2000/svg" xmlns:vectornator="http://vectornator.io" xmlns:xlink="http://www.w3.org/1999/xlink">
<defs/>
<g id="Слой-2" vectornator:layerName="Слой 2">
<g opacity="1" vectornator:layerName="Группа 1">
<path d="M348.226 201.908C351.094 210.58 347.962 225.464 341.69 230.39C335.419 235.317 326.913 238.403 320.841 239.715C314.065 241.18 306.347 239.759 299.37 236.788C292.394 233.818 286.158 229.297 282.347 224.562C280.982 222.866 279.032 218.683 277.279 214.921C275.526 211.16 273.97 207.821 273.395 207.814C272.809 207.808 272.793 209.248 272.922 210.851C273.05 212.453 273.324 214.217 273.316 214.857C273.287 217.514 273.328 220.181 272.984 222.768C272.639 225.354 271.908 227.859 270.334 230.192C266.843 235.365 260.76 240.411 253.821 243.83C246.882 247.248 239.089 249.039 232.178 247.7C223.63 246.045 216.706 241.45 211.207 235.599C205.709 229.747 201.635 222.638 198.789 215.955C198.375 214.982 198.099 212.785 197.728 210.645C197.357 208.505 196.89 206.423 196.092 205.68C195.764 205.374 195.759 205.801 195.835 206.411C195.911 207.021 196.068 207.814 196.063 208.241C196.05 209.458 195.935 210.493 195.696 211.504C195.457 212.516 195.094 213.504 194.586 214.628C193.36 217.338 192.214 220.247 190.697 222.931C189.179 225.615 187.29 228.074 184.574 229.885C177.739 234.445 169.348 237.129 160.611 238.383C151.873 239.636 142.79 239.46 134.569 238.298C126.938 237.219 119.672 233.429 113.503 228.393C107.335 223.357 102.264 217.075 99.0221 211.011C97.9265 208.961 97.2469 206.866 96.8474 204.726C96.4479 202.587 96.3285 200.402 96.3533 198.174L96.389 194.973L96.4247 191.772C96.4247 191.772 93.926 193.276 91.1446 194.931C88.3633 196.585 85.2829 198.36 84.1689 198.991C27.8783 230.855 10.0469 158.749 53.2587 149.089C-18.0365 129.454 72.4997 46.2254 102.219 101.141C99.3372 81.4699 138.462 68.5361 146.103 99.2541C154.306 63.8618 186.308 66.3073 198.237 90.0389C195.992 68.6853 195.6 38.1419 223.896 33.7041C261.656 31.675 260.039 55.6024 266.709 74.2883C268.769-6.47953 433.028 59.1592 353.185 128.181C381.319 126.674 395.498 146.287 396.958 161.701C398.417 177.114 380.517 201.442 356.053 192.114C346.067 188.306 343.512 187.959 344.568 190.585C345.624 193.21 348.234 201.908 348.234 201.908" fill="#2e71a5" fill-rule="nonzero" opacity="1" stroke="#4b4b4b" stroke-linecap="butt" stroke-linejoin="round" stroke-width="2.38258" vectornator:layerName="Кривая 1"/>
<path d="M362.944 68.8119C361.445 66.3783 357.055 65.3582 354.323 63.8265C345.729 59.0079 336.463 54.5343 326.882 51.0615M369.613 80.8875C365.114 73.5859 347.48 68.8038 339.105 65.3966C335.328 63.8603 330.787 61.6398 326.436 61.5981M371.062 88.7458C365.455 79.6436 346.457 74.363 335.624 70.7562C331.509 69.3861 327.385 67.5848 322.956 66.9577M368.509 94.3594C369.573 94.3696 366.17 93.1134 364.512 91.6246C362.049 89.4134 359.637 87.3459 356.524 85.6648C350.033 82.1586 337.13 80.4814 329.314 79.0304M366.225 103.162C367.808 100.724 360.511 96.1646 359.192 95.2507C351.958 90.2372 341.527 88.1154 332.641 85.681M364.608 108.295C365.643 106.7 362.539 105.087 361.256 103.605C358.066 99.9194 354.345 96.2487 348.651 94.9045C346.106 94.3036 343.46 94.7941 340.907 94.0948M358.662 112.405C355.964 105.781 346.202 98.7581 337.768 97.0064M353.054 114.312C347.769 110.042 344.387 103.719 336.458 102.387M348.092 114.265C347.035 111.67 343.58 110.159 340.402 109.288M392.823 156.482C386.183 144.059 380.067 139.103 364.787 135.714C362.048 135.106 359.568 133.54 356.68 133.508M393.096 166.714C393.323 167.138 393.856 168.05 393.851 168.486C393.841 169.342 393.444 166.807 393.104 166.009C392.791 165.273 392.346 164.589 391.966 163.88C390.433 161.01 388.888 158.939 386.628 156.413C381.498 150.679 371.804 143.551 363.152 143.456M386.451 172.284C388.992 172.312 384.548 166.22 383.82 165.201C379.646 159.363 373.923 156.129 367.305 153.025M384.397 182.843C385.414 181.039 383.882 178.796 383.303 176.835C381.545 170.881 378.139 164.99 371.062 163.296M376.615 186.285C376.699 178.672 373.859 172.376 367.136 168.191M344.665 203.921C344.778 193.783 327.607 183.476 319.778 178.602M345.322 214.51C338.757 202.229 330.321 191.251 315.816 186.671M342.517 222.944C342.551 219.931 338.465 213.687 337.222 211.598C333.791 205.83 328.649 201.749 322.655 198.387M336.287 226.05C336.42 225.699 336.856 225.334 336.686 224.996C334.659 220.977 332.26 217.119 329.846 213.281C327.59 209.692 326.168 208.397 322.956 206.15M331.605 229.173C333.216 229.928 330.044 221.841 329.377 220.683C326.676 215.996 322.117 213.565 318.266 209.978M325.782 230.519C323.013 222.684 322.12 220.338 316.275 214.894M268.988 218.957C266.483 216.624 266.009 213.022 264.44 210.089C260.702 203.094 255.571 194.704 247.222 191.557M263.442 230.183C263.476 227.17 261.315 224.468 260.052 221.68C257.666 216.414 255.437 210.489 251.32 206.064C248.433 202.962 244.808 200.711 241.731 197.845M258.338 236.476C258.47 236.242 258.824 236.024 258.733 235.775C257.417 232.168 255.909 228.613 254.205 225.143C251.318 219.265 248.8 216.031 243.505 212.327M254.454 237.491C250.419 229.942 246.536 224.117 240.732 217.94M245.557 236.687C247.606 233.052 239.077 224.95 236.039 222.12M189.218 219.134C189.311 210.739 181.063 199.78 175.167 194.288M186.073 223.332C186.199 212.061 169.115 200.307 162.023 192.379M180.973 229.272C180.996 227.23 176.882 220.604 176.053 218.989C171.687 210.475 165.408 202.507 157.329 196.56C153.671 193.867 149.234 192.467 145.398 190.079M175.165 229.208C169.076 211.977 151.306 200.295 134.529 192.428M166.604 232.993C161.794 219.382 146.551 205.679 132.511 199.813M158.45 235.02C158.495 230.974 153.644 228.183 150.816 225.059C143.315 216.772 135.441 210.936 125.083 206.08M141.844 230.956C138.32 224.362 131.837 220.579 125.744 216.316M89.2213 192.633C89.2626 188.923 89.3385 184.509 88.5728 181.339C87.5109 176.942 85.3116 172.837 83.681 168.586M53.7213 97.3857C50.7116 98.3193 50.311 100.311 49.8592 102.194C48.1144 109.468 55.9649 114.941 64.7307 119.243M44.3747 103.227C39.8573 103.192 42.8248 110.572 43.3926 112.089C45.4545 117.599 52.1918 123.874 61.2678 125.398M36.6763 111.231C36.6421 113.381 35.968 115.565 36.5737 117.681C38.2463 123.523 52.9524 127.276 59.5044 130.492M36.9388 121.178C37.9463 121.186 39.3726 124.801 40.6513 125.776C44.5308 128.734 53.3308 132.325 59.4745 132.373M38.0937 127.907C41.5192 132.403 48.0703 136.05 55.6039 137.719M40.0898 134.642C37.4553 137.922 54.5761 143.706 58.012 144.995M84.5594 193.992C82.4892 188.134 81.1509 184.298 77.7789 176.987C76.5626 174.349 73.8493 167.082 69.7858 164.553M76.3736 198.84C73.1304 195.819 74.5517 190.556 73.4138 186.462C72.2899 182.419 70.4991 177.9 66.5665 175.452M70.9334 200.544C72.8693 198.819 71.6298 195.543 71.016 193.137C69.7067 188.006 67.5375 186.022 64.5558 182.131M66.6705 200.849C68.5004 197.602 60.6297 187.74 57.5552 184.876M64.7307 201.181C63.7045 195.196 57.6947 191.32 52.8775 187.646M58.9308 200.411C58.107 196.449 54.1885 194.288 50.4994 192.558" fill="none" opacity="1" stroke="#4b4b4b" stroke-linecap="butt" stroke-linejoin="round" stroke-width="2.38258" vectornator:layerName="Кривая 6"/>
</g>
<g opacity="1" vectornator:layerName="Группа 2">
<path d="M109.353 268.469C107.032 275.144 109.354 286.668 114.221 290.528C119.088 294.387 125.72 296.844 130.462 297.91C135.754 299.099 141.809 298.067 147.297 295.832C152.785 293.596 157.707 290.157 160.732 286.532C161.815 285.234 163.378 282.018 164.784 279.128C166.189 276.237 167.436 273.671 167.886 273.671C168.345 273.671 168.345 274.784 168.23 276.02C168.116 277.257 167.886 278.617 167.886 279.112C167.886 281.165 167.831 283.225 168.078 285.226C168.325 287.226 168.875 289.168 170.088 290.984C172.775 295.01 177.494 298.96 182.896 301.66C188.299 304.36 194.385 305.81 199.807 304.835C206.514 303.629 211.975 300.139 216.331 295.665C220.686 291.191 223.937 285.734 226.224 280.596C226.557 279.848 226.792 278.153 227.101 276.503C227.41 274.853 227.794 273.249 228.425 272.681C228.685 272.448 228.685 272.778 228.62 273.248C228.555 273.719 228.425 274.33 228.425 274.66C228.425 275.6 228.507 276.401 228.685 277.184C228.863 277.968 229.138 278.734 229.526 279.607C230.463 281.711 231.334 283.968 232.499 286.054C233.663 288.141 235.121 290.056 237.231 291.479C242.543 295.059 249.089 297.205 255.918 298.248C262.748 299.291 269.861 299.232 276.306 298.404C282.291 297.636 288.012 294.77 292.886 290.933C297.759 287.095 301.784 282.285 304.375 277.628C305.25 276.054 305.801 274.441 306.132 272.792C306.463 271.142 306.576 269.456 306.576 267.734L306.576 265.261L306.576 262.788C306.576 262.788 308.519 263.971 310.682 265.273C312.845 266.575 315.228 267.996 316.108 268.469C337.5 279.986 352.986 271.069 359.811 258.081C366.636 245.094 364.801 228.035 351.551 223.268C347.834 221.93 347.908 220.691 348.962 219.78C350.017 218.87 352.052 218.288 352.256 218.267C360.455 217.414 367.308 212.106 371.811 204.787C376.313 197.469 378.466 188.14 377.264 179.247C376.445 173.19 373.399 167.344 368.698 162.944C363.996 158.544 357.64 155.59 350.201 155.318C342.333 155.03 332.975 157.056 325.584 162.737C318.193 168.417 313.437 180.759 313.437 195.088C313.437 181.959 303.041 172.767 290.258 169.01C277.475 165.253 265.316 174.147 255.77 192.378C257.714 175.901 246.669 154.961 233.565 154.229C220.46 153.497 201.616 162.749 203.347 175.39C192.776 135.318 168.024 106.156 116.965 125.792C85.3974 137.932 62.4716 191.865 106.114 211.472C84.1009 210.067 72.8293 225.098 71.5519 236.992C70.2746 248.887 84.076 267.833 103.31 260.836C111.162 257.98 113.165 257.734 112.316 259.753C111.466 261.772 109.347 268.469 109.347 268.469" fill="#2990f2" fill-rule="nonzero" opacity="1" stroke="#4b4b4b" stroke-linecap="butt" stroke-linejoin="round" stroke-width="2.00401" vectornator:layerName="Кривая 4"/>
<path d="M90.1481 151.844C91.6441 149.155 95.9473 148.068 98.6366 146.394C107.097 141.13 116.21 136.256 125.618 132.497M83.4786 165.196C87.9669 157.128 105.263 152 113.491 148.302C117.202 146.634 121.668 144.214 125.921 144.214M81.9628 173.915C87.5579 163.857 106.193 158.19 116.826 154.296C120.865 152.817 124.918 150.859 129.256 150.209M84.3881 180.183C83.3484 180.183 86.6898 178.822 88.3292 177.185C90.764 174.754 93.148 172.481 96.2113 170.646C102.6 166.817 115.232 165.09 122.889 163.561M86.5102 189.992C84.9928 187.264 92.1825 182.274 93.4829 181.273C100.616 175.777 110.839 173.529 119.555 170.918M88.026 195.714C87.0338 193.931 90.0885 192.171 91.3608 190.537C94.525 186.474 98.2082 182.434 103.79 181C106.285 180.359 108.866 180.933 111.369 180.183M93.786 200.347C96.5062 193.012 106.135 185.31 114.401 183.452M99.2429 202.527C104.462 197.836 107.848 190.843 115.614 189.447M104.093 202.527C105.159 199.654 108.555 198.011 111.672 197.077M73.1712 233.318C78.4781 223.778 83.3099 220.001 95.3018 217.513C97.4518 217.067 99.4069 215.878 101.668 215.878M72.868 241.22C72.6869 241.545 72.2617 242.245 72.2617 242.582C72.2617 243.243 72.5948 241.289 72.868 240.675C73.1198 240.109 73.4744 239.585 73.7775 239.04C75.0033 236.836 76.2307 235.249 78.0218 233.318C82.0884 228.931 89.74 223.508 96.5145 223.508M78.0218 245.579C76.0327 245.579 79.5645 240.911 80.1439 240.13C83.4624 235.656 87.9711 233.206 93.1797 230.865M79.5376 253.754C78.7574 252.352 79.9767 250.632 80.447 249.122C81.8751 244.538 84.5934 240.015 90.1481 238.767M85.6007 256.479C85.6007 250.598 87.8793 245.758 93.1797 242.582M110.46 270.376C110.46 262.543 123.993 254.728 130.165 251.029M109.853 278.55C115.1 269.119 121.801 260.711 133.197 257.296M111.976 285.09C111.976 282.762 115.229 277.974 116.22 276.371C118.956 271.943 123.018 268.835 127.74 266.288M116.826 287.542C116.725 287.27 116.387 286.985 116.523 286.725C118.145 283.638 120.057 280.677 121.98 277.733C123.777 274.98 124.902 273.992 127.437 272.283M120.464 289.995C119.196 290.565 121.75 284.344 122.283 283.455C124.438 279.857 128.028 278.019 131.075 275.281M125.011 291.085C127.247 285.056 127.967 283.251 132.59 279.095M169.576 282.638C171.557 280.857 171.961 278.078 173.214 275.826C176.202 270.454 180.292 264.016 186.856 261.656M173.82 291.357C173.82 289.029 175.535 286.96 176.549 284.818C178.463 280.77 180.259 276.212 183.521 272.828C185.808 270.456 188.666 268.749 191.1 266.561M177.761 296.262C177.66 296.08 177.385 295.909 177.458 295.717C178.519 292.942 179.731 290.209 181.096 287.542C183.407 283.027 185.407 280.549 189.584 277.733M180.793 297.08C184.018 291.282 187.109 286.816 191.707 282.093M187.765 296.535C186.193 293.708 192.941 287.522 195.344 285.363M232.027 283.455C232.027 276.969 238.58 268.573 243.244 264.381M234.452 286.725C234.452 278.017 247.929 269.082 253.551 263.019M238.393 291.357C238.393 289.78 241.671 284.696 242.334 283.455C245.827 276.915 250.812 270.813 257.189 266.288C260.077 264.239 263.562 263.196 266.587 261.384M242.94 291.357C247.858 278.098 261.872 269.225 275.075 263.291M249.61 294.355C253.494 283.881 265.548 273.425 276.591 269.013M255.976 295.99C255.976 292.864 259.798 290.749 262.04 288.36C267.984 282.023 274.2 277.581 282.351 273.918M269.012 292.992C271.829 287.928 276.937 285.061 281.745 281.82M361.173 159.746C363.331 160.716 363.597 162.738 363.901 164.651C365.075 172.039 359.354 177.525 352.987 181.818M367.842 165.741C371.098 165.741 368.875 173.199 368.448 174.733C366.899 180.303 361.971 186.611 355.413 188.085M373.299 173.915C373.299 176.095 373.76 178.315 373.299 180.455C372.027 186.364 361.384 190.054 356.625 193.262M372.996 183.997C372.27 183.997 371.2 187.652 370.267 188.63C367.437 191.597 361.054 195.169 356.625 195.169M372.086 190.81C369.566 195.34 364.803 198.987 359.354 200.619M370.571 197.622C372.432 200.968 360.026 206.697 357.535 207.976M310.545 263.836C310.545 260.97 310.524 257.559 311.151 255.117C312.021 251.729 313.779 248.577 315.092 245.307M314.183 264.926C315.855 260.418 316.936 257.466 319.64 251.847C320.615 249.82 322.803 244.229 326.006 242.31M320.549 268.741C323.115 266.435 322.048 262.357 322.975 259.204C323.89 256.09 325.331 252.614 328.431 250.757M324.794 270.103C323.293 268.755 324.292 266.234 324.794 264.381C325.863 260.428 327.579 258.914 329.947 255.934M328.128 270.376C326.724 267.851 332.972 260.3 335.404 258.114M329.644 270.648C330.5 266.034 335.239 263.091 339.042 260.294M334.191 270.103C334.871 267.049 337.958 265.413 340.861 264.109M152.195 132.366C154.267 132.366 154.822 130.584 157.051 130.183C165.753 128.619 176.747 134.257 183.763 138.04M163.365 138.477C165.283 139.339 167.19 139.186 169.193 139.787C173.892 141.194 178.587 143.815 182.792 146.335M170.65 146.335C177.968 149.623 196.39 150.213 196.39 160.74M178.421 154.629C181.611 160.363 192.112 160.646 196.39 166.415M182.306 162.486C185.147 167.594 193.49 168.609 197.847 172.526" fill="none" opacity="1" stroke="#4b4b4b" stroke-linecap="butt" stroke-linejoin="round" stroke-width="2.00401" vectornator:layerName="Кривая 5"/>
</g>
<path d="M118.196 350.863C118.344 350.165 119.156 349.408 119.546 348.77C120.473 347.252 121.429 345.728 122.382 344.215C124.753 340.45 127.062 336.601 129.254 332.737C130.348 330.808 131.614 327.736 133.344 326.277M111.596 329.445C111.83 329.805 112.552 329.943 112.92 330.236C114.973 331.871 117.141 333.336 119.368 334.738C123.63 337.422 127.816 340.262 132.063 343.001C133.848 344.154 135.972 345.059 137.618 346.37M111.415 341.342C113.283 342.026 116.955 340.984 118.787 340.507C125.249 338.825 132.431 338.207 138.492 335.395M121.668 323.895C121.944 326.332 123.071 328.747 123.548 331.149C124.339 335.137 125.652 339.015 126.759 342.896C127.349 344.965 127.881 347.075 128.463 349.112C128.672 349.846 128.72 350.803 129.138 351.446M177.941 354.051C178.089 353.353 178.902 352.597 179.292 351.958C180.218 350.441 181.174 348.917 182.127 347.404C184.498 343.638 186.807 339.789 189 335.925C190.094 333.996 191.359 330.924 193.089 329.465M171.342 332.633C171.576 332.994 172.298 333.131 172.666 333.424C174.719 335.059 176.887 336.524 179.114 337.927C183.376 340.611 187.562 343.45 191.808 346.19C193.594 347.342 195.718 348.248 197.363 349.559M171.16 344.53C173.029 345.214 176.701 344.172 178.532 343.695C184.995 342.013 192.177 341.396 198.237 338.583M181.413 327.083C181.689 329.52 182.817 331.936 183.293 334.337C184.085 338.326 185.397 342.203 186.505 346.085C187.095 348.154 187.627 350.264 188.208 352.301C188.417 353.034 188.466 353.991 188.884 354.635M233.563 350.863C233.711 350.165 234.523 349.408 234.913 348.77C235.84 347.252 236.796 345.728 237.749 344.215C240.12 340.45 242.429 336.601 244.621 332.737C245.716 330.808 246.981 327.736 248.711 326.277M226.963 329.445C227.198 329.805 227.92 329.943 228.288 330.236C230.341 331.871 232.509 333.336 234.736 334.738C238.998 337.422 243.184 340.262 247.43 343.001C249.216 344.154 251.339 345.059 252.985 346.37M226.782 341.342C228.651 342.026 232.323 340.984 234.154 340.507C240.617 338.825 247.799 338.207 253.859 335.395M237.035 323.895C237.311 326.332 238.438 328.747 238.915 331.149C239.706 335.137 241.019 339.015 242.127 342.896C242.717 344.965 243.249 347.075 243.83 349.112C244.039 349.846 244.088 350.803 244.506 351.446M205.018 381.602C205.166 380.905 205.979 380.148 206.369 379.509C207.295 377.992 208.251 376.468 209.204 374.955C211.575 371.19 213.884 367.341 216.077 363.476C217.171 361.547 218.436 358.476 220.166 357.016M198.419 360.185C198.653 360.545 199.375 360.682 199.743 360.975C201.796 362.611 203.964 364.075 206.191 365.478C210.453 368.162 214.639 371.002 218.885 373.741C220.671 374.893 222.795 375.799 224.44 377.11M198.237 372.081C200.106 372.765 203.778 371.723 205.609 371.247C212.072 369.564 219.254 368.947 225.314 366.134M208.49 354.635C208.766 357.072 209.894 359.487 210.37 361.888C211.162 365.877 212.474 369.755 213.582 373.636C214.172 375.705 214.704 377.815 215.285 379.852C215.494 380.585 215.543 381.542 215.961 382.186M145.273 381.602C145.421 380.905 146.233 380.148 146.623 379.509C147.55 377.992 148.506 376.468 149.459 374.955C151.83 371.19 154.139 367.341 156.331 363.476C157.425 361.547 158.691 358.476 160.421 357.016M138.673 360.185C138.907 360.545 139.629 360.682 139.997 360.975C142.05 362.611 144.218 364.075 146.445 365.478C150.707 368.162 154.893 371.002 159.14 373.741C160.926 374.893 163.049 375.799 164.695 377.11M138.492 372.081C140.36 372.765 144.032 371.723 145.864 371.247C152.326 369.564 159.508 368.947 165.569 366.134M148.745 354.635C149.021 357.072 150.148 359.487 150.625 361.888C151.416 365.877 152.729 369.755 153.836 373.636C154.426 375.705 154.958 377.815 155.54 379.852C155.749 380.585 155.797 381.542 156.215 382.186M156.444 319.34C155.763 317.558 148.72 327.84 147.712 329.433C142.677 337.384 142.719 347.399 148.363 348.674C155.787 350.351 158.479 337.764 158.336 332.855C158.192 327.912 158.227 324.008 156.444 319.34ZM147.514 344.658C150.379 345.43 152.658 345.778 154.238 340.982M147.514 340.982C149.677 340.982 151.841 339.055 151.841 339.055M147.514 335.622C148.874 336.499 150.347 335.558 151.185 335.322M149.106 331.573C149.639 331.927 149.677 332.774 151.185 332.14M220.897 319.951C220.217 318.17 213.173 328.452 212.165 330.045C207.131 337.996 207.172 348.011 212.817 349.286C220.24 350.963 222.932 338.375 222.789 333.466C222.646 328.524 222.68 324.62 220.897 319.951ZM211.968 345.269C214.833 346.041 217.111 346.39 218.692 341.594M211.968 341.594C214.131 341.594 216.294 339.667 216.294 339.667M211.968 336.234C213.328 337.111 214.8 336.169 215.638 335.933M213.559 332.184C214.092 332.539 214.131 333.386 215.638 332.751M277.888 319.34C277.207 317.558 270.164 327.84 269.156 329.433C264.122 337.384 264.163 347.399 269.808 348.674C277.231 350.351 279.923 337.764 279.78 332.855C279.637 327.912 279.671 324.008 277.888 319.34ZM268.959 344.658C271.824 345.43 274.102 345.778 275.682 340.982M268.959 340.982C271.122 340.982 273.285 339.055 273.285 339.055M268.959 335.622C270.318 336.499 271.791 335.558 272.629 335.322M270.55 331.573C271.083 331.927 271.122 332.774 272.629 332.14M183.099 361.328C182.419 359.546 175.375 369.829 174.367 371.422C169.333 379.372 169.374 389.388 175.019 390.663C182.442 392.34 185.134 379.752 184.991 374.843C184.848 369.9 184.882 365.997 183.099 361.328ZM174.17 386.646C177.035 387.418 179.313 387.767 180.893 382.97M174.17 382.97C176.333 382.97 178.496 381.043 178.496 381.043M174.17 377.611C175.53 378.488 177.002 377.546 177.84 377.31M175.761 373.561C176.294 373.916 176.333 374.763 177.84 374.128M246.846 359.493C246.165 357.711 239.122 367.994 238.114 369.586C233.08 377.537 233.121 387.553 238.766 388.828C246.189 390.505 248.881 377.917 248.738 373.008C248.595 368.065 248.629 364.162 246.846 359.493ZM237.917 384.811C240.782 385.583 243.06 385.932 244.64 381.135M237.917 381.135C240.08 381.135 242.243 379.208 242.243 379.208M237.917 375.776C239.277 376.652 240.749 375.711 241.587 375.475M239.508 371.726C240.041 372.081 240.08 372.928 241.587 372.293" fill="#2990f2" fill-rule="nonzero" opacity="1" stroke="#4b4b4b" stroke-linecap="butt" stroke-linejoin="round" stroke-width="2.00401" vectornator:layerName="Кривая 3"/>
</g>
</svg>
