<?xml version="1.0" encoding="UTF-8" standalone="no"?>
<!DOCTYPE svg PUBLIC "-//W3C//DTD SVG 1.1//EN" "http://www.w3.org/Graphics/SVG/1.1/DTD/svg11.dtd">
<!-- Created with Vectornator (http://vectornator.io/) -->
<svg height="100%" stroke-miterlimit="10" style="fill-rule:nonzero;clip-rule:evenodd;stroke-linecap:round;stroke-linejoin:round;" version="1.1" viewBox="0 0 400 400" width="100%" xml:space="preserve" xmlns="http://www.w3.org/2000/svg" xmlns:vectornator="http://vectornator.io" xmlns:xlink="http://www.w3.org/1999/xlink">
<defs/>
<g id="Слой-1" vectornator:layerName="Слой 1">
<g opacity="1" vectornator:layerName="Группа 1">
<path d="M244.678 6.62191C242.325 7.24728 239.831 9.47677 238.407 10.8031C232.49 16.3165 227.681 22.17 223.305 29.0236C222.14 30.849 219.209 33.8676 218.962 36.0875C218.686 38.5565 218.319 40.5036 220.203 42.2436C220.597 42.6076 224.889 44.1698 224.525 44.305C223.375 44.7317 226.261 45.3363 226.757 45.6775C228.617 46.9578 230.418 48.2519 232.4 49.3274C235.459 50.9879 239.189 52.0459 242.058 54.02C243.568 55.0594 245.682 57.1431 247.537 57.3348C248.586 57.4431 249.446 57.23 250.297 56.4371C251.943 54.903 252.575 49.4202 252.761 47.1317C253.591 36.8919 252.36 27.7546 250.466 17.8971C250.079 15.8838 248.956 7.34183 246.95 6.65268C246.247 6.41109 245.462 6.41345 244.678 6.62191ZM240.236 21.7753C235.758 24.7107 231.856 28.0955 226.416 28.4967L240.236 21.7753ZM238.035 25.8548C236.072 27.3305 233.925 28.5075 231.839 29.7827L232.154 29.6603L236.228 28.3681C234.657 29.0627 231.496 30.7815 228.429 31.9184C228.036 32.1426 227.673 32.4266 227.278 32.6478C226.525 33.0706 218.984 36.3313 221.812 34.5384L225.067 32.8109C224.615 32.8668 224.258 32.7804 223.858 32.7513C223.593 32.7884 223.354 32.9372 223.086 32.957L223.674 32.7649C223.298 32.723 222.822 32.8399 222.511 32.7019L229.122 30.6277L238.035 25.8548ZM235.322 31.1621C232.165 32.8251 226.661 36.8419 222.453 35.6813L235.322 31.1621ZM251.013 252.741C248.756 252.394 213.763 267.698 213.7 269.425C213.66 270.511 217.951 275.527 223.419 280.609C223.929 279.812 224.581 278.96 224.635 278.883C224.713 278.774 224.812 278.677 224.89 278.567L223.356 277.242C222.714 277.622 222.015 278.03 221.738 277.907C221.125 277.635 221.808 277.148 222.664 276.648L220.686 274.96C223.742 273.023 225.211 271.72 228.741 269.853C229.159 269.633 230.225 269.252 230.17 269.748C229.939 271.819 225.755 274.498 224.395 275.628C224.018 275.942 223.287 276.285 222.664 276.648L223.356 277.242C224.323 276.67 225.294 276 225.523 275.843C226.718 275.022 227.746 274.151 228.985 273.158C229.073 273.058 229.151 272.939 229.24 272.841C229.762 272.266 231.134 271.512 231.134 271.512C231.134 271.512 229.751 272.544 228.985 273.158C227.518 274.825 226.194 276.731 224.89 278.567L226.768 280.164C228.74 278.841 230.803 277.222 231.253 276.908C231.815 276.515 232.319 276.073 232.825 275.602C232.982 275.456 233.492 275.096 233.356 275.265C232.731 276.041 229.907 278.785 227.805 281.029L228.796 281.899C230.508 280.713 232.081 279.325 233.851 278.204C234.357 277.883 235.465 276.855 235.512 277.486C235.622 278.978 231.391 281.228 230.081 282.994L230.525 283.358C232.064 282.814 236.96 278.867 237.28 278.843C238.27 278.77 236.168 280.601 235.523 281.402C235.284 281.699 233.867 283.788 232.85 285.368L233.837 286.188C235.196 285.356 236.567 284.265 237.36 283.697C237.776 283.398 238.816 282.432 238.695 282.954C238.592 283.394 235.309 287.317 235.41 287.411C236.153 288.097 240.597 282.367 237.876 286.931C237.469 287.615 237.196 288.072 236.905 288.837L233.837 286.188C233.086 286.648 232.313 287.199 231.726 287.087C231.598 287.063 232.414 286.046 232.85 285.368L230.525 283.358C230.284 283.443 229.512 284.075 229.501 283.929C229.48 283.645 229.838 283.322 230.081 282.994L228.796 281.899C228.346 282.21 227.963 282.637 227.479 282.888C227.277 282.993 226.957 283.204 226.682 283.393C232.338 288.178 238.691 292.561 243.517 293.06C244.452 293.157 245.041 293.638 246.084 293.317C248.132 292.688 250.306 267.424 250.944 264.993C251.107 264.374 252.92 253.033 251.013 252.741ZM227.805 281.029L226.768 280.164C225.908 280.741 225.054 281.265 224.371 281.58C224.929 282.083 225.56 282.44 226.139 282.937C226.379 282.526 227.082 281.802 227.805 281.029ZM219.781 270.217C219.744 269.718 220.697 270.149 221.163 270.115C222.56 270.012 223.958 269.909 225.356 269.806C224.767 269.849 220.765 270.101 220.632 270.451C220.615 270.496 220.693 270.506 220.685 270.547C221.086 270.513 221.553 270.459 221.806 270.662C222.308 271.068 222.426 271.783 223.406 271.635C223.939 271.555 220.459 271.742 220.685 270.547C220.22 270.585 219.809 270.607 219.781 270.217ZM139.982 259.837C139.206 259.722 138.263 259.731 137.561 260.313C134.164 263.136 136.838 282.007 137.271 287.16C136.435 286.929 138.218 285.567 138.82 284.914C139.107 284.602 139.736 284.123 140.78 283.232L138.521 284.638C140.071 283.656 140.352 283.486 142.129 282.042C141.327 282.711 141.506 282.613 140.78 283.232L143.528 281.542C145.433 279.469 147.508 277.381 149.464 277.237C150.008 277.196 148.557 277.845 148.148 278.226C147.618 278.72 147.08 279.201 146.541 279.683L150.039 277.492C148.757 280.864 143.006 284.202 140.315 286.341C140.28 286.368 138.168 288.193 137.412 288.439C137.694 291.969 138.609 300.32 142.497 300.857C150.265 301.93 163.769 289.873 167.576 283.487C169.016 281.071 174.974 276.32 172.168 272.885C168.423 268.299 155.155 263.366 149.568 262.304C146.965 261.809 143.031 258.663 141.57 260.018C141.382 260.192 140.757 259.953 139.982 259.837ZM137.271 287.16C137.28 287.268 137.308 287.656 137.315 287.752C137.322 287.855 137.388 288.126 137.397 288.242C137.476 287.924 137.817 287.431 138.49 286.723C138.044 286.94 137.567 287.242 137.271 287.16ZM148.457 267.344L139.154 274.377C141.469 271.502 145.319 268.971 148.457 267.344ZM148.17 270.985L138.569 277.742C141.674 275.162 145.405 273.667 148.766 271.536L138.569 277.742C141.47 274.139 144.471 273.33 148.17 270.985ZM147.882 282.163C146.394 286.075 141.753 287.838 139.263 290.93L147.882 282.163ZM78.4867 195.499C73.6949 198.882 65.0679 218.317 63.4072 224.081C63.2083 224.771 62.9722 225.592 62.6954 226.364L68.6793 222.7C68.1297 222.847 67.6306 222.929 67.5977 222.482L72.8941 218.918L72.9402 218.915L77.486 215.853C76.3346 216.22 75.2171 216.679 74.2267 216.886C73.8259 216.97 73.3929 216.965 72.9827 216.978C71.5469 218.437 70.0461 219.846 68.318 220.942L72.6601 217.002C72.6147 217.004 72.5672 217.009 72.5219 217.012C72.2424 217.033 71.413 217.094 71.6925 217.073C72.1077 217.043 72.4733 216.88 72.8796 216.837L74.833 215.057C74.2068 215.103 73.5701 215.15 72.9439 215.196C72.478 215.23 71.0957 215.332 71.5616 215.298C75.7087 214.992 79.8341 213.372 83.664 211.678L80.2228 214.014C81.9123 213.686 83.5175 213.515 83.8422 214.095C84.1473 214.639 82.7875 214.614 82.2271 214.809C80.7087 215.337 79.1581 215.431 77.6667 215.79C78.853 215.424 80.051 215.191 81.1188 215.486C81.3217 215.541 80.7801 215.737 80.5877 215.822C79.7712 216.183 78.9995 216.582 78.165 216.893C77.9016 216.992 75.8604 217.833 73.8896 218.597C74.5108 218.342 75.9635 217.867 77.0568 217.57C78.1109 217.492 75.9289 219.576 75.0233 220.15C73.8262 220.909 71.5596 222.442 69.1776 223.804L75.0451 220.446C73.9695 221.782 65.3811 227.151 64.245 226.647L69.1776 223.804C66.8503 225.134 64.4294 226.241 62.699 226.414C61.5222 229.699 60.2764 233.301 64.7638 234.939C67.2061 235.83 98.9416 229.819 100.433 222.342C101.109 218.952 83.1504 192.206 78.4867 195.499ZM80.2228 214.014C78.3351 214.381 76.3317 214.946 75.7545 214.989C75.4643 215.01 75.1693 215.032 74.8791 215.053C74.8707 215.062 74.8414 215.047 74.833 215.057C74.2926 215.641 73.7506 216.196 73.1985 216.764C74.6618 216.594 76.0837 216.183 77.486 215.853C77.5199 215.842 77.5406 215.807 77.5745 215.796L80.2228 214.014ZM82.7474 203.019C86.7757 203.575 75.734 206.858 74.0523 206.982L82.7474 203.019ZM82.7037 209.964C80.1544 211.58 76.6562 213.087 73.6848 213.307L82.7037 209.964ZM65.5122 88.6577C56.4669 89.132 48.2216 91.0795 46.7627 93.8584C45.4712 96.3183 61.0426 121.229 68.1439 125.603C79.8384 132.806 90.5741 93.4284 89.0425 92.3769C84.3881 89.1814 74.5575 88.1834 65.5122 88.6577ZM56.9163 100.25L59.9523 112.521C59.9125 111.795 59.8418 111.079 59.8383 110.348L58.9278 104.911C59.8269 106.516 59.8291 108.422 59.8383 110.348L60.8956 116.518C60.2573 115.378 60.0658 114.101 59.9741 112.817C57.5382 110.376 57.1701 103.691 56.9163 100.25ZM59.7027 100.342L61.9506 110.093C61.9374 108.783 61.9411 107.452 61.8476 106.183L62.4331 112.239L63.0406 114.822C62.8668 114.662 62.7755 114.353 62.621 114.159L62.9641 117.555C62.469 116.299 62.3783 114.911 62.2512 113.542C60.1729 110.209 59.963 103.872 59.7027 100.342ZM64.3503 102.429L66.3605 113.983C64.2577 114.138 63.7051 105.205 64.3503 102.429ZM62.4588 103.163L66.5689 121.207C66.1401 121.016 65.7717 120.089 65.4061 119.259L65.7395 121.268C65.4576 120.553 65.4383 119.771 65.2958 119.02C63.6428 114.924 62.6606 105.9 62.4588 103.163ZM54.6694 104.333C55.1812 105.748 55.4427 107.281 55.3533 106.067C55.3068 105.437 55.5087 108.091 54.9349 107.933C54.5605 107.83 54.1796 102.978 54.6694 104.333ZM66.9718 103.426C67.4573 102.823 67.0875 104.995 67.1464 105.793C67.264 107.388 67.3815 108.981 67.4991 110.576C67.7498 113.976 69.1334 119.527 67.8517 122.897L66.5498 105.242C66.7718 104.658 66.588 103.902 66.9718 103.426ZM73.551 105.32L73.0414 121.027C72.6213 115.33 72.536 110.678 73.551 105.32ZM69.1725 106.883C69.8247 106.835 69.2149 108.263 69.3252 108.954C70.0826 113.697 70.3057 118.481 70.66 123.285L69.6027 117.115C69.8242 119.023 69.9324 120.958 70.107 123.326L68.3758 111.156C69.0313 113.253 69.3664 115.079 69.5918 116.967L68.2194 109.036C68.5023 108.292 68.4213 106.938 69.1725 106.883ZM75.4122 107.315C75.3401 110.484 75.3061 114.078 74.7718 117.478C74.66 119.487 74.345 121.412 73.4706 123.078L74.3718 108.285C74.507 110.118 74.6589 112.184 74.7621 114.206L75.4122 107.315ZM78.1768 107.112C78.4241 110.465 78.7174 113.933 77.5218 117.077L78.1768 107.112ZM125.801 7.85114C117.395 13.0917 121.077 56.1076 122.712 58.3085C123.713 59.657 152.853 44.6979 155.488 39.7764C156.978 36.9939 131.057 4.57428 125.801 7.85114ZM126.517 15.6823C125.817 17.5243 125.511 19.2666 124.407 20.9947C123.479 22.4484 120.408 26.4464 121.029 24.814L126.517 15.6823ZM129.837 22.3794C129.475 23.9383 128.917 25.4716 128.371 26.9997L129.67 23.8793C128.173 31.4736 125.079 36.9549 121.338 44.0797L125.114 34.9752C124.287 36.8342 122.811 40.1475 123.197 39.1329L129.837 22.3794ZM128.843 23.3452C128.91 23.3777 128.839 23.6126 128.586 24.2567C127.364 27.3672 124.302 36.4686 121.582 39.847L125.474 30.4364L122.318 35.3797C122.572 33.1029 124.283 31.3922 125.788 29.6694L128.266 23.6853C128.575 23.4892 128.776 23.3128 128.843 23.3452ZM133.031 26.1107C134.031 25.359 128.613 38.1361 128.241 39.0585C127.491 40.9177 126.734 42.7334 125.961 44.5817L132.193 27.3129C132.63 26.5795 132.888 26.2181 133.031 26.1107ZM133.568 28.9966C133.688 28.9986 133.517 29.5439 133.011 30.8723C132.596 31.9642 132.118 33.1557 131.688 34.292C132.551 34.7962 131.963 36.6005 130.952 38.7594C131.13 38.5546 131.392 38.3205 131.554 38.12L130.875 38.9634C129.041 42.8043 125.899 47.709 125.418 49.7786L126.525 46.5731C126.12 47.4251 125.8 48.3765 125.374 49.1868L127.734 42.8643L125.655 45.4473L124.963 47.3825C124.034 48.5373 124.57 47.9605 124.942 47.0866C125.159 46.5755 125.354 46.0648 125.57 45.5527L124.084 47.3977C124.822 45.4578 126.424 43.5798 128.119 41.7947L130.249 36.1336L130.975 34.0471C130.996 34.0456 131.001 34.0447 131.022 34.0437L132.415 30.3212C133.042 29.5418 133.448 28.9945 133.568 28.9966ZM132.321 37.2204C132.639 41.5352 128.009 47.2061 125.462 50.3704L132.321 37.2204ZM133.793 37.7069C134.503 37.6546 134.792 38.5452 134.459 39.195C132.295 43.4172 130.676 45.4661 128.453 48.216C128.119 48.6152 128 48.8779 127.65 49.2669C127.35 49.6363 127.177 49.8545 126.844 50.2685L127.13 49.7515C125.72 51.2631 124.251 52.7899 123.365 53.3514L128.356 47.529L133.793 37.7069ZM298.366 187.906C295.698 188.588 283.872 223.031 283.698 224.59C283.344 227.766 284.106 229.423 286.371 230.201C286.371 230.201 292.913 231.485 293.998 231.02C295.014 209.4 286.871 228.898 287.424 229.003C287.44 229.211 294.482 219.989 295.132 219.028C297.448 215.605 291.106 229.9 291.106 229.9L293.251 231.121C293.251 231.121 305.013 231.826 310.987 230.908L309.792 228.517C309.492 228.69 309.175 228.866 308.97 228.676C308.841 228.558 309.242 227.995 309.358 227.656L308.661 226.369C307.619 227.608 306.077 229.368 305.376 228.941C305.213 228.842 305.298 228.497 305.329 228.3C305.543 226.937 306.398 225.321 307.355 223.738L307.301 223.643C306.25 225.126 302.581 230.41 302.331 229.965C301.866 229.135 305.301 223.066 305.718 222.272C305.806 222.103 305.496 221.06 305.604 220.829C304.947 222.266 303.439 225.959 302.017 225.095C301.922 225.037 301.615 231.098 300.959 230.492C300.777 230.324 298.529 230.165 298.505 229.8C298.24 230.177 300.262 223.177 300.03 223.578C299.61 224.307 295.856 231.096 295.882 230.237C295.912 229.216 297.313 229.845 297.531 228.831C295.529 231.395 294.075 230.21 294.075 230.21C295.077 228.236 301.276 218.845 301.276 218.845C301.397 218.577 299.681 229.454 299.681 229.454C299.681 229.454 306.284 221.137 306.205 221.343C306.2 221.357 306.173 221.43 306.167 221.445L307.301 223.643C307.49 223.377 307.914 222.775 307.973 222.701C308.533 222.006 309.782 220.567 309.223 221.262C308.579 222.062 308.092 222.518 307.355 223.738L308.661 226.369C308.978 225.992 309.477 225.462 309.602 225.308C309.632 225.27 313.26 221.537 313.269 221.662C313.29 221.946 309.795 226.382 309.358 227.656L309.792 228.517C310.956 227.843 316.555 222.362 315.864 225.338C315.722 225.95 311.501 229.673 311.358 230.285C311.315 230.474 311.258 230.653 311.214 230.841C313.546 230.478 316.108 230.229 318.135 229.835C320.495 229.377 326.526 226.964 326.869 223.886C327.282 220.183 303.332 188.373 300.054 188.178C299.496 188.145 298.932 187.761 298.366 187.906ZM289.198 218.572L285.877 228.84C284.612 225.631 287.74 221.554 289.198 218.572ZM302.632 88.279C300.559 88.3753 298.521 88.5505 296.678 89.2138C292.773 90.6189 293.986 95.7514 293.839 99.0922C293.783 100.369 294.549 103.99 294.099 103.238C293.838 102.802 294.788 104.922 295.284 106.126C295.922 107.673 296.805 110.604 296.987 112.248C297.548 117.315 298.116 123.583 300.827 127.882C301.188 128.455 301.289 129.518 301.766 129.945C302.667 130.75 306.115 130.862 307.244 130.731C310.018 130.408 313.125 128.552 315.351 126.959C319.431 124.041 323.863 121.06 327.073 116.922L326.907 111.529C326.098 108.424 326.023 104.227 326.742 101.129L326.798 102.513C326.869 101.25 326.984 99.2761 327.207 99.2597C328.139 99.1909 327.355 101.271 327.429 102.268C327.488 103.066 327.544 103.837 327.603 104.635C327.908 108.761 326.909 112.818 327.116 116.869C327.551 116.305 328.044 115.798 328.428 115.186C330.757 111.468 333.004 107.352 335.702 103.889C337.777 101.225 341.638 96.087 341.1 92.2849C340.662 89.1882 332.817 88.1074 330.451 87.963C323.156 87.5181 315.916 87.1423 308.724 87.9784C306.794 88.2029 304.704 88.1826 302.632 88.279ZM307.977 105.487L311.767 122.959C312.102 127.496 310.841 126.595 310.363 122.765C309.674 117.238 308.39 111.079 307.977 105.487ZM314.404 105.311L316.439 124.747C316.021 119.083 312.642 109.942 314.404 105.311ZM316.385 105.165L317.556 121.045C317.186 116.03 315.25 110.051 316.385 105.165ZM310.302 106.853C310.721 107.602 311.078 109.793 311.407 112.424L313.45 122.538C312.972 130.623 312.332 119.814 311.407 112.424L310.302 106.853ZM303.752 109.121C304.155 109.494 304.519 110.984 304.818 112.91C304.995 112.078 305.031 111.411 305.243 110.499L304.959 114.189C305.404 117.488 305.715 120.526 306.037 123.779L307.487 129.622C307.596 131.097 306.716 129.497 306.61 129.042C306.429 128.26 306.223 125.665 306.037 123.779L304.647 118.129L304.235 123.217L303.948 126.858C303.432 122.973 303.651 119.7 304.187 116.279L303.53 113.65C303.43 112.295 303.687 111.045 303.795 109.713C303.811 109.514 303.609 108.99 303.752 109.121ZM307.159 109.465L309.799 126.427C308.281 122.576 307.815 118.366 307.511 114.249C307.475 113.75 307.439 113.268 307.402 112.769C307.321 111.672 307.078 108.368 307.159 109.465ZM302.711 110.09C302.667 109.492 302.83 111.316 302.846 111.915C302.865 112.643 302.851 113.368 302.867 114.095L303.549 129.615C303.191 128.47 303.14 128.593 303.116 127.515C303.106 127.084 303.122 126.656 303.113 126.225L300.573 115.653C300.658 115.43 300.957 114.057 301.403 115.592C302.368 118.914 302.743 122.252 303.07 125.634C302.993 121.783 302.955 117.946 302.867 114.095L302.711 110.09Z" fill="#ef9f46" fill-rule="nonzero" opacity="1" stroke="#4b4b4b" stroke-linecap="butt" stroke-linejoin="round" stroke-width="2.90065" vectornator:layerName="Кривая 123"/>
<path d="M184.603 53.8933C130.568 57.8779 90.1166 106.314 94.2309 162.107C98.3452 217.901 145.464 259.879 199.499 255.895C253.533 251.91 293.985 203.474 289.871 147.681C285.757 91.8872 238.637 49.9087 184.603 53.8933ZM158.573 74.7046C161.565 74.5949 167.012 71.7454 170.091 71.7244L149.636 76.0083C152.607 75.1393 155.581 74.8143 158.573 74.7046ZM155.22 76.9848C159.915 76.5569 166.717 77.2466 171.24 77.7138L133.232 82.9058C137.574 81.3939 150.526 77.4128 155.22 76.9848ZM157.361 85.9894L115.51 99.1874C124.949 93.2036 146.426 86.7957 157.361 85.9894ZM150.295 96.4869L114.616 106.209C125.879 101.23 137.24 100.786 150.295 96.4869ZM159.25 101.48L113.1 116.392C114.2 116.281 141.777 108.427 142.982 108.339L105.969 120.88C108.097 116.827 112.612 114.795 116.428 112.571C119.655 110.691 134.477 107.49 137.211 106.481L117.579 109.958C117.998 109.568 118.294 108.911 118.835 108.774C126.373 106.867 133.995 105.249 141.637 103.87C147.468 102.818 153.382 102.272 159.25 101.48ZM163.531 109.891C168.947 109.328 174.492 108.99 180.228 108.908L116.149 122.608C132.142 115.537 147.281 111.581 163.531 109.891ZM133.905 112.721L101.579 129.831C100.651 128.173 104.509 127.567 106.068 126.624C108.793 124.976 111.437 123.189 114.066 121.373C120.54 116.902 126.309 114.197 133.905 112.721ZM138.072 119.603L124.027 127.035C127.576 125.903 131.216 124.97 134.719 123.768C145.108 120.201 156.357 119.643 167.202 118.843L116.495 131.062L101.915 138.781C102 138.416 101.868 137.885 102.158 137.672C106.823 134.238 111.519 130.782 116.546 127.984C123.334 124.206 130.585 121.319 138.072 119.603ZM116.495 131.062L124.027 127.035C120.236 128.245 116.548 129.712 113.171 131.852L116.495 131.062ZM151.873 129.187L98.7453 153.678C102.403 151.359 106.003 147.421 109.705 145.184C122.393 137.52 138.165 133.96 151.873 129.187ZM161.438 136.177L129.908 145.841L101.407 158.901C102.069 157.159 103.991 156.333 105.502 155.376C108.881 153.233 112.338 151.211 115.795 149.212C115.949 148.807 116.016 148.317 116.364 148.129C119.171 146.606 122.549 144.887 125.444 143.524C128.269 142.194 130.608 141.211 133.58 140.363C142.636 137.78 152.072 136.868 161.438 136.177ZM115.795 149.212C115.633 149.639 115.385 149.964 115.184 150.348L129.908 145.841L147.16 137.924C136.905 140.544 126.435 143.07 117.08 148.423C116.645 148.672 116.229 148.961 115.795 149.212ZM173.136 139.628L101.651 162.083C102.078 161.812 112.771 155.655 113.247 155.499C123.159 152.252 133.062 148.99 143.088 146.158C152.964 143.368 163.023 141.25 173.136 139.628ZM140.222 153.162L102.225 169.997C105.141 166.375 109.649 164.504 113.774 162.65C122.35 158.795 131.163 155.477 140.222 153.162ZM163.385 157.553L129.267 160.046L100.015 183.199C117.724 171.973 142.737 159.076 163.385 157.553ZM163.434 170.144C167.851 169.767 172.258 169.494 176.611 169.173L128.97 178.983L109.154 186.692C109.133 186.682 117.935 181.956 120.122 180.875C128.641 176.662 137.327 173.437 146.667 172.075L143.875 173.173C150.312 171.728 156.831 170.708 163.434 170.144ZM143.875 173.173C137.394 174.628 131.025 176.494 125.09 179.765L128.97 178.983L143.875 173.173ZM161.872 178.491L111.981 192.979C128.299 185.764 144.093 180.932 161.872 178.491ZM172.417 189.564L117.075 203.016C117.031 202.413 129.722 198.963 131.831 198.308C144.889 194.254 158.784 190.569 172.417 189.564ZM181.6 200.39L122.413 211.945C123.604 208.812 128.538 210.183 131.635 209.479C136.488 208.378 141.305 207.025 146.148 205.88C157.781 203.132 169.701 201.268 181.6 200.39ZM129.866 213.13C132.627 212.66 135.794 213.45 138.633 213.277L127.298 214.113C128.11 213.598 128.946 213.287 129.866 213.13ZM198.076 209.588C183.736 213.781 169.648 216.974 154.823 219.224C151.853 219.674 148.786 219.794 145.753 219.992L138.538 221.416C139.945 221.575 141.333 221.666 142.736 221.801L167.704 221.15C160.36 221.691 152.995 222 145.629 222.083C144.682 222.094 143.703 221.894 142.736 221.801L135.615 221.979L134.931 222.129C135.064 222.07 135.205 222.055 135.338 221.999L129.883 222.154C132.288 221.09 134.897 221.091 137.56 221.34C136.813 221.555 136.063 221.699 135.338 221.999L135.615 221.979L138.538 221.416C138.226 221.381 137.917 221.366 137.606 221.336C140.247 220.579 142.962 220.174 145.753 219.992L198.076 209.588ZM206.01 217.284C188.476 222.845 170.917 227.408 152.515 228.765L206.01 217.284ZM137.545 230.564C146.175 229.927 155.502 229.906 164.061 230.79L137.545 230.564ZM228.389 229.269C204.451 234.287 179.512 236.444 155.205 238.236L228.389 229.269ZM220.147 240.637C204.472 243.493 188.682 243.701 172.835 244.87L220.147 240.637Z" fill="#ef9f46" fill-rule="nonzero" opacity="1" stroke="#4b4b4b" stroke-linecap="butt" stroke-linejoin="round" stroke-width="5" vectornator:layerName="Кривая 122"/>
<path d="M120.473 86.3357C122.58 83.5519 128.47 77.2992 131.289 75.7039C136.556 72.7234 141.249 67.1879 147.019 64.9882C158.623 60.5638 171.304 54.223 183.929 54.0074C195.14 53.8158 206.479 53.6725 217.596 56.1407C220.415 56.7665 236.551 61.6558 240.615 64.937C244.538 68.1037 256.75 76.3313 258.553 77.7861C263.37 81.6749 276.724 99.8227 278.112 101.732C279.032 102.996 282.683 116.262 284.23 120.877C289.398 136.295 291.929 154.386 288.984 170.806C288.337 174.41 278.834 202.459 272.565 210.746C269.912 214.253 261.559 225.095 260.11 227.21C256.972 231.791 250.452 236.262 245.636 238.098C242.642 239.239 240.12 241.991 237.004 243.179C231.394 245.317 226.619 249.918 220.669 251.196C216.587 252.073 212.874 253.711 208.776 254.592C202.817 255.872 184.065 257.133 180.943 256.905C175.375 256.499 170.684 253.612 165.364 252.431C163.65 252.051 162.172 250.372 160.473 249.903C154.58 248.277 148.396 245.642 143.721 241.483C142.055 240.001 136.335 235.724 135.144 234.665C131.075 231.046 116.811 218.534 115.538 215.944C113.565 211.928 109.68 209.207 107.407 205.539C101.636 196.225 100.022 188.311 97.6756 177.846C95.5013 168.147 93.6179 158.859 93.3652 148.901C93.179 141.565 95.7834 133.883 97.3653 126.874C98.1967 123.19 106.103 104.951 109.382 100.164C111.065 97.7066 119.959 87.0158 120.473 86.3357Z" fill="#ffffff" fill-opacity="0" fill-rule="nonzero" opacity="1" stroke="#4b4b4b" stroke-linecap="butt" stroke-linejoin="round" stroke-width="4.01164" vectornator:layerName="Кривая 23"/>
</g>
</g>
<g id="Слой-2" vectornator:layerName="Слой 2">
<path d="M76.8325 279.21C74.3503 286.476 76.8338 299.023 82.0382 303.225C87.2426 307.427 94.3352 310.102 99.406 311.262C105.065 312.557 111.54 311.433 117.409 309C123.278 306.566 128.54 302.822 131.775 298.875C132.934 297.461 134.605 293.961 136.108 290.813C137.611 287.666 138.944 284.872 139.426 284.872C139.916 284.872 139.916 286.084 139.794 287.43C139.671 288.777 139.426 290.258 139.426 290.796C139.426 293.031 139.366 295.274 139.631 297.453C139.895 299.631 140.484 301.745 141.78 303.722C144.654 308.105 149.7 312.406 155.477 315.345C161.254 318.285 167.763 319.863 173.561 318.802C180.733 317.489 186.572 313.689 191.23 308.818C195.888 303.948 199.365 298.007 201.81 292.412C202.166 291.598 202.417 289.752 202.748 287.956C203.079 286.16 203.489 284.413 204.164 283.795C204.442 283.541 204.442 283.9 204.372 284.413C204.303 284.925 204.164 285.59 204.164 285.949C204.164 286.973 204.251 287.845 204.441 288.698C204.632 289.551 204.926 290.385 205.341 291.335C206.343 293.626 207.274 296.083 208.52 298.355C209.765 300.626 211.324 302.712 213.581 304.261C219.261 308.159 226.261 310.494 233.564 311.63C240.867 312.766 248.473 312.702 255.366 311.8C261.765 310.964 267.884 307.844 273.095 303.666C278.307 299.488 282.611 294.251 285.381 289.181C286.318 287.467 286.906 285.711 287.261 283.915C287.615 282.12 287.735 280.284 287.735 278.41L287.735 275.717L287.735 273.024C287.735 273.024 289.813 274.312 292.126 275.73C294.439 277.148 296.988 278.694 297.929 279.21C320.804 291.748 337.364 282.04 344.663 267.9C351.961 253.76 349.999 235.188 335.83 229.997C331.855 228.541 331.934 227.192 333.062 226.2C334.19 225.209 336.365 224.576 336.583 224.553C345.352 223.624 352.68 217.845 357.495 209.877C362.31 201.909 364.611 191.753 363.326 182.071C362.451 175.477 359.193 169.112 354.166 164.322C349.138 159.531 342.341 156.315 334.386 156.019C325.973 155.706 315.966 157.911 308.062 164.096C300.158 170.28 295.073 183.717 295.073 199.318C295.073 185.023 283.955 175.016 270.286 170.926C256.616 166.835 243.614 176.518 233.406 196.367C235.484 178.428 223.674 155.63 209.66 154.833C195.646 154.036 175.495 164.109 177.346 177.872C166.042 134.244 139.574 102.494 84.9731 123.873C51.2156 137.09 26.6996 195.808 73.3692 217.155C49.8291 215.626 37.7757 231.99 36.4097 244.94C35.0438 257.89 49.8025 278.517 70.371 270.899C78.7673 267.79 80.9092 267.522 80.0008 269.72C79.0924 271.918 76.8258 279.21 76.8258 279.21" fill="#a9e0ff" fill-rule="nonzero" opacity="1" stroke="#4b4b4b" stroke-linecap="butt" stroke-linejoin="round" stroke-width="2.00401" vectornator:layerName="Кривая 1"/>
<path d="M56.2958 152.236C57.8955 149.309 62.4972 148.125 65.373 146.303C74.4204 140.571 84.1655 135.265 94.2257 131.173M49.1637 166.773C53.9633 157.989 72.4587 152.406 81.2582 148.38C85.2259 146.564 90.0021 143.93 94.5499 143.93M47.5428 176.266C53.5259 165.316 73.4536 159.146 84.8242 154.906C89.1437 153.296 93.4776 151.164 98.1159 150.456M50.1363 183.089C49.0244 183.089 52.5976 181.609 54.3507 179.826C56.9544 177.179 59.5038 174.705 62.7795 172.706C69.6114 168.538 83.119 166.658 91.308 164.993M52.4056 193.769C50.7829 190.8 58.4713 185.367 59.8619 184.276C67.4901 178.293 78.4214 175.846 87.7419 173.003M54.0265 199.999C52.9655 198.057 56.232 196.141 57.5925 194.363C60.9762 189.939 64.9149 185.54 70.8842 183.979C73.5524 183.282 76.3117 183.906 78.9889 183.089M60.186 205.043C63.0949 197.057 73.3918 188.672 82.2308 186.649M66.0214 207.416C71.6023 202.309 75.2229 194.696 83.5275 193.176M71.2084 207.416C72.3478 204.288 75.9794 202.5 79.3131 201.483M38.1413 240.939C43.8164 230.552 48.9833 226.44 61.807 223.732C64.106 223.247 66.1968 221.952 68.6149 221.952M37.8171 249.542C37.6234 249.897 37.1688 250.659 37.1688 251.025C37.1688 251.745 37.525 249.617 37.8171 248.949C38.0864 248.333 38.4655 247.762 38.7897 247.169C40.1005 244.77 41.4131 243.042 43.3283 240.939C47.677 236.164 55.8594 230.259 63.1037 230.259M43.3283 254.289C41.2013 254.289 44.9781 249.206 45.5976 248.356C49.1463 243.484 53.9678 240.817 59.5377 238.269M44.9493 263.189C44.115 261.662 45.4188 259.789 45.9218 258.145C47.4489 253.155 50.3558 248.231 56.2958 246.872M51.433 266.155C51.433 259.752 53.8696 254.483 59.5377 251.025M78.0163 281.285C78.0163 272.758 92.4882 264.249 99.0885 260.222M77.3679 290.185C82.9782 279.917 90.1439 270.763 102.33 267.045M79.6373 297.305C79.6373 294.771 83.1162 289.557 84.1759 287.812C87.1021 282.992 91.4456 279.608 96.495 276.835M84.8242 299.975C84.7162 299.678 84.3541 299.368 84.5001 299.085C86.2346 295.724 88.2792 292.501 90.3354 289.295C92.2577 286.298 93.4606 285.222 96.1708 283.362M88.7145 302.645C87.3589 303.265 90.09 296.493 90.6596 295.525C92.9644 291.608 96.8033 289.606 100.061 286.625M93.5773 303.832C95.9683 297.268 96.7378 295.303 101.682 290.778M141.233 294.635C143.352 292.696 143.783 289.671 145.123 287.218C148.318 281.37 152.693 274.361 159.711 271.792M145.771 304.128C145.771 301.594 147.606 299.341 148.689 297.008C150.736 292.601 152.657 287.639 156.145 283.955C158.591 281.373 161.647 279.514 164.25 277.132M149.986 309.468C149.878 309.271 149.583 309.084 149.662 308.875C150.797 305.853 152.093 302.878 153.552 299.975C156.023 295.058 158.162 292.361 162.629 289.295M153.228 310.358C156.677 304.046 159.982 299.184 164.898 294.042M160.684 309.765C159.003 306.688 166.219 299.953 168.789 297.602M208.015 295.525C208.015 288.464 215.023 279.323 220.01 274.759M210.609 299.085C210.609 289.604 225.021 279.877 231.033 273.275M214.823 304.128C214.823 302.411 218.329 296.876 219.038 295.525C222.772 288.405 228.104 281.762 234.923 276.835C238.011 274.604 241.738 273.468 244.973 271.495M219.686 304.128C224.944 289.693 239.93 280.032 254.05 273.572M226.818 307.392C230.972 295.989 243.861 284.605 255.671 279.802M233.626 309.172C233.626 305.769 237.713 303.466 240.11 300.865C246.467 293.965 253.114 289.13 261.83 285.142M247.566 305.908C250.578 300.395 256.041 297.273 261.182 293.745M346.119 160.84C348.427 161.896 348.711 164.097 349.037 166.18C350.292 174.223 344.175 180.196 337.366 184.869M353.251 167.366C356.733 167.366 354.356 175.486 353.899 177.156C352.243 183.22 346.973 190.088 339.959 191.693M359.086 176.266C359.086 178.64 359.579 181.056 359.086 183.386C357.726 189.819 346.345 193.836 341.256 197.329M358.762 187.243C357.986 187.243 356.842 191.221 355.844 192.286C352.818 195.517 345.992 199.406 341.256 199.406M357.79 194.659C355.094 199.592 350.001 203.562 344.174 205.339M356.169 202.076C358.159 205.719 344.893 211.956 342.229 213.349M291.98 274.165C291.98 271.045 291.957 267.332 292.628 264.672C293.558 260.984 295.438 257.552 296.842 253.992M295.87 275.352C297.658 270.444 298.814 267.23 301.705 261.112C302.748 258.905 305.088 252.819 308.513 250.729M302.678 279.505C305.421 276.995 304.28 272.555 305.271 269.122C306.25 265.732 307.791 261.948 311.107 259.925M307.216 280.989C305.612 279.52 306.68 276.776 307.216 274.759C308.36 270.455 310.195 268.807 312.728 265.562M310.782 281.285C309.281 278.537 315.962 270.315 318.563 267.935M312.403 281.582C313.318 276.558 318.386 273.354 322.453 270.309M317.266 280.989C317.993 277.664 321.294 275.882 324.398 274.462M122.646 131.03C124.862 131.03 125.455 129.09 127.839 128.653C137.144 126.95 148.901 133.089 156.404 137.208M134.591 137.683C136.642 138.622 138.681 138.456 140.823 139.109C145.848 140.642 150.869 143.495 155.365 146.238M142.381 146.238C150.207 149.819 169.907 150.461 169.907 161.922M150.691 155.268C154.102 161.511 165.332 161.82 169.907 168.1M154.846 163.823C157.884 169.384 166.805 170.489 171.465 174.754" fill="#a9e0ff" fill-rule="nonzero" opacity="1" stroke="#4b4b4b" stroke-linecap="butt" stroke-linejoin="round" stroke-width="2.00401" vectornator:layerName="Кривая 2"/>
<path d="M118.196 350.863C118.344 350.165 119.156 349.408 119.546 348.77C120.473 347.252 121.429 345.728 122.382 344.215C124.753 340.45 127.062 336.601 129.254 332.737C130.348 330.808 131.614 327.736 133.344 326.277M111.596 329.445C111.83 329.805 112.552 329.943 112.92 330.236C114.973 331.871 117.141 333.336 119.368 334.738C123.63 337.422 127.816 340.262 132.063 343.001C133.848 344.154 135.972 345.059 137.618 346.37M111.415 341.342C113.283 342.026 116.955 340.984 118.787 340.507C125.249 338.825 132.431 338.207 138.492 335.395M121.668 323.895C121.944 326.332 123.071 328.747 123.548 331.149C124.339 335.137 125.652 339.015 126.759 342.896C127.349 344.965 127.881 347.075 128.463 349.112C128.672 349.846 128.72 350.803 129.138 351.446M177.941 354.051C178.089 353.353 178.902 352.597 179.292 351.958C180.218 350.441 181.174 348.917 182.127 347.404C184.498 343.638 186.807 339.789 189 335.925C190.094 333.996 191.359 330.924 193.089 329.465M171.342 332.633C171.576 332.994 172.298 333.131 172.666 333.424C174.719 335.059 176.887 336.524 179.114 337.927C183.376 340.611 187.562 343.45 191.808 346.19C193.594 347.342 195.718 348.248 197.363 349.559M171.16 344.53C173.029 345.214 176.701 344.172 178.532 343.695C184.995 342.013 192.177 341.396 198.237 338.583M181.413 327.083C181.689 329.52 182.817 331.936 183.293 334.337C184.085 338.326 185.397 342.203 186.505 346.085C187.095 348.154 187.627 350.264 188.208 352.301C188.417 353.034 188.466 353.991 188.884 354.635M233.563 350.863C233.711 350.165 234.523 349.408 234.913 348.77C235.84 347.252 236.796 345.728 237.749 344.215C240.12 340.45 242.429 336.601 244.621 332.737C245.716 330.808 246.981 327.736 248.711 326.277M226.963 329.445C227.198 329.805 227.92 329.943 228.288 330.236C230.341 331.871 232.509 333.336 234.736 334.738C238.998 337.422 243.184 340.262 247.43 343.001C249.216 344.154 251.339 345.059 252.985 346.37M226.782 341.342C228.651 342.026 232.323 340.984 234.154 340.507C240.617 338.825 247.799 338.207 253.859 335.395M237.035 323.895C237.311 326.332 238.438 328.747 238.915 331.149C239.706 335.137 241.019 339.015 242.127 342.896C242.717 344.965 243.249 347.075 243.83 349.112C244.039 349.846 244.088 350.803 244.506 351.446M205.018 381.602C205.166 380.905 205.979 380.148 206.369 379.509C207.295 377.992 208.251 376.468 209.204 374.955C211.575 371.19 213.884 367.341 216.077 363.476C217.171 361.547 218.436 358.476 220.166 357.016M198.419 360.185C198.653 360.545 199.375 360.682 199.743 360.975C201.796 362.611 203.964 364.075 206.191 365.478C210.453 368.162 214.639 371.002 218.885 373.741C220.671 374.893 222.795 375.799 224.44 377.11M198.237 372.081C200.106 372.765 203.778 371.723 205.609 371.247C212.072 369.564 219.254 368.947 225.314 366.134M208.49 354.635C208.766 357.072 209.894 359.487 210.37 361.888C211.162 365.877 212.474 369.755 213.582 373.636C214.172 375.705 214.704 377.815 215.285 379.852C215.494 380.585 215.543 381.542 215.961 382.186M145.273 381.602C145.421 380.905 146.233 380.148 146.623 379.509C147.55 377.992 148.506 376.468 149.459 374.955C151.83 371.19 154.139 367.341 156.331 363.476C157.425 361.547 158.691 358.476 160.421 357.016M138.673 360.185C138.907 360.545 139.629 360.682 139.997 360.975C142.05 362.611 144.218 364.075 146.445 365.478C150.707 368.162 154.893 371.002 159.14 373.741C160.926 374.893 163.049 375.799 164.695 377.11M138.492 372.081C140.36 372.765 144.032 371.723 145.864 371.247C152.326 369.564 159.508 368.947 165.569 366.134M148.745 354.635C149.021 357.072 150.148 359.487 150.625 361.888C151.416 365.877 152.729 369.755 153.836 373.636C154.426 375.705 154.958 377.815 155.54 379.852C155.749 380.585 155.797 381.542 156.215 382.186" fill="#a9e0ff" fill-rule="nonzero" opacity="1" stroke="#4b4b4b" stroke-linecap="butt" stroke-linejoin="round" stroke-width="2.00401" vectornator:layerName="Кривая 3"/>
</g>
</svg>
