<?xml version="1.0" encoding="UTF-8" standalone="no"?>
<svg height="100%" stroke-miterlimit="10" style="fill-rule:nonzero;clip-rule:evenodd;stroke-linecap:round;stroke-linejoin:round;" version="1.1" viewBox="0 0 400 400" width="100%" xml:space="preserve" xmlns="http://www.w3.org/2000/svg" xmlns:vectornator="http://vectornator.io" xmlns:xlink="http://www.w3.org/1999/xlink">
<defs/>
<g id="Слой-1" vectornator:layerName="Слой 1">
<path d="M270.795 34.1599C267.773 34.6969 264.422 37.1273 262.504 38.5785C254.534 44.6108 247.929 51.1443 241.777 58.9041C240.139 60.9708 236.165 64.3006 235.647 66.9164C235.07 69.8259 234.427 72.1072 236.639 74.3397C237.102 74.8067 242.366 77.0388 241.894 77.1676C240.406 77.5738 243.987 78.5451 244.58 78.9939C246.805 80.678 248.955 82.3735 251.353 83.8249C255.054 86.066 259.657 87.6498 263.088 90.2466C264.895 91.6139 267.365 94.275 269.686 94.6652C270.998 94.8859 272.101 94.7079 273.247 93.8404C275.465 92.1619 276.771 85.7029 277.218 83.0001C279.215 70.9063 278.514 59.942 277.042 48.0638C276.742 45.6377 276.12 35.3902 273.656 34.3956C272.792 34.0469 271.803 33.981 270.795 34.1599ZM263.789 51.7754C257.873 54.8707 252.641 58.5506 245.748 58.5506L263.789 51.7754ZM260.636 56.4296C258.024 58.0109 255.21 59.2213 252.462 60.5537L252.871 60.4358L258.125 59.2575C256.081 59.9452 251.937 61.7104 247.966 62.7924C247.45 63.0244 246.965 63.33 246.448 63.5583C245.46 63.9946 235.653 67.2081 239.384 65.3257L243.646 63.5583C243.071 63.5852 242.629 63.4512 242.128 63.3816C241.79 63.4024 241.475 63.5583 241.135 63.5583L241.894 63.3816C241.424 63.2989 240.814 63.3961 240.435 63.2048L248.959 61.3195L260.636 56.4296ZM256.724 62.4978C252.591 64.1971 245.28 68.4874 240.084 66.7397L256.724 62.4978ZM255.907 327.142C253.094 326.533 207.57 341.651 207.33 343.697C207.179 344.984 212.12 351.319 218.54 357.837C219.256 356.935 220.157 355.979 220.233 355.892C220.341 355.769 220.475 355.663 220.583 355.539L218.773 353.83C217.928 354.226 217.009 354.649 216.672 354.478C215.925 354.102 216.831 353.583 217.956 353.064L215.621 350.885C219.651 348.851 221.624 347.432 226.247 345.523C226.793 345.298 228.172 344.939 228.057 345.523C227.573 347.964 222.052 350.78 220.233 352.004C219.728 352.344 218.775 352.687 217.956 353.064L218.773 353.83C220.045 353.235 221.331 352.524 221.634 352.357C223.216 351.487 224.593 350.542 226.247 349.471C226.367 349.36 226.476 349.226 226.597 349.117C227.309 348.479 229.108 347.703 229.108 347.703C229.108 347.703 227.269 348.808 226.247 349.471C224.243 351.323 222.398 353.472 220.583 355.539L222.802 357.601C225.41 356.201 228.161 354.459 228.757 354.125C229.502 353.708 230.178 353.226 230.859 352.711C231.07 352.551 231.747 352.169 231.56 352.357C230.7 353.225 226.886 356.237 224.028 358.72L225.196 359.84C227.464 358.581 229.576 357.07 231.91 355.892C232.578 355.555 234.07 354.432 234.07 355.185C234.07 356.968 228.529 359.271 226.714 361.254L227.239 361.725C229.23 361.214 235.767 356.953 236.172 356.953C237.427 356.953 234.608 358.944 233.72 359.84C233.391 360.171 231.411 362.528 229.983 364.317L231.151 365.378C232.941 364.509 234.771 363.333 235.822 362.726C236.374 362.408 237.775 361.352 237.574 361.961C237.404 362.475 232.901 366.848 233.02 366.968C233.892 367.848 240.026 361.431 236.172 366.615C235.595 367.391 235.209 367.911 234.771 368.795L231.151 365.378C230.161 365.858 229.136 366.445 228.407 366.261C228.248 366.221 229.371 365.085 229.983 364.317L227.239 361.725C226.928 361.805 225.896 362.489 225.896 362.314C225.896 361.975 226.377 361.622 226.714 361.254L225.196 359.84C224.6 360.17 224.078 360.644 223.444 360.9C223.18 361.007 222.758 361.229 222.393 361.43C229.077 367.611 236.676 373.375 242.712 374.392C243.881 374.589 244.58 375.211 245.923 374.922C248.563 374.353 253.651 344.526 254.681 341.694C254.943 340.972 258.283 327.657 255.907 327.142ZM224.028 358.72L222.802 357.601C221.665 358.211 220.539 358.759 219.649 359.074C220.305 359.72 221.068 360.199 221.751 360.841C222.092 360.373 223.045 359.575 224.028 358.72ZM214.92 345.17C214.92 344.574 216.081 345.17 216.672 345.17C218.442 345.17 220.214 345.17 221.985 345.17C221.238 345.17 216.171 345.119 215.971 345.523C215.946 345.574 216.043 345.594 216.029 345.641C216.537 345.637 217.131 345.613 217.431 345.877C218.027 346.403 218.108 347.263 219.357 347.173C220.036 347.124 215.633 347.041 216.029 345.641C215.439 345.646 214.92 345.636 214.92 345.17ZM115.314 325.846C114.347 325.64 113.157 325.568 112.219 326.199C107.675 329.256 109.292 351.911 109.358 358.072C108.326 357.725 110.7 356.262 111.519 355.539C111.91 355.193 112.748 354.679 114.146 353.712L111.168 355.185C113.213 354.154 113.582 353.977 115.956 352.416C114.884 353.141 115.119 353.04 114.146 353.712L117.766 351.945C120.359 349.649 123.169 347.35 125.648 347.35C126.337 347.35 124.447 347.993 123.897 348.41C123.183 348.95 122.46 349.474 121.736 350.001L126.349 347.703C124.419 351.598 116.861 355.059 113.27 357.365C113.225 357.394 110.393 359.377 109.417 359.604C109.445 363.823 109.822 373.825 114.672 374.804C124.362 376.759 142.502 363.617 147.893 356.364C149.933 353.619 157.882 348.496 154.666 344.168C150.372 338.392 134.11 331.368 127.166 329.616C123.932 328.801 119.266 324.718 117.299 326.199C117.045 326.39 116.281 326.051 115.314 325.846ZM109.358 358.072C109.36 358.201 109.358 358.665 109.358 358.779C109.358 358.902 109.416 359.23 109.417 359.368C109.545 358.997 110.021 358.442 110.935 357.66C110.353 357.879 109.724 358.195 109.358 358.072ZM125.298 335.508L112.92 343.049C116.105 339.835 121.191 337.165 125.298 335.508ZM124.597 339.809L111.869 346.996C116.023 344.202 120.863 342.753 125.298 340.516L111.869 346.996C115.86 342.969 119.718 342.271 124.597 339.809ZM123.196 353.064C120.957 357.582 114.944 359.271 111.519 362.726L123.196 353.064ZM43.7913 244.014C37.4377 247.614 24.7589 269.95 22.1302 276.652C21.8154 277.455 21.4415 278.41 21.0208 279.303L28.9029 275.474C28.1966 275.6 27.5601 275.654 27.5601 275.12L34.5663 271.35L34.6247 271.35L40.6385 268.11C39.1531 268.446 37.7021 268.892 36.4347 269.052C35.9217 269.117 35.3765 269.073 34.8583 269.052C32.9132 270.66 30.8908 272.203 28.611 273.353L34.4496 269.052C34.3921 269.051 34.3318 269.052 34.2744 269.052C33.9202 269.052 32.8693 269.052 33.2235 269.052C33.7496 269.052 34.2254 268.892 34.7415 268.876L37.3689 266.931C36.5753 266.931 35.7686 266.931 34.975 266.931C34.3847 266.931 32.6331 266.931 33.2235 266.931C38.4784 266.931 43.8283 265.367 48.8125 263.691L44.2584 266.165C46.4182 265.924 48.4572 265.861 48.8125 266.578C49.1464 267.252 47.435 267.102 46.7106 267.285C44.7479 267.78 42.7849 267.755 40.872 268.051C42.401 267.721 43.9326 267.548 45.2509 267.992C45.5014 268.076 44.8008 268.261 44.5503 268.345C43.4878 268.703 42.4781 269.108 41.3975 269.406C41.0564 269.5 38.4056 270.32 35.8508 271.055C36.6574 270.807 38.5324 270.369 39.9378 270.113C41.2736 270.113 38.3301 272.397 37.1353 273C35.5561 273.796 32.557 275.42 29.4284 276.829L37.1353 273.353C35.6556 274.846 24.3326 280.473 22.9476 279.775L29.4284 276.829C26.3716 278.206 23.2177 279.309 21.0208 279.362C19.2324 283.163 17.3276 287.334 22.8308 289.672C25.8261 290.945 66.381 286.583 68.9555 277.831C70.1227 273.863 49.9749 240.51 43.7913 244.014ZM44.2584 266.165C41.8453 266.436 39.2679 266.931 38.5366 266.931C38.1688 266.931 37.795 266.931 37.4272 266.931C37.4158 266.941 37.3803 266.921 37.3689 266.931C36.6335 267.579 35.8988 268.191 35.1502 268.817C37.0102 268.743 38.8404 268.38 40.6385 268.11C40.6822 268.1 40.7115 268.06 40.7552 268.051L44.2584 266.165ZM48.4621 253.322C53.4873 254.336 39.2662 257.269 37.1353 257.269L48.4621 253.322ZM47.7615 261.57C44.3985 263.267 39.8496 264.752 36.0844 264.752L47.7615 261.57ZM37.3689 115.933C25.925 115.704 15.3525 117.296 13.2555 120.47C11.3992 123.279 28.7088 154.241 37.2521 160.06C51.3212 169.643 68.5111 123.798 66.6785 122.414C61.1095 118.209 48.8127 116.162 37.3689 115.933ZM25.4582 128.953L28.1439 143.8C28.1613 142.933 28.1388 142.076 28.2023 141.208L27.5601 134.668C28.544 136.654 28.3697 138.918 28.2023 141.208L28.9613 148.631C28.2628 147.221 28.1402 145.686 28.1439 144.153C25.3008 141.04 25.4582 133.064 25.4582 128.953ZM28.9613 129.307L30.888 141.09C30.9932 139.532 31.1216 137.951 31.1216 136.436L31.2967 143.682L31.8222 146.805C31.6181 146.599 31.5318 146.224 31.3551 145.98L31.4719 150.045C30.9646 148.509 30.9793 146.852 30.9464 145.214C28.6369 141.072 28.9613 133.524 28.9613 129.307ZM34.6247 132.194L36.0844 146.098C33.4198 146.098 33.5535 135.436 34.6247 132.194ZM32.1725 132.901L35.6757 154.699C35.153 154.435 34.7749 153.301 34.3912 152.284L34.6247 154.699C34.3358 153.825 34.3842 152.894 34.2744 151.989C32.5717 146.978 32.1725 136.17 32.1725 132.901ZM22.2469 133.608C22.7603 135.335 22.9476 137.178 22.9476 135.729C22.9476 134.975 22.9554 138.147 22.2469 137.908C21.7847 137.753 21.7555 131.955 22.2469 133.608ZM37.8359 133.608C38.5038 132.934 37.8359 135.483 37.8359 136.436C37.8359 138.342 37.8359 140.244 37.8359 142.15C37.8359 146.212 39.0637 152.928 37.1353 156.82L37.1353 135.729C37.4693 135.055 37.3079 134.14 37.8359 133.608ZM45.9516 136.436L43.8497 155.053C43.8497 148.247 44.1745 142.712 45.9516 136.436ZM40.2881 137.908C41.1146 137.908 40.2133 139.552 40.2881 140.383C40.8018 146.084 40.6385 151.789 40.6385 157.527L39.8794 150.104C39.9813 152.39 39.9378 154.698 39.9378 157.527L38.8869 142.916C39.5183 145.465 39.7708 147.663 39.8794 149.927L38.8869 140.383C39.3126 139.524 39.3363 137.908 40.2881 137.908ZM48.1118 138.969C47.7265 142.728 47.3497 146.994 46.3603 150.988C46.0327 153.364 45.4567 155.625 44.2 157.527L46.7106 140.029C46.7106 142.219 46.71 144.687 46.6522 147.099L48.1118 138.969ZM51.615 138.969C51.615 142.975 51.6624 147.121 49.8634 150.752L51.615 138.969ZM120.86 25.2049C109.78 30.695 110.422 82.1272 112.278 84.8854C113.415 86.5754 151.529 71.3547 155.308 65.7381C157.444 62.5627 127.789 21.772 120.86 25.2049ZM121.036 34.5723C119.982 36.6995 119.434 38.7429 117.883 40.6995C116.578 42.3453 112.336 46.8265 113.27 44.9413L121.036 34.5723ZM124.597 42.8204C123.996 44.6409 123.15 46.4138 122.32 48.1816L124.247 44.5878C121.655 53.4799 117.246 59.7214 111.869 67.8591L117.474 57.3723C116.259 59.5087 114.091 63.316 114.672 62.1444L124.597 42.8204ZM123.254 43.8808C123.336 43.9252 123.224 44.1981 122.846 44.9413C121.017 48.5299 116.312 59.0755 112.57 62.8513L118.35 52.011L113.913 57.6079C114.444 54.925 116.76 53.0423 118.817 51.1273L122.495 44.2343C122.903 44.0285 123.173 43.8364 123.254 43.8808ZM128.275 47.5335C129.606 46.728 121.59 61.4345 121.036 62.4978C119.918 64.6412 118.795 66.7322 117.649 68.8606L127.108 48.8886C127.727 48.0555 128.085 47.6486 128.275 47.5335ZM128.684 51.0095C128.836 51.0225 128.569 51.6553 127.808 53.1893C127.184 54.4504 126.471 55.8241 125.823 57.1366C126.863 57.8112 125.954 59.9035 124.48 62.38C124.724 62.1523 125.076 61.8971 125.298 61.673L124.364 62.6157C121.695 67.0186 117.28 72.5708 116.482 74.9877L118.175 71.2761C117.585 72.2529 117.093 73.3552 116.482 74.2808L120.043 66.9753L117.182 69.8622L116.131 72.1009C114.852 73.3915 115.581 72.7532 116.131 71.7474C116.453 71.1593 116.746 70.5695 117.065 69.98L115.022 72.042C116.132 69.8017 118.325 67.7106 120.627 65.7381L123.838 59.1986L124.947 56.7831C124.974 56.7831 124.98 56.7826 125.006 56.7831L127.108 52.4824C127.971 51.6113 128.533 50.9965 128.684 51.0095ZM126.349 60.6715C126.349 65.8259 119.986 72.1582 116.482 75.6947L126.349 60.6715ZM128.159 61.3785C129.058 61.3785 129.339 62.4619 128.859 63.2048C125.74 68.0318 123.509 70.3244 120.452 73.397C119.994 73.8421 119.819 74.1438 119.342 74.5753C118.93 74.988 118.692 75.232 118.233 75.6947L118.642 75.1056C116.724 76.778 114.731 78.4633 113.562 79.0528L120.393 72.5722L128.159 61.3785ZM321.61 254.258C318.184 254.834 300.08 294.722 299.716 296.558C298.974 300.301 299.78 302.337 302.563 303.46C302.563 303.46 310.689 305.558 312.099 305.1C315.388 279.502 303.313 301.955 304.001 302.128C304.001 302.377 313.734 292.037 314.643 290.952C317.879 287.087 308.558 303.517 308.558 303.517L311.147 305.155C311.147 305.155 325.906 307.023 333.521 306.456L332.237 303.51C331.842 303.69 331.426 303.871 331.186 303.628C331.035 303.476 331.591 302.842 331.77 302.45L331.011 300.859C329.583 302.24 327.476 304.196 326.632 303.628C326.435 303.496 326.574 303.093 326.632 302.862C327.028 301.261 328.256 299.416 329.609 297.619L329.551 297.501C328.088 299.171 322.972 305.128 322.7 304.578C322.19 303.55 327.083 296.641 327.683 295.734C327.81 295.541 327.516 294.274 327.673 294.009C326.712 295.659 324.467 299.914 322.756 298.763C322.642 298.686 321.692 305.86 320.921 305.083C320.708 304.867 317.889 304.482 317.892 304.046C317.523 304.471 320.722 296.331 320.393 296.788C319.796 297.616 314.434 305.354 314.546 304.335C314.679 303.125 316.386 303.996 316.755 302.809C313.993 305.681 312.271 304.145 312.271 304.145C313.717 301.888 322.403 291.273 322.403 291.273C322.58 290.965 319.407 303.738 319.407 303.738C319.407 303.738 328.501 294.435 328.383 294.673C328.375 294.689 328.334 294.773 328.325 294.791L329.551 297.501C329.813 297.202 330.403 296.523 330.485 296.441C331.255 295.664 332.963 294.064 332.193 294.841C331.307 295.735 330.652 296.234 329.609 297.619L331.011 300.859C331.445 300.439 332.124 299.853 332.295 299.681C332.337 299.639 337.255 295.522 337.255 295.67C337.255 296.01 332.439 300.975 331.77 302.45L332.237 303.51C333.766 302.812 341.332 296.79 340.184 300.266C339.948 300.981 334.283 305.034 334.047 305.749C333.974 305.969 333.886 306.177 333.813 306.397C336.786 306.17 340.038 306.098 342.629 305.808C345.646 305.47 353.471 303.131 354.19 299.504C355.054 295.141 327.827 255.248 323.712 254.729C323.013 254.641 322.338 254.135 321.61 254.258ZM307.207 289.89L302.067 301.8C300.771 297.875 305.091 293.305 307.207 289.89ZM336.246 136.259C333.625 136.192 331.04 136.221 328.655 136.848C323.604 138.175 324.656 144.38 324.16 148.336C323.97 149.849 324.599 154.218 324.101 153.285C323.813 152.744 324.814 155.346 325.327 156.82C325.987 158.714 326.827 162.274 326.904 164.243C327.141 170.312 327.274 177.81 330.29 183.155C330.693 183.868 330.721 185.14 331.283 185.688C332.343 186.724 336.678 187.159 338.114 187.102C341.639 186.962 345.728 185.029 348.682 183.332C354.094 180.221 359.957 177.068 364.387 172.432L364.679 166.011C363.948 162.25 364.243 157.256 365.438 153.639L365.38 155.288C365.587 153.794 365.915 151.459 366.197 151.459C367.378 151.459 366.197 153.861 366.197 155.053C366.197 156.006 366.197 156.927 366.197 157.881C366.197 162.809 364.562 167.542 364.446 172.373C365.047 171.741 365.716 171.182 366.256 170.488C369.537 166.276 372.752 161.582 376.473 157.704C379.336 154.72 384.68 148.954 384.355 144.389C384.091 140.671 374.305 138.7 371.335 138.321C362.183 137.153 353.094 136.072 343.952 136.436C341.498 136.533 338.866 136.326 336.246 136.259ZM341.383 157.174L344.536 178.265C344.536 183.685 343.031 182.504 342.785 177.911C342.43 171.284 341.383 163.853 341.383 157.174ZM349.499 157.527L350.258 180.798C350.258 174.031 346.849 162.876 349.499 157.527ZM352.01 157.527L352.01 176.498C352.01 170.506 350.125 163.233 352.01 157.527ZM344.186 159C344.645 159.926 344.891 162.561 345.062 165.716L346.697 177.911C345.342 187.476 345.541 174.577 345.062 165.716L344.186 159ZM335.72 161.121C336.194 161.599 336.514 163.402 336.713 165.716C337.012 164.742 337.12 163.954 337.472 162.888L336.771 167.248C337.026 171.206 337.135 174.843 337.238 178.736L338.523 185.806C338.523 187.568 337.563 185.59 337.472 185.04C337.316 184.095 337.298 180.994 337.238 178.736L336.012 171.902L335.019 177.911L334.319 182.212C334.03 177.551 334.611 173.681 335.603 169.663L335.019 166.482C335.019 164.863 335.46 163.401 335.72 161.828C335.759 161.593 335.553 160.952 335.72 161.121ZM339.982 161.828L341.734 182.212C340.179 177.504 339.982 172.461 339.982 167.542C339.982 166.947 339.982 166.371 339.982 165.775C339.982 164.464 339.982 160.517 339.982 161.828ZM334.319 162.181C334.319 161.466 334.354 163.647 334.319 164.361C334.276 165.227 334.19 166.087 334.144 166.953L333.56 185.453C333.215 184.061 333.14 184.203 333.209 182.919C333.237 182.407 333.298 181.899 333.326 181.387L331.108 168.603C331.235 168.345 331.739 166.74 332.159 168.603C333.067 172.636 333.228 176.634 333.326 180.68C333.587 176.098 333.896 171.536 334.144 166.953L334.319 162.181Z" fill="#ef9f46" fill-rule="nonzero" opacity="1" stroke="#454545" stroke-linecap="butt" stroke-linejoin="round" stroke-width="2.90065" vectornator:layerName="Кривая 123"/>
<path d="M190.69 85.0621C122.22 85.0621 66.7369 139.067 66.7369 205.719C66.7369 272.371 122.22 326.376 190.69 326.376C259.16 326.376 314.643 272.371 314.643 205.719C314.643 139.067 259.16 85.0621 190.69 85.0621ZM155.95 107.509C159.731 107.64 166.861 104.732 170.743 104.977L144.565 108.274C148.391 107.502 152.169 107.377 155.95 107.509ZM151.513 109.924C157.469 109.827 165.978 111.242 171.634 112.194L123.251 115.033C128.864 113.617 145.557 110.021 151.513 109.924ZM153.373 120.81L99.4022 132.825C111.855 126.542 139.517 120.81 153.373 120.81ZM143.493 132.664L97.623 141.09C112.281 136.16 126.641 136.628 143.493 132.664ZM154.316 139.381L94.7657 153.056C96.163 153.02 131.649 146.105 133.175 146.105L85.3619 157.763C88.42 153.134 94.2999 151.115 99.3161 148.808C103.558 146.857 122.535 144.351 126.074 143.393L101.009 145.803C101.573 145.376 102.007 144.622 102.703 144.507C112.38 142.902 122.135 141.646 131.895 140.677C139.341 139.938 146.846 139.808 154.316 139.381ZM158.928 149.75C165.807 149.556 172.827 149.639 180.064 150.045L98.0317 160.708C118.845 153.708 138.291 150.334 158.928 149.75ZM121.328 150.516L78.9979 168.014C77.9816 165.963 82.9004 165.581 84.9532 164.597C88.5405 162.877 92.0389 160.986 95.5211 159.059C104.096 154.314 111.618 151.605 121.328 150.516ZM125.94 159.059L107.549 166.659C112.126 165.624 116.8 164.835 121.328 163.713C134.752 160.386 148.981 160.708 162.723 160.708L97.6813 170.783L78.5892 178.677C78.7301 178.251 78.6135 177.609 78.9979 177.381C85.1969 173.71 91.4363 170.014 98.0317 167.13C106.938 163.236 116.344 160.442 125.94 159.059ZM97.6813 170.783L107.549 166.659C102.658 167.764 97.8736 169.183 93.4192 171.431L97.6813 170.783ZM142.443 171.655L73.2099 196.099C78.0349 193.664 82.9376 189.301 87.8115 186.968C104.514 178.973 124.723 176.125 142.443 171.655ZM153.848 180.798L113.212 189.518L76.0786 202.538C77.0752 200.526 79.5737 199.714 81.5669 198.708C86.0255 196.459 90.5699 194.359 95.1124 192.287C95.3439 191.819 95.474 191.243 95.9298 191.049C99.6093 189.486 104.027 187.74 107.802 186.374C111.486 185.041 114.524 184.079 118.35 183.332C130.003 181.056 141.979 180.798 153.848 180.798ZM95.1124 192.287C94.8681 192.78 94.526 193.145 94.2366 193.583L113.212 189.518L135.69 181.623C122.523 183.837 109.093 185.922 96.8056 191.462C96.2338 191.72 95.683 192.026 95.1124 192.287ZM168.27 185.924L76.0905 206.34C76.6542 206.056 90.7032 199.677 91.3173 199.533C104.11 196.544 116.895 193.536 129.794 191.049C142.5 188.599 155.374 186.965 168.27 185.924ZM125.531 199.121L76.0786 215.794C80.0898 211.746 85.9462 209.917 91.3173 208.076C102.484 204.247 113.898 201.077 125.531 199.121ZM154.316 206.367L111.084 206.34L72.066 231.286C95.4278 219.5 128.151 206.367 154.316 206.367ZM153.206 221.331C158.808 221.27 164.388 221.331 169.905 221.331L108.95 228.814L83.2601 236.237C83.2341 236.224 94.7664 231.38 97.623 230.286C108.751 226.027 119.998 222.957 131.895 222.156L128.275 223.217C136.521 222.064 144.833 221.423 153.206 221.331ZM128.275 223.217C119.972 224.378 111.772 226.036 103.987 229.403L108.95 228.814L128.275 223.217ZM150.462 231.111L86.2377 243.955C107.474 236.812 127.828 232.455 150.462 231.111ZM162.723 245.192L91.726 256.327C91.726 255.606 108.041 252.619 110.76 252.026C127.594 248.353 145.448 245.192 162.723 245.192ZM173.291 258.86L97.623 267.403C99.4157 263.785 105.506 265.846 109.475 265.282C115.693 264.398 121.89 263.212 128.1 262.277C143.017 260.031 158.212 258.86 173.291 258.86ZM106.906 269.465C110.429 269.147 114.347 270.364 117.941 270.407L103.578 270.407C104.65 269.867 105.732 269.571 106.906 269.465ZM193.2 271.232C174.738 274.958 156.687 277.517 137.792 278.891C134.008 279.166 130.132 279.039 126.29 279.009L117.065 280.069C118.823 280.381 120.565 280.611 122.32 280.894L153.848 282.308C144.542 282.308 135.231 282.029 125.94 281.483C124.745 281.413 123.53 281.089 122.32 280.894L113.329 280.482L112.453 280.6C112.626 280.541 112.805 280.536 112.978 280.482L106.089 280.187C109.219 279.134 112.507 279.363 115.839 279.893C114.878 280.083 113.92 280.188 112.978 280.482L113.329 280.482L117.065 280.069C116.675 280 116.287 279.955 115.898 279.893C119.296 279.224 122.756 278.981 126.29 279.009L193.2 271.232ZM202.484 281.071C179.869 286.142 157.315 290.026 133.997 290.026L202.484 281.071ZM114.964 290.851C125.899 290.851 137.656 291.643 148.36 293.443L114.964 290.851ZM229.575 297.272C198.939 301.136 167.308 301.514 136.508 301.514L229.575 297.272ZM218.131 310.057C198.11 312.077 178.19 310.941 158.111 310.941L218.131 310.057Z" fill="#ef9f46" fill-rule="nonzero" opacity="1" stroke="#454545" stroke-linecap="butt" stroke-linejoin="round" stroke-width="5" vectornator:layerName="Кривая 122"/>
<path d="M106.852 117.99C109.765 114.867 117.77 107.954 121.471 106.305C128.386 103.225 134.815 97.0597 142.291 94.9516C157.328 90.7115 173.898 84.2887 189.83 85.1386C203.976 85.8933 218.281 86.7165 232.062 90.6232C235.556 91.6136 255.438 98.8367 260.256 103.091C264.905 107.198 279.532 118.043 281.668 119.93C287.378 124.972 302.522 147.705 304.094 150.094C305.135 151.677 308.504 167.759 310.025 173.378C315.105 192.15 316.613 213.866 311.376 233.118C310.226 237.343 295.643 269.838 286.971 279.135C283.302 283.069 271.766 295.219 269.744 297.605C265.364 302.772 256.73 307.514 250.49 309.273C246.61 310.367 243.177 313.415 239.139 314.554C231.87 316.603 225.424 321.651 217.807 322.649C212.581 323.333 207.75 324.953 202.503 325.641C194.874 326.64 171.124 326.495 167.21 325.951C160.231 324.98 154.586 321.14 147.992 319.27C145.867 318.668 144.16 316.544 142.062 315.838C134.787 313.39 127.237 309.716 121.732 304.366C119.77 302.459 112.959 296.876 111.557 295.514C106.765 290.857 89.9508 274.741 88.5874 271.552C86.4739 266.608 81.8308 263.034 79.307 258.477C72.8984 246.905 71.5996 237.361 69.6156 224.721C67.7767 213.007 66.2662 201.806 66.8732 189.952C67.3203 181.22 71.3166 172.32 73.9617 164.131C75.3518 159.827 87.0108 138.849 91.5883 133.449C93.9385 130.676 106.141 118.753 106.852 117.99Z" fill="#ffffff" fill-opacity="0" fill-rule="nonzero" opacity="1" stroke="#454545" stroke-linecap="butt" stroke-linejoin="round" stroke-width="4.01164" vectornator:layerName="Кривая 23"/>
</g>
</svg>
