<?xml version="1.0" encoding="UTF-8" standalone="no"?>
<!DOCTYPE svg PUBLIC "-//W3C//DTD SVG 1.1//EN" "http://www.w3.org/Graphics/SVG/1.1/DTD/svg11.dtd">
<!-- Created with Vectornator (http://vectornator.io/) -->
<svg height="100%" stroke-miterlimit="10" style="fill-rule:nonzero;clip-rule:evenodd;stroke-linecap:round;stroke-linejoin:round;" version="1.1" viewBox="0 0 400 400" width="100%" xml:space="preserve" xmlns="http://www.w3.org/2000/svg" xmlns:vectornator="http://vectornator.io" xmlns:xlink="http://www.w3.org/1999/xlink">
<defs/>
<g id="Слой-1" vectornator:layerName="Слой 1">
<g opacity="1" vectornator:layerName="Группа 1">
<path d="M251.971 23.4524C249.169 24.1974 246.198 26.8536 244.501 28.4338C237.451 35.0023 231.722 41.976 226.509 50.1413C225.12 52.3161 221.629 55.9124 221.334 58.557C221.006 61.4986 220.569 63.8183 222.813 65.8914C223.283 66.3251 228.396 68.1861 227.962 68.3473C226.592 68.8556 230.03 69.576 230.621 69.9825C232.837 71.5077 234.983 73.0495 237.344 74.3308C240.989 76.3092 245.433 77.5697 248.85 79.9215C250.649 81.1599 253.168 83.6424 255.378 83.8707C256.628 83.9998 257.652 83.7459 258.666 82.8012C260.628 80.9735 261.381 74.4415 261.602 71.715C262.59 59.5155 261.125 48.6294 258.868 36.8854C258.407 34.4868 257.068 24.3101 254.679 23.489C253.841 23.2012 252.906 23.204 251.971 23.4524ZM246.68 41.5059C241.345 45.003 236.696 49.0356 230.215 49.5135L246.68 41.5059ZM244.058 46.3661C241.718 48.1241 239.161 49.5265 236.676 51.0457L237.051 50.8998L241.905 49.3604C240.034 50.1879 236.267 52.2357 232.613 53.5901C232.145 53.8572 231.712 54.1956 231.242 54.4591C230.345 54.9628 221.361 58.8476 224.73 56.7116L228.608 54.6534C228.069 54.7201 227.644 54.6171 227.167 54.5824C226.852 54.6266 226.567 54.8039 226.247 54.8275L226.948 54.5986C226.5 54.5488 225.933 54.688 225.562 54.5235L233.438 52.0524L244.058 46.3661ZM240.826 52.6891C237.064 54.6704 230.507 59.4558 225.493 58.0731L240.826 52.6891ZM259.52 316.673C256.831 316.261 215.141 334.494 215.065 336.551C215.018 337.845 220.13 343.821 226.645 349.875C227.252 348.926 228.028 347.911 228.094 347.819C228.186 347.689 228.304 347.573 228.397 347.442L226.57 345.864C225.804 346.317 224.971 346.802 224.641 346.656C223.912 346.332 224.725 345.751 225.745 345.157L223.389 343.145C227.029 340.837 228.779 339.285 232.985 337.061C233.482 336.798 234.753 336.345 234.687 336.936C234.412 339.403 229.428 342.595 227.808 343.941C227.358 344.315 226.487 344.724 225.745 345.157L226.57 345.864C227.721 345.182 228.879 344.384 229.151 344.197C230.575 343.219 231.799 342.181 233.275 340.998C233.38 340.879 233.473 340.738 233.579 340.621C234.201 339.935 235.835 339.037 235.835 339.037C235.835 339.037 234.188 340.266 233.275 340.998C231.527 342.984 229.951 345.256 228.397 347.442L230.635 349.345C232.983 347.768 235.442 345.84 235.978 345.465C236.647 344.998 237.248 344.471 237.85 343.91C238.037 343.736 238.645 343.308 238.483 343.508C237.739 344.433 234.374 347.702 231.87 350.376L233.05 351.412C235.09 349.999 236.964 348.346 239.073 347.01C239.676 346.627 240.996 345.403 241.052 346.155C241.183 347.933 236.142 350.613 234.581 352.716L235.11 353.15C236.944 352.503 242.776 347.8 243.158 347.772C244.338 347.685 241.833 349.866 241.065 350.821C240.78 351.174 239.092 353.662 237.881 355.545L239.056 356.522C240.675 355.531 242.309 354.231 243.253 353.554C243.749 353.198 244.988 352.048 244.844 352.669C244.722 353.194 240.81 357.867 240.93 357.979C241.815 358.796 247.11 351.97 243.868 357.407C243.383 358.222 243.058 358.767 242.711 359.679L239.056 356.522C238.161 357.07 237.24 357.726 236.541 357.593C236.389 357.564 237.361 356.353 237.881 355.545L235.11 353.15C234.823 353.251 233.903 354.005 233.891 353.831C233.866 353.492 234.291 353.107 234.581 352.716L233.05 351.412C232.514 351.783 232.059 352.291 231.481 352.591C231.241 352.715 230.86 352.967 230.532 353.192C237.271 358.893 244.839 364.114 250.588 364.71C251.703 364.825 252.405 365.397 253.647 365.016C256.087 364.266 258.678 334.167 259.437 331.271C259.631 330.533 261.791 317.022 259.52 316.673ZM231.87 350.376L230.635 349.345C229.61 350.033 228.592 350.657 227.779 351.032C228.443 351.631 229.195 352.057 229.885 352.649C230.171 352.159 231.008 351.296 231.87 350.376ZM222.31 337.494C222.266 336.9 223.401 337.414 223.957 337.373C225.622 337.25 227.287 337.127 228.952 337.004C228.25 337.056 223.483 337.356 223.324 337.774C223.304 337.826 223.397 337.839 223.387 337.887C223.864 337.848 224.422 337.782 224.722 338.025C225.321 338.509 225.461 339.36 226.629 339.184C227.263 339.088 223.117 339.311 223.387 337.887C222.833 337.933 222.344 337.959 222.31 337.494ZM127.239 325.128C126.314 324.99 125.191 325.001 124.355 325.695C120.308 329.059 123.493 351.541 124.009 357.68C123.013 357.405 125.137 355.782 125.854 355.004C126.197 354.632 126.946 354.061 128.19 353L125.499 354.676C127.346 353.505 127.68 353.303 129.797 351.582C128.842 352.379 129.055 352.262 128.19 353L131.464 350.987C133.733 348.517 136.206 346.029 138.536 345.857C139.184 345.81 137.455 346.583 136.968 347.036C136.336 347.625 135.695 348.197 135.053 348.773L139.221 346.161C137.693 350.179 130.842 354.155 127.635 356.704C127.595 356.736 125.078 358.91 124.177 359.204C124.514 363.409 125.604 373.358 130.235 373.998C139.49 375.277 155.579 360.912 160.114 353.305C161.83 350.426 168.927 344.766 165.585 340.673C161.123 335.21 145.317 329.332 138.66 328.067C135.558 327.477 130.871 323.73 129.131 325.343C128.907 325.551 128.163 325.266 127.239 325.128ZM124.009 357.68C124.02 357.809 124.053 358.271 124.061 358.385C124.07 358.508 124.149 358.831 124.16 358.969C124.253 358.59 124.659 358.003 125.461 357.16C124.93 357.418 124.363 357.778 124.009 357.68ZM137.336 334.072L126.253 342.451C129.011 339.025 133.597 336.01 137.336 334.072ZM136.994 338.41L125.555 346.46C129.255 343.386 133.699 341.605 137.704 339.066L125.555 346.46C129.011 342.167 132.587 341.203 136.994 338.41ZM136.651 351.727C134.879 356.388 129.349 358.488 126.383 362.172L136.651 351.727ZM53.9749 248.476C48.266 252.507 37.9879 275.662 36.0094 282.528C35.7724 283.351 35.4911 284.33 35.1613 285.249L42.2905 280.884C41.6357 281.059 41.0411 281.156 41.0019 280.624L47.3119 276.378L47.3668 276.374L52.7827 272.726C51.4109 273.164 50.0795 273.71 48.8996 273.957C48.4221 274.057 47.9062 274.051 47.4174 274.067C45.7069 275.805 43.9189 277.484 41.86 278.789L47.0332 274.095C46.979 274.098 46.9225 274.103 46.8685 274.107C46.5355 274.132 45.5474 274.204 45.8804 274.18C46.3751 274.143 46.8106 273.95 47.2946 273.898L49.6219 271.777C48.8758 271.832 48.1173 271.888 47.3712 271.943C46.8162 271.984 45.1694 272.106 45.7244 272.065C50.6651 271.7 55.5801 269.77 60.1429 267.752L56.0431 270.536C58.056 270.145 59.9685 269.941 60.3552 270.631C60.7188 271.28 59.0987 271.25 58.431 271.482C56.6221 272.112 54.7747 272.223 52.9979 272.651C54.4112 272.216 55.8386 271.938 57.1107 272.288C57.3523 272.355 56.7072 272.588 56.4779 272.69C55.5052 273.12 54.5857 273.594 53.5916 273.966C53.2778 274.083 50.8459 275.085 48.4979 275.995C49.238 275.692 50.9687 275.125 52.2712 274.772C53.5271 274.679 50.9276 277.161 49.8486 277.845C48.4224 278.749 45.7221 280.576 42.8842 282.199L49.8746 278.198C48.5931 279.79 38.3611 286.187 37.0075 285.586L42.8842 282.199C40.1114 283.784 37.2272 285.102 35.1657 285.308C33.7636 289.222 32.2795 293.514 37.6256 295.465C40.5354 296.527 78.3444 289.365 80.1213 280.457C80.9269 276.419 59.531 244.553 53.9749 248.476ZM56.0431 270.536C53.7942 270.973 51.4074 271.646 50.7198 271.696C50.374 271.722 50.0226 271.748 49.6768 271.773C49.6668 271.784 49.6319 271.767 49.6219 271.777C48.9781 272.474 48.3324 273.135 47.6746 273.811C49.418 273.609 51.112 273.12 52.7827 272.726C52.823 272.713 52.8477 272.672 52.8881 272.659L56.0431 270.536ZM59.051 257.436C63.8502 258.099 50.6953 262.01 48.6918 262.158L59.051 257.436ZM58.9989 265.71C55.9617 267.635 51.794 269.431 48.2539 269.692L58.9989 265.71ZM38.5173 121.188C27.7409 121.753 17.9176 124.074 16.1795 127.384C14.6408 130.315 33.1923 159.993 41.6526 165.204C55.5852 173.785 68.3756 126.872 66.5509 125.619C61.0057 121.812 49.2936 120.623 38.5173 121.188ZM28.2763 134.999L31.8933 149.619C31.8459 148.753 31.7617 147.9 31.7575 147.03L30.6728 140.552C31.7439 142.465 31.7466 144.735 31.7575 147.03L33.0171 154.38C32.2567 153.023 32.0286 151.501 31.9193 149.971C29.0172 147.063 28.5786 139.099 28.2763 134.999ZM31.596 135.109L34.274 146.726C34.2583 145.165 34.2628 143.58 34.1513 142.068L34.8489 149.283L35.5726 152.36C35.3655 152.169 35.2568 151.801 35.0728 151.57L35.4815 155.616C34.8916 154.12 34.7836 152.466 34.6322 150.835C32.1562 146.864 31.9061 139.314 31.596 135.109ZM37.133 137.595L39.5279 151.36C37.0226 151.545 36.3644 140.903 37.133 137.595ZM34.8795 138.47L39.7762 159.966C39.2654 159.74 38.8265 158.635 38.3909 157.647L38.7881 160.039C38.4522 159.187 38.4292 158.256 38.2594 157.361C36.2901 152.481 35.1199 141.73 34.8795 138.47ZM25.5994 139.863C26.2091 141.55 26.5207 143.375 26.4141 141.93C26.3587 141.178 26.5993 144.341 25.9157 144.152C25.4696 144.029 25.0158 138.249 25.5994 139.863ZM40.2562 138.782C40.8346 138.064 40.3941 140.652 40.4642 141.603C40.6044 143.504 40.7443 145.401 40.8845 147.302C41.1831 151.352 42.8315 157.965 41.3046 161.98L39.7535 140.946C40.0179 140.251 39.799 139.35 40.2562 138.782ZM48.0945 141.04L47.4874 159.752C46.9869 152.965 46.8853 147.422 48.0945 141.04ZM42.8781 142.901C43.6551 142.844 42.9286 144.546 43.06 145.369C43.9623 151.02 44.2282 156.72 44.6502 162.443L43.3907 155.092C43.6546 157.365 43.7834 159.67 43.9915 162.491L41.9289 147.993C42.7099 150.491 43.109 152.666 43.3777 154.916L41.7426 145.466C42.0796 144.58 41.9831 142.967 42.8781 142.901ZM50.3119 143.417C50.226 147.192 50.1856 151.473 49.5489 155.524C49.4158 157.917 49.0404 160.212 47.9988 162.196L49.0724 144.571C49.2335 146.755 49.4144 149.217 49.5375 151.626L50.3119 143.417ZM53.6056 143.174C53.9002 147.169 54.2497 151.301 52.8253 155.046L53.6056 143.174ZM110.344 24.9169C100.329 31.1603 104.716 82.4087 106.663 85.0307C107.857 86.6374 142.573 68.8154 145.713 62.952C147.488 59.637 116.606 21.0129 110.344 24.9169ZM111.198 34.2468C110.363 36.4413 109.998 38.517 108.684 40.5759C107.578 42.3077 103.919 47.0709 104.659 45.126L111.198 34.2468ZM115.153 42.2255C114.721 44.0828 114.057 45.9095 113.406 47.7301L114.953 44.0125C113.17 53.0602 109.484 59.5905 105.027 68.0789L109.526 57.2319C108.54 59.4467 106.782 63.3941 107.242 62.1853L115.153 42.2255ZM113.968 43.3762C114.048 43.4149 113.963 43.6947 113.662 44.4622C112.206 48.1679 108.558 59.0111 105.318 63.0361L109.955 51.8244L106.194 57.7138C106.497 55.0013 108.535 52.9632 110.329 50.9107L113.28 43.7814C113.649 43.5478 113.888 43.3376 113.968 43.3762ZM118.958 46.6709C120.149 45.7754 113.694 60.9978 113.251 62.0966C112.358 64.3117 111.456 66.4749 110.535 68.677L117.959 48.1032C118.48 47.2295 118.787 46.7988 118.958 46.6709ZM119.598 50.1091C119.741 50.1116 119.536 50.7612 118.934 52.3438C118.44 53.6447 117.87 55.0642 117.358 56.418C118.386 57.0186 117.685 59.1683 116.481 61.7403C116.694 61.4964 117.006 61.2174 117.198 60.9786L116.389 61.9834C114.204 66.5594 110.461 72.4027 109.888 74.8684L111.207 71.0495C110.724 72.0645 110.343 73.198 109.836 74.1634L112.647 66.6308L110.17 69.7082L109.346 72.0137C108.239 73.3895 108.877 72.7024 109.32 71.6612C109.579 71.0523 109.812 70.4438 110.069 69.8338L108.299 72.0319C109.178 69.7207 111.086 67.4832 113.105 65.3565L115.644 58.6121L116.509 56.1262C116.534 56.1244 116.54 56.1233 116.564 56.1221L118.224 51.6873C118.971 50.7587 119.454 50.1067 119.598 50.1091ZM118.112 59.9069C118.491 65.0474 112.975 71.8035 109.94 75.5735L118.112 59.9069ZM119.866 60.4864C120.711 60.4241 121.056 61.4851 120.659 62.2593C118.081 67.2895 116.152 69.7305 113.504 73.0068C113.106 73.4824 112.964 73.7954 112.547 74.2588C112.19 74.6989 111.984 74.9588 111.587 75.4521L111.928 74.8362C110.247 76.6371 108.497 78.456 107.442 79.1249L113.388 72.1883L119.866 60.4864ZM315.934 239.431C312.756 240.243 298.667 281.278 298.46 283.135C298.038 286.919 298.945 288.893 301.645 289.821C301.645 289.821 309.439 291.35 310.731 290.796C311.941 265.039 302.239 288.268 302.899 288.392C302.917 288.641 311.308 277.654 312.082 276.509C314.841 272.43 307.286 289.462 307.286 289.462L309.84 290.916C309.84 290.916 323.854 291.756 330.972 290.662L329.547 287.813C329.19 288.02 328.812 288.229 328.568 288.004C328.415 287.862 328.892 287.192 329.03 286.788L328.2 285.255C326.959 286.731 325.122 288.827 324.286 288.32C324.092 288.201 324.193 287.79 324.23 287.556C324.485 285.932 325.504 284.006 326.644 282.12L326.58 282.007C325.327 283.774 320.956 290.07 320.659 289.539C320.105 288.55 324.197 281.32 324.694 280.374C324.799 280.173 324.43 278.93 324.558 278.655C323.775 280.366 321.978 284.766 320.285 283.737C320.171 283.668 319.806 290.888 319.024 290.166C318.808 289.966 316.13 289.777 316.1 289.343C315.784 289.792 318.193 281.452 317.918 281.93C317.417 282.798 312.944 290.886 312.975 289.863C313.011 288.647 314.68 289.396 314.94 288.188C312.554 291.243 310.822 289.831 310.822 289.831C312.016 287.479 319.401 276.291 319.401 276.291C319.546 275.972 317.502 288.93 317.502 288.93C317.502 288.931 325.368 279.022 325.274 279.267C325.268 279.284 325.236 279.371 325.228 279.389L326.58 282.007C326.805 281.69 327.31 280.973 327.381 280.884C328.047 280.056 329.536 278.343 328.869 279.171C328.102 280.124 327.523 280.667 326.644 282.12L328.2 285.255C328.577 284.805 329.173 284.174 329.321 283.99C329.357 283.946 333.679 279.499 333.69 279.647C333.715 279.985 329.551 285.271 329.03 286.788L329.547 287.813C330.934 287.011 337.605 280.481 336.781 284.027C336.612 284.756 331.583 289.191 331.414 289.921C331.362 290.146 331.294 290.358 331.242 290.583C334.02 290.151 337.072 289.854 339.488 289.384C342.299 288.838 349.484 285.963 349.893 282.296C350.385 277.885 321.852 239.988 317.945 239.755C317.281 239.716 316.61 239.259 315.934 239.431ZM305.013 275.965L301.056 288.199C299.549 284.375 303.275 279.518 305.013 275.965ZM321.017 120.737C318.548 120.852 316.12 121.061 313.924 121.851C309.272 123.525 310.717 129.639 310.542 133.62C310.475 135.141 311.387 139.455 310.851 138.559C310.54 138.04 311.673 140.565 312.263 141.999C313.023 143.843 314.074 147.335 314.292 149.293C314.961 155.329 315.637 162.798 318.866 167.919C319.297 168.602 319.418 169.869 319.986 170.377C321.059 171.336 325.166 171.469 326.512 171.313C329.816 170.929 333.519 168.718 336.171 166.82C341.031 163.343 346.311 159.792 350.136 154.861L349.938 148.437C348.974 144.737 348.884 139.737 349.742 136.046L349.808 137.695C349.893 136.191 350.03 133.839 350.295 133.819C351.405 133.737 350.472 136.215 350.56 137.403C350.63 138.354 350.697 139.273 350.768 140.223C351.13 145.139 349.94 149.972 350.187 154.799C350.705 154.126 351.293 153.522 351.75 152.793C354.525 148.364 357.202 143.461 360.416 139.335C362.888 136.161 367.488 130.039 366.848 125.51C366.326 121.82 356.979 120.533 354.16 120.361C345.469 119.83 336.844 119.383 328.276 120.379C325.975 120.646 323.485 120.622 321.017 120.737ZM327.385 141.239L331.901 162.055C332.299 167.46 330.797 166.386 330.228 161.823C329.407 155.238 327.877 147.9 327.385 141.239ZM335.042 141.029L337.467 164.184C336.969 157.436 332.943 146.546 335.042 141.029ZM337.402 140.855L338.797 159.774C338.357 153.799 336.05 146.676 337.402 140.855ZM330.155 142.866C330.654 143.758 331.08 146.369 331.472 149.503L333.906 161.552C333.336 171.185 332.574 158.307 331.472 149.503L330.155 142.866ZM322.351 145.568C322.831 146.012 323.265 147.788 323.622 150.082C323.832 149.09 323.875 148.296 324.128 147.209L323.79 151.606C324.32 155.536 324.691 159.155 325.074 163.031L326.801 169.992C326.931 171.749 325.883 169.844 325.757 169.301C325.541 168.37 325.296 165.278 325.074 163.031L323.418 156.3L322.927 162.362L322.585 166.7C321.97 162.071 322.232 158.172 322.869 154.096L322.087 150.963C321.967 149.349 322.274 147.86 322.403 146.273C322.422 146.036 322.182 145.412 322.351 145.568ZM326.41 145.978L329.556 166.185C327.748 161.598 327.192 156.582 326.831 151.677C326.787 151.083 326.744 150.508 326.701 149.914C326.604 148.607 326.314 144.671 326.41 145.978ZM321.111 146.723C321.059 146.01 321.253 148.182 321.272 148.897C321.295 149.763 321.278 150.627 321.298 151.494L322.109 169.984C321.683 168.62 321.623 168.766 321.594 167.481C321.582 166.969 321.601 166.458 321.591 165.946L318.565 153.35C318.666 153.084 319.021 151.448 319.553 153.277C320.703 157.236 321.149 161.212 321.539 165.241C321.447 160.653 321.402 156.082 321.298 151.494L321.111 146.723Z" fill="#ef9f46" fill-rule="nonzero" opacity="1" stroke="#4b4b4b" stroke-linecap="butt" stroke-linejoin="round" stroke-width="2.90065" vectornator:layerName="Кривая 123"/>
<path d="M180.4 79.7706C116.024 84.5177 67.8305 142.224 72.7322 208.695C77.6338 275.166 133.771 325.178 198.146 320.431C262.522 315.684 310.716 257.978 305.814 191.507C300.912 125.036 244.775 75.0234 180.4 79.7706ZM149.388 104.565C152.953 104.434 159.442 101.039 163.11 101.014L138.74 106.118C142.281 105.083 145.824 104.695 149.388 104.565ZM145.394 107.281C150.987 106.772 159.091 107.593 164.479 108.15L119.197 114.336C124.371 112.534 139.801 107.791 145.394 107.281ZM147.944 118.009L98.0834 133.733C109.329 126.604 134.916 118.97 147.944 118.009ZM139.526 130.516L97.0184 142.099C110.437 136.166 123.973 135.637 139.526 130.516ZM150.195 136.465L95.2119 154.231C96.5231 154.098 129.378 144.742 130.813 144.636L86.7167 159.577C89.2514 154.749 94.6313 152.328 99.1779 149.679C103.022 147.439 120.681 143.625 123.937 142.423L100.549 146.565C101.048 146.1 101.4 145.318 102.045 145.155C111.026 142.883 120.106 140.954 129.211 139.312C136.157 138.058 143.203 137.408 150.195 136.465ZM155.294 146.486C161.748 145.815 168.354 145.411 175.188 145.314L98.8454 161.636C117.899 153.212 135.935 148.499 155.294 146.486ZM119.999 149.856L81.4871 170.241C80.3807 168.266 84.9773 167.544 86.835 166.421C90.0813 164.457 93.2314 162.328 96.3636 160.165C104.077 154.838 110.949 151.615 119.999 149.856ZM124.964 158.056L108.231 166.911C112.459 165.562 116.795 164.45 120.969 163.018C133.346 158.769 146.748 158.104 159.668 157.151L99.2569 171.708L81.887 180.904C81.9882 180.469 81.8313 179.837 82.176 179.583C87.7343 175.492 93.3288 171.374 99.3177 168.04C107.405 163.539 116.044 160.101 124.964 158.056ZM99.2569 171.708L108.231 166.911C103.714 168.352 99.32 170.099 95.2973 172.649L99.2569 171.708ZM141.406 169.474L78.1106 198.652C82.4681 195.889 86.7567 191.198 91.1676 188.533C106.283 179.402 125.075 175.16 141.406 169.474ZM152.802 177.802L115.237 189.315L81.2813 204.874C82.0704 202.799 84.3597 201.816 86.1598 200.675C90.1863 198.122 94.3045 195.713 98.423 193.331C98.6063 192.849 98.6862 192.265 99.1005 192.041C102.445 190.227 106.47 188.179 109.919 186.555C113.285 184.97 116.071 183.8 119.612 182.789C130.401 179.712 141.643 178.625 152.802 177.802ZM98.423 193.331C98.2297 193.84 97.9348 194.228 97.6949 194.685L115.237 189.315L135.79 179.883C123.574 183.004 111.1 186.015 99.9543 192.391C99.4357 192.688 98.9404 193.032 98.423 193.331ZM166.738 181.914L81.5721 208.666C82.0812 208.343 94.821 201.007 95.3878 200.821C107.196 196.953 118.995 193.067 130.939 189.693C142.706 186.369 154.69 183.846 166.738 181.914ZM127.526 198.038L82.2562 218.094C85.7299 213.779 91.1016 211.55 96.016 209.341C106.233 204.748 116.732 200.796 127.526 198.038ZM155.121 203.269L114.473 206.239L79.6229 233.823C100.721 220.449 130.522 205.083 155.121 203.269ZM155.179 218.27C160.441 217.821 165.693 217.494 170.879 217.112L114.119 228.8L90.5116 237.984C90.4862 237.973 100.973 232.343 103.578 231.054C113.727 226.035 124.076 222.193 135.203 220.57L131.878 221.878C139.546 220.157 147.313 218.941 155.179 218.27ZM131.878 221.878C124.156 223.612 116.569 225.834 109.497 229.732L114.119 228.8L131.878 221.878ZM153.318 228.213L93.8788 245.475C113.32 236.879 132.136 231.122 153.318 228.213ZM165.882 241.406L99.9487 257.433C99.8957 256.714 115.015 252.604 117.528 251.824C133.085 246.994 149.64 242.603 165.882 241.406ZM176.823 254.304L106.308 268.07C107.727 264.337 113.605 265.971 117.295 265.133C123.076 263.821 128.815 262.209 134.586 260.845C148.445 257.571 162.646 255.35 176.823 254.304ZM115.187 269.483C118.476 268.922 122.25 269.864 125.632 269.658L112.128 270.653C113.096 270.04 114.091 269.67 115.187 269.483ZM196.451 265.262C179.367 270.258 162.583 274.062 144.92 276.742C141.382 277.279 137.728 277.421 134.114 277.657L125.519 279.354C127.195 279.543 128.849 279.652 130.52 279.812L160.267 279.037C151.517 279.682 142.742 280.05 133.967 280.149C132.838 280.162 131.672 279.923 130.52 279.812L122.036 280.025L121.221 280.203C121.379 280.133 121.548 280.115 121.707 280.049L115.208 280.233C118.073 278.966 121.181 278.966 124.353 279.263C123.464 279.52 122.57 279.69 121.707 280.049L122.036 280.025L125.519 279.354C125.147 279.312 124.779 279.294 124.408 279.259C127.554 278.357 130.789 277.874 134.114 277.657L196.451 265.262ZM205.903 274.431C185.013 281.056 164.094 286.493 142.171 288.11L205.903 274.431ZM124.336 290.252C134.618 289.494 145.729 289.469 155.926 290.522L124.336 290.252ZM232.566 288.71C204.046 294.688 174.334 297.258 145.376 299.393L232.566 288.71ZM222.747 302.253C204.071 305.656 185.259 305.904 166.38 307.296L222.747 302.253Z" fill="#ef9f46" fill-rule="nonzero" opacity="1" stroke="#4b4b4b" stroke-linecap="butt" stroke-linejoin="round" stroke-width="5" vectornator:layerName="Кривая 122"/>
<path d="M103.997 118.422C106.506 115.105 113.524 107.656 116.882 105.755C123.157 102.204 128.749 95.6095 135.623 92.9888C149.448 87.7177 164.556 80.1634 179.597 79.9065C192.953 79.6783 206.462 79.5076 219.707 82.4481C223.065 83.1936 242.289 89.0187 247.132 92.9279C251.805 96.7005 266.355 106.503 268.502 108.236C274.241 112.869 290.151 134.49 291.805 136.764C292.9 138.27 297.251 154.075 299.094 159.573C305.251 177.943 308.266 199.495 304.757 219.058C303.987 223.352 292.665 256.769 285.196 266.642C282.035 270.82 272.083 283.737 270.357 286.257C266.619 291.714 258.851 297.041 253.113 299.228C249.546 300.588 246.542 303.866 242.829 305.282C236.146 307.83 230.456 313.31 223.368 314.833C218.505 315.879 214.082 317.829 209.199 318.879C202.099 320.404 179.759 321.906 176.04 321.635C169.406 321.151 163.817 317.712 157.479 316.305C155.436 315.851 153.676 313.851 151.651 313.293C144.631 311.356 137.263 308.216 131.693 303.262C129.708 301.496 122.894 296.4 121.476 295.139C116.628 290.827 99.6339 275.921 98.1175 272.834C95.7668 268.05 91.1385 264.808 88.4305 260.438C81.5541 249.342 79.6311 239.914 76.8362 227.446C74.2457 215.89 72.0018 204.825 71.7007 192.96C71.4789 184.221 74.5818 175.069 76.4665 166.719C77.457 162.33 86.8759 140.6 90.7826 134.897C92.7884 131.969 103.384 119.232 103.997 118.422Z" fill="#ffffff" fill-opacity="0" fill-rule="nonzero" opacity="1" stroke="#4b4b4b" stroke-linecap="butt" stroke-linejoin="round" stroke-width="4.01164" vectornator:layerName="Кривая 23"/>
</g>
</g>
<g id="Слой-2" vectornator:layerName="Слой 2">
<path d="M52.004 348.208C49.0468 356.866 52.0056 371.814 58.206 376.82C64.4064 381.826 72.8564 385.013 78.8977 386.395C85.64 387.937 93.3539 386.599 100.346 383.699C107.338 380.8 113.608 376.339 117.462 371.637C118.842 369.953 120.834 365.782 122.624 362.033C124.414 358.283 126.003 354.954 126.577 354.954C127.161 354.954 127.161 356.398 127.015 358.002C126.869 359.606 126.577 361.371 126.577 362.012C126.577 364.675 126.506 367.347 126.821 369.942C127.136 372.538 127.837 375.056 129.381 377.412C132.805 382.634 138.817 387.757 145.7 391.259C152.583 394.761 160.336 396.642 167.244 395.377C175.789 393.814 182.746 389.286 188.295 383.483C193.845 377.681 197.987 370.602 200.9 363.937C201.324 362.967 201.623 360.768 202.017 358.628C202.411 356.489 202.9 354.407 203.705 353.671C204.035 353.369 204.035 353.796 203.952 354.407C203.87 355.017 203.705 355.81 203.705 356.238C203.705 357.458 203.808 358.496 204.035 359.512C204.262 360.529 204.612 361.523 205.107 362.654C206.3 365.384 207.41 368.311 208.894 371.017C210.377 373.723 212.235 376.208 214.923 378.053C221.69 382.698 230.03 385.48 238.731 386.833C247.432 388.186 256.494 388.11 264.706 387.036C272.33 386.04 279.619 382.323 285.828 377.345C292.036 372.367 297.164 366.128 300.465 360.088C301.581 358.046 302.282 355.954 302.704 353.815C303.126 351.675 303.27 349.488 303.27 347.255L303.27 344.047L303.27 340.839C303.27 340.839 305.745 342.374 308.501 344.063C311.257 345.751 314.293 347.594 315.414 348.208C342.667 363.146 362.396 351.58 371.092 334.734C379.787 317.888 377.449 295.761 360.568 289.578C355.832 287.843 355.927 286.235 357.271 285.054C358.614 283.873 361.207 283.119 361.466 283.091C371.912 281.985 380.643 275.099 386.38 265.607C392.116 256.114 394.858 244.014 393.327 232.479C392.284 224.623 388.403 217.04 382.414 211.333C376.424 205.626 368.326 201.794 358.848 201.441C348.825 201.068 336.903 203.696 327.486 211.064C318.07 218.432 312.011 234.44 312.011 253.027C312.011 235.997 298.766 224.074 282.48 219.201C266.195 214.327 250.704 225.863 238.542 249.511C241.019 228.139 226.948 200.978 210.252 200.028C193.556 199.078 169.548 211.08 171.754 227.476C158.287 175.499 126.753 137.673 61.7026 163.143C21.4846 178.89-7.72336 248.845 47.878 274.277C19.8327 272.455 5.47254 291.951 3.84516 307.38C2.21778 322.808 19.801 347.383 44.3059 338.307C54.3091 334.603 56.861 334.283 55.7787 336.902C54.6964 339.521 51.9961 348.208 51.9961 348.208" fill="#c5eaff" fill-rule="nonzero" opacity="1" stroke="#4b4b4b" stroke-linecap="butt" stroke-linejoin="round" stroke-width="2.00401" vectornator:layerName="Кривая 1"/>
<path d="M27.537 196.935C29.4429 193.447 34.9253 192.036 38.3515 189.866C49.1303 183.037 60.7404 176.715 72.7259 171.84M19.04 214.253C24.7581 203.788 46.7932 197.137 57.2767 192.34C62.0038 190.177 67.6941 187.038 73.1122 187.038M17.1088 225.563C24.2371 212.517 47.9785 205.166 61.5253 200.116C66.6714 198.197 71.8347 195.657 77.3607 194.814M20.1987 233.692C18.8741 233.692 23.1311 231.928 25.2196 229.805C28.3217 226.65 31.359 223.703 35.2616 221.322C43.401 216.356 59.4937 214.117 69.2499 212.133M22.9023 246.416C20.9691 242.878 30.1288 236.406 31.7856 235.106C40.8737 227.978 53.8971 225.063 65.0013 221.675M24.8334 253.838C23.5694 251.525 27.4611 249.242 29.0819 247.123C33.1132 241.853 37.8056 236.612 44.9174 234.753C48.0962 233.922 51.3836 234.665 54.5731 233.692M32.1718 259.847C35.6373 250.333 47.9049 240.343 58.4354 237.934M39.1239 262.674C45.7729 256.59 50.0864 247.52 59.9803 245.709M45.3036 262.674C46.661 258.948 50.9876 256.817 54.9594 255.606M5.90815 302.613C12.6693 290.239 18.825 285.34 34.1029 282.114C36.842 281.535 39.3329 279.993 42.2138 279.993M5.52192 312.863C5.29109 313.285 4.74946 314.193 4.74946 314.63C4.74946 315.488 5.17383 312.952 5.52192 312.156C5.84266 311.422 6.29438 310.742 6.68061 310.035C8.24223 307.177 9.80605 305.119 12.0878 302.613C17.2687 296.924 27.0171 289.889 35.6479 289.889M12.0878 318.518C9.55375 318.518 14.0533 312.462 14.7914 311.449C19.0193 305.646 24.7635 302.468 31.3993 299.432M14.019 329.121C13.0251 327.302 14.5784 325.071 15.1777 323.113C16.997 317.167 20.4603 311.301 27.537 309.682M21.7436 332.656C21.7436 325.027 24.6465 318.75 31.3993 314.63M53.4144 350.681C53.4144 340.521 70.6559 330.384 78.5194 325.587M52.642 361.284C59.3259 349.051 67.863 338.145 82.3817 333.716M55.3456 369.767C55.3456 366.747 59.4904 360.536 60.7528 358.457C64.239 352.714 69.4138 348.682 75.4295 345.379M61.5253 372.948C61.3965 372.594 60.9652 372.224 61.139 371.887C63.2055 367.883 65.6414 364.043 68.0912 360.224C70.3813 356.653 71.8144 355.371 75.0433 353.155M66.16 376.129C64.545 376.868 67.7988 368.799 68.4774 367.646C71.2233 362.979 75.7969 360.595 79.6781 357.043M71.9535 377.542C74.8021 369.722 75.7188 367.381 81.6092 361.991M128.729 366.586C131.254 364.276 131.767 360.672 133.364 357.75C137.171 350.782 142.382 342.432 150.744 339.371M134.137 377.896C134.137 374.876 136.322 372.192 137.613 369.413C140.051 364.163 142.34 358.25 146.496 353.862C149.41 350.785 153.05 348.571 156.152 345.733M139.157 384.258C139.029 384.022 138.678 383.8 138.771 383.551C140.124 379.951 141.668 376.406 143.406 372.948C146.35 367.09 148.898 363.877 154.22 360.224M143.02 385.318C147.129 377.798 151.067 372.005 156.924 365.879M151.903 384.611C149.9 380.945 158.497 372.922 161.559 370.12M208.293 367.646C208.293 359.233 216.641 348.343 222.583 342.905M211.382 371.887C211.382 360.592 228.553 349.003 235.715 341.138M216.403 377.896C216.403 375.85 220.58 369.256 221.424 367.646C225.874 359.163 232.226 351.249 240.35 345.379C244.029 342.721 248.47 341.368 252.323 339.017M222.197 377.896C228.462 360.697 246.316 349.188 263.137 341.491M230.694 381.784C235.643 368.198 250.999 354.636 265.068 348.914M238.805 383.904C238.805 379.85 243.674 377.107 246.529 374.008C254.103 365.788 262.022 360.027 272.407 355.276M255.413 380.016C259.001 373.448 265.51 369.729 271.634 365.525M372.827 207.184C375.577 208.443 375.915 211.065 376.303 213.546C377.799 223.129 370.51 230.246 362.398 235.813M381.324 214.96C385.472 214.96 382.64 224.634 382.096 226.624C380.122 233.848 373.844 242.03 365.488 243.942M388.276 225.563C388.276 228.391 388.863 231.27 388.276 234.046C386.655 241.71 373.096 246.496 367.033 250.658M387.89 238.641C386.964 238.641 385.602 243.38 384.414 244.649C380.808 248.498 372.675 253.132 367.033 253.132M386.731 247.477C383.52 253.353 377.451 258.083 370.509 260.2M384.8 256.313C387.171 260.652 371.366 268.084 368.192 269.743M308.326 342.198C308.326 338.481 308.3 334.057 309.099 330.888C310.207 326.494 312.446 322.406 314.12 318.164M312.961 343.612C315.091 337.765 316.469 333.936 319.913 326.647C321.156 324.018 323.943 316.766 328.024 314.277M321.072 348.56C324.34 345.569 322.981 340.279 324.162 336.19C325.328 332.151 327.164 327.643 331.114 325.233M326.479 350.327C324.567 348.578 325.84 345.309 326.479 342.905C327.842 337.778 330.028 335.814 333.045 331.949M330.728 350.681C328.939 347.407 336.899 337.612 339.997 334.776M332.659 351.034C333.749 345.049 339.786 341.232 344.632 337.604M338.452 350.327C339.318 346.366 343.25 344.244 346.949 342.552M106.585 171.669C109.225 171.669 109.933 169.358 112.773 168.838C123.858 166.809 137.865 174.122 146.804 179.03M120.816 179.596C123.26 180.715 125.69 180.517 128.241 181.295C134.228 183.121 140.209 186.52 145.566 189.788M130.098 189.788C139.421 194.054 162.891 194.82 162.891 208.474M139.998 200.547C144.062 207.985 157.44 208.352 162.891 215.834M144.948 210.738C148.567 217.363 159.196 218.681 164.748 223.762" fill="none" opacity="1" stroke="#4b4b4b" stroke-linecap="butt" stroke-linejoin="round" stroke-width="2.00401" vectornator:layerName="Кривая 2"/>
</g>
</svg>
